<svg width="268" height="152" viewBox="0 0 268 152" fill="none" xmlns="http://www.w3.org/2000/svg">
<g opacity="0.5">
<path d="M244.619 3.13132H23.4496C20.3491 3.13132 17.8356 5.64479 17.8356 8.74531V34.8704C17.8356 37.9709 20.3491 40.4844 23.4496 40.4844H244.619C247.72 40.4844 250.233 37.9709 250.233 34.8704V8.74531C250.233 5.64479 247.72 3.13132 244.619 3.13132Z" fill="#303030"/>
<path d="M244.619 3.13132H23.4496C20.3491 3.13132 17.8356 5.64479 17.8356 8.74531V34.8704C17.8356 37.9709 20.3491 40.4844 23.4496 40.4844H244.619C247.72 40.4844 250.233 37.9709 250.233 34.8704V8.74531C250.233 5.64479 247.72 3.13132 244.619 3.13132Z" stroke="#484848" stroke-width="0.848933"/>
</g>
<path d="M258.404 17.8849H9.66636C6.14996 17.8849 3.29936 20.7355 3.29936 24.2519V141.54C3.29936 145.057 6.14996 147.907 9.66636 147.907H258.404C261.92 147.907 264.771 145.057 264.771 141.54V24.2519C264.771 20.7355 261.92 17.8849 258.404 17.8849Z" fill="#303030"/>
<path d="M248.216 31.4679H19.8535C18.2126 31.4679 16.8823 32.7981 16.8823 34.4391V106.734C16.8823 108.375 18.2126 109.705 19.8535 109.705H248.216C249.857 109.705 251.188 108.375 251.188 106.734V34.4391C251.188 32.7981 249.857 31.4679 248.216 31.4679Z" fill="#303030"/>
<path d="M28.325 49.7199H26.9404L30.0509 41.0761H31.5578L34.6674 49.7207H33.2837L30.8387 42.6474H30.7717L28.3242 49.7207L28.325 49.7199ZM28.5568 46.3352H33.0477V47.432H28.5568V46.3352ZM37.0767 45.8708V49.7199H35.8152V43.2374H37.0266V44.2918H37.1064C37.2558 43.9488 37.4893 43.6729 37.8076 43.465C38.1277 43.257 38.5318 43.1525 39.0182 43.1525C39.4596 43.1525 39.8476 43.2459 40.1795 43.431C40.5106 43.6144 40.7687 43.8869 40.9521 44.2502C41.1346 44.6127 41.2263 45.0618 41.2263 45.5966V49.7199H39.9639V45.7477C39.9639 45.2774 39.8417 44.9107 39.5972 44.6458C39.3518 44.3784 39.0156 44.2451 38.5878 44.2451C38.2958 44.2451 38.036 44.3079 37.8068 44.4353C37.5787 44.5657 37.393 44.759 37.2719 44.9922C37.1421 45.2341 37.0767 45.5279 37.0767 45.8708ZM45.9446 43.2374V44.2502H42.4037V43.2366H45.9438L45.9446 43.2374ZM43.3528 41.6839H44.6152V47.8166C44.6152 48.0611 44.6517 48.2453 44.7256 48.3692C44.7977 48.4906 44.892 48.573 45.0074 48.618C45.1263 48.6604 45.2536 48.6816 45.392 48.6816C45.493 48.6816 45.5813 48.6749 45.6577 48.6604L45.8351 48.6265L46.0626 49.669C45.9608 49.7052 45.8564 49.7336 45.7502 49.7538C45.5838 49.7882 45.4142 49.8052 45.2443 49.8048C44.9255 49.8128 44.6087 49.7519 44.3155 49.6265C44.033 49.5063 43.7913 49.307 43.6194 49.0526C43.4411 48.7937 43.3528 48.4694 43.3528 48.0781V41.6839ZM50.0017 49.8506C49.3939 49.8506 48.8641 49.7114 48.4108 49.433C47.9551 49.1515 47.589 48.746 47.3556 48.264C47.1051 47.7631 46.9795 47.1773 46.9795 46.5075C46.9795 45.8352 47.1051 45.2477 47.3556 44.7434C47.5879 44.2598 47.9537 43.8527 48.4099 43.5702C48.8633 43.2918 49.3939 43.1525 50.0017 43.1525C50.6095 43.1525 51.1393 43.2918 51.5926 43.5702C52.0459 43.8487 52.3974 44.2409 52.6478 44.7434C52.8982 45.2477 53.023 45.8352 53.023 46.5075C53.023 47.1782 52.8982 47.7631 52.6478 48.264C52.4143 48.746 52.0483 49.1515 51.5926 49.433C51.1393 49.7114 50.6095 49.8506 50.0017 49.8506ZM50.0059 48.7912C50.3998 48.7912 50.7258 48.6876 50.9848 48.4788C51.2437 48.2708 51.4347 47.9932 51.5586 47.6468C51.686 47.3013 51.7488 46.9201 51.7488 46.5041C51.7488 46.0899 51.6851 45.7104 51.5586 45.364C51.4493 45.0359 51.2506 44.7448 50.9848 44.5236C50.7258 44.313 50.399 44.2078 50.0059 44.2078C49.6086 44.2078 49.2801 44.313 49.0178 44.5244C48.7518 44.7462 48.5521 45.037 48.4405 45.3649C48.313 45.731 48.2498 46.1164 48.2537 46.5041C48.2537 46.9201 48.3166 47.3021 48.4405 47.6476C48.5661 47.9932 48.7597 48.2708 49.0178 48.4796C49.2801 48.6876 49.6086 48.7912 50.0059 48.7912ZM55.6938 45.8708V49.7199H54.4323V43.2374H55.6437V44.2918H55.7235C55.8692 43.9525 56.1131 43.6645 56.4239 43.465C56.7448 43.257 57.1488 43.1525 57.6353 43.1525C58.0767 43.1525 58.4638 43.2459 58.7958 43.431C59.1277 43.6144 59.3858 43.8869 59.5683 44.2502C59.7517 44.6127 59.8425 45.0618 59.8425 45.5966V49.7199H58.5819V45.7477C58.5819 45.2774 58.4596 44.9107 58.2143 44.6458C57.9698 44.3784 57.6336 44.2451 57.2057 44.2451C56.9128 44.2451 56.6531 44.3079 56.4247 44.4353C56.1963 44.5655 56.0103 44.7589 55.889 44.9922C55.7591 45.2341 55.6946 45.527 55.6946 45.87L55.6938 45.8708ZM61.5344 49.7199V43.2374H62.7968V49.7199H61.5361H61.5344ZM62.1728 42.2365C61.9627 42.2405 61.7594 42.1619 61.6066 42.0175C61.5328 41.95 61.474 41.8677 61.4341 41.776C61.3942 41.6843 61.374 41.5853 61.3748 41.4852C61.3736 41.3853 61.3936 41.2862 61.4335 41.1946C61.4735 41.103 61.5325 41.0209 61.6066 40.9538C61.6816 40.881 61.7702 40.8237 61.8674 40.7853C61.9645 40.7468 62.0683 40.7279 62.1728 40.7297C62.3919 40.7297 62.5795 40.8044 62.7331 40.9538C62.8086 41.0201 62.8689 41.1019 62.9099 41.1936C62.9509 41.2853 62.9717 41.3848 62.9708 41.4852C62.9712 41.5857 62.9501 41.6852 62.9091 41.7769C62.8682 41.8687 62.8082 41.9507 62.7331 42.0175C62.5827 42.1618 62.3812 42.2405 62.1728 42.2365ZM66.3818 49.8634C65.9981 49.8689 65.6178 49.791 65.2672 49.635C64.9463 49.4899 64.6727 49.2575 64.4777 48.9643C64.2867 48.6715 64.1907 48.3132 64.1907 47.8879C64.1907 47.5229 64.2612 47.2215 64.4021 46.9846C64.543 46.7486 64.7332 46.5619 64.9718 46.4243C65.2112 46.286 65.4786 46.1815 65.774 46.1111C66.0718 46.0403 66.3733 45.9867 66.6773 45.9506L67.6221 45.8411C67.8641 45.8106 68.0398 45.7613 68.1502 45.6934C68.2597 45.6255 68.3149 45.516 68.3149 45.364V45.3343C68.3149 44.9659 68.2104 44.6806 68.0025 44.4777C67.797 44.2757 67.4897 44.1738 67.0822 44.1738C66.6577 44.1738 66.3224 44.268 66.0779 44.4565C65.836 44.6433 65.6679 44.8496 65.5754 45.0771L64.3894 44.8071C64.5303 44.4132 64.7358 44.0949 65.0057 43.8529C65.277 43.6092 65.5983 43.4278 65.9472 43.3215C66.3089 43.2078 66.6861 43.1508 67.0652 43.1525C67.3242 43.1525 67.5984 43.184 67.8887 43.2459C68.1807 43.3054 68.4541 43.414 68.7071 43.5745C68.9634 43.7358 69.1723 43.965 69.3353 44.2621C69.4991 44.5584 69.5806 44.9421 69.5806 45.415V49.719H68.348V48.8336H68.297C68.2164 48.9966 68.0933 49.157 67.9303 49.3149C67.7673 49.472 67.5568 49.6036 67.3021 49.7072C67.0457 49.8116 66.7392 49.8634 66.3818 49.8634ZM66.656 48.8506C67.0041 48.8506 67.3029 48.7818 67.5508 48.6434C67.8013 48.5059 67.9906 48.3259 68.1196 48.1035C68.25 47.8855 68.3187 47.636 68.3183 47.3819V46.5457C68.2741 46.5907 68.1867 46.6332 68.0568 46.6731C67.9303 46.7096 67.7851 46.741 67.6221 46.7698C67.4591 46.7953 67.2995 46.8191 67.145 46.8412L66.7571 46.8921C66.5285 46.9193 66.3035 46.9717 66.0864 47.0483C65.8861 47.1213 65.7256 47.2266 65.6051 47.365C65.4862 47.4999 65.4268 47.6799 65.4268 47.9049C65.4268 48.2173 65.5431 48.4533 65.774 48.6137C66.0041 48.7716 66.2986 48.8506 66.656 48.8506ZM77.8679 41.0761H79.1676V47.2045C79.1676 47.7589 79.0573 48.2326 78.8382 48.6265C78.6299 49.0122 78.3109 49.3268 77.9222 49.5297C77.5283 49.7352 77.0674 49.8379 76.5385 49.8379C76.0866 49.8453 75.6386 49.7546 75.2252 49.5722C74.8534 49.4061 74.5361 49.1383 74.31 48.7996C74.0876 48.4601 73.9764 48.0458 73.9764 47.5585H75.2719C75.2719 47.7979 75.327 48.005 75.4366 48.1791C75.5495 48.354 75.7023 48.4906 75.8967 48.5891C76.0936 48.6842 76.3186 48.7326 76.5716 48.7326C76.8475 48.7326 77.0809 48.6749 77.2728 48.5594C77.471 48.4365 77.6259 48.2549 77.7159 48.0399C77.8178 47.8123 77.8679 47.5339 77.8679 47.2045V41.0761ZM83.695 49.8506C83.0871 49.8506 82.5574 49.7114 82.1041 49.433C81.6484 49.1515 81.2823 48.746 81.0488 48.264C80.7984 47.7631 80.6736 47.1773 80.6736 46.5075C80.6736 45.8352 80.7984 45.2477 81.0488 44.7434C81.2814 44.2597 81.6476 43.8526 82.1041 43.5702C82.5574 43.2918 83.0871 43.1525 83.695 43.1525C84.3028 43.1525 84.8325 43.2918 85.2867 43.5702C85.7392 43.8487 86.0907 44.2409 86.3411 44.7434C86.5915 45.2477 86.7172 45.8352 86.7172 46.5075C86.7172 47.1782 86.5915 47.7631 86.3411 48.264C86.1078 48.7459 85.7421 49.1513 85.2867 49.433C84.8334 49.7114 84.3028 49.8506 83.695 49.8506ZM83.6992 48.7912C84.0931 48.7912 84.42 48.6876 84.6789 48.4788C84.937 48.2708 85.1288 47.9932 85.2528 47.6468C85.3827 47.28 85.4468 46.8932 85.4421 46.5041C85.4421 46.0899 85.3793 45.7104 85.2528 45.364C85.1434 45.0359 84.9446 44.7449 84.6789 44.5236C84.42 44.313 84.0931 44.2078 83.6992 44.2078C83.3028 44.2078 82.9734 44.313 82.7119 44.5244C82.4456 44.7461 82.2456 45.0369 82.1338 45.3649C82.0066 45.7311 81.9437 46.1165 81.9479 46.5041C81.9479 46.9201 82.0098 47.3021 82.1338 47.6476C82.2603 47.9932 82.453 48.2708 82.7111 48.4796C82.9742 48.6876 83.3028 48.7912 83.6992 48.7912ZM89.3879 45.8708V49.7199H88.1255V43.2374H89.337V44.2918H89.4168C89.5662 43.9488 89.7996 43.6729 90.118 43.465C90.4389 43.257 90.8421 43.1525 91.3294 43.1525C91.7709 43.1525 92.158 43.2459 92.4899 43.431C92.8256 43.6181 93.0953 43.9042 93.2624 44.2502C93.445 44.6127 93.5366 45.0618 93.5366 45.5966V49.7199H92.2743V45.7477C92.2743 45.2774 92.152 44.9107 91.9075 44.6458C91.6622 44.3784 91.326 44.2451 90.899 44.2451C90.6266 44.2401 90.3576 44.3056 90.118 44.4353C89.8892 44.5653 89.7029 44.7587 89.5815 44.9922C89.4524 45.2341 89.3879 45.5279 89.3879 45.8708ZM98.0233 49.8506C97.384 49.8506 96.8339 49.7148 96.3729 49.4414C95.9137 49.1655 95.5443 48.7624 95.3092 48.2809C95.0613 47.7801 94.9374 47.1935 94.9374 46.5203C94.9374 45.8564 95.0613 45.2715 95.3092 44.7647C95.5408 44.2795 95.9034 43.8688 96.3559 43.5787C96.8059 43.2943 97.3322 43.1525 97.9341 43.1525C98.3 43.1525 98.6549 43.2128 98.9978 43.3342C99.3408 43.4548 99.649 43.6449 99.9223 43.9039C100.195 44.1628 100.41 44.499 100.568 44.9124C100.725 45.3233 100.804 45.8224 100.804 46.4108V46.8581H95.6513V45.9124H99.5675C99.5675 45.5813 99.5004 45.2868 99.3654 45.0312C99.2356 44.7783 99.0381 44.5664 98.7949 44.4192C98.5376 44.2656 98.2422 44.1879 97.9426 44.195C97.5878 44.195 97.2787 44.2825 97.0139 44.4565C96.7555 44.6246 96.5459 44.8576 96.406 45.1323C96.2652 45.4108 96.193 45.7191 96.1955 46.0313V46.7698C96.1955 47.2028 96.2711 47.5712 96.423 47.8752C96.5784 48.1791 96.7932 48.4117 97.0691 48.5713C97.345 48.7292 97.6667 48.8081 98.0351 48.8081C98.2745 48.8081 98.4927 48.7742 98.6897 48.7063C98.8826 48.6412 99.0584 48.5333 99.2038 48.3907C99.3492 48.2481 99.4604 48.0745 99.5293 47.8828L100.724 48.0993C100.631 48.4453 100.455 48.763 100.209 49.0238C99.9507 49.2942 99.6348 49.503 99.2848 49.635C98.9163 49.7793 98.4953 49.8506 98.0233 49.8506ZM107.062 44.8199L105.918 45.0227C105.868 44.8709 105.791 44.7292 105.691 44.6042C105.58 44.4648 105.438 44.3534 105.277 44.2791C105.103 44.195 104.884 44.1526 104.623 44.1526C104.265 44.1526 103.967 44.2332 103.728 44.3937C103.489 44.5507 103.369 44.7553 103.369 45.0049C103.366 45.1049 103.386 45.2043 103.428 45.2952C103.47 45.3862 103.532 45.4661 103.61 45.5287C103.771 45.6611 104.029 45.769 104.386 45.8539L105.417 46.0899C106.013 46.2282 106.457 46.4405 106.75 46.7274C107.042 47.0143 107.189 47.387 107.189 47.8463C107.189 48.2343 107.076 48.5806 106.851 48.8845C106.629 49.1851 106.318 49.4219 105.918 49.5934C105.522 49.7649 105.062 49.8506 104.538 49.8506C103.812 49.8506 103.22 49.6961 102.761 49.3863C102.303 49.0739 102.022 48.6307 101.917 48.0568L103.137 47.8709C103.213 48.1893 103.369 48.4295 103.606 48.5925C103.842 48.7538 104.15 48.8336 104.529 48.8336C104.944 48.8336 105.274 48.7479 105.522 48.5764C105.769 48.4015 105.893 48.1893 105.893 47.9388C105.895 47.8422 105.875 47.7464 105.836 47.6581C105.796 47.5698 105.738 47.4912 105.665 47.4278C105.516 47.2902 105.287 47.1858 104.977 47.1154L103.88 46.8751C103.275 46.7376 102.827 46.5186 102.538 46.2163C102.251 45.9158 102.107 45.5347 102.107 45.0728C102.107 44.6908 102.214 44.3555 102.428 44.0685C102.642 43.7816 102.938 43.5575 103.315 43.3979C103.692 43.234 104.124 43.1525 104.61 43.1525C105.31 43.1525 105.862 43.3054 106.265 43.6084C106.667 43.9098 106.933 44.313 107.062 44.8199Z" fill="white"/>
<path d="M112.51 49.2954V41.2688H115.222C115.849 41.2688 116.364 41.3766 116.766 41.5905C117.168 41.8028 117.466 42.0931 117.66 42.4649C117.853 42.8351 117.95 43.2578 117.95 43.7298C117.95 44.2035 117.853 44.6221 117.66 44.988C117.466 45.3539 117.17 45.6416 116.77 45.8505C116.37 46.0568 115.859 46.1603 115.238 46.1603H113.043V45.2825H115.206C115.635 45.2825 115.98 45.2197 116.241 45.0941C116.505 44.9684 116.696 44.791 116.814 44.5609C116.933 44.3283 116.993 44.0516 116.993 43.7307C117 43.4395 116.938 43.1508 116.814 42.8877C116.689 42.643 116.486 42.4469 116.237 42.3308C115.973 42.1984 115.624 42.1313 115.191 42.1313H113.482V49.2954H112.51ZM116.288 45.69L118.264 49.2954H117.134L115.191 45.69H116.288ZM121.825 49.4211C121.281 49.4211 120.804 49.2912 120.394 49.0331C119.98 48.7674 119.649 48.3909 119.438 47.9465C119.211 47.4821 119.097 46.9388 119.097 46.3165C119.097 45.69 119.211 45.1425 119.438 44.6747C119.668 44.2078 119.987 43.8436 120.394 43.5855C120.804 43.3266 121.281 43.1976 121.825 43.1976C122.368 43.1976 122.843 43.3266 123.251 43.5855C123.662 43.8436 123.98 44.2069 124.208 44.6747C124.438 45.1425 124.552 45.69 124.552 46.3165C124.552 46.9388 124.438 47.4821 124.208 47.9465C123.998 48.3921 123.666 48.7689 123.251 49.0331C122.843 49.2912 122.368 49.4211 121.825 49.4211ZM121.825 48.5891C122.237 48.5891 122.577 48.4839 122.843 48.2725C123.11 48.0602 123.308 47.7826 123.435 47.438C123.566 47.079 123.631 46.6994 123.628 46.3174C123.628 45.9141 123.563 45.5398 123.435 45.1917C123.32 44.8616 123.115 44.5701 122.843 44.3496C122.577 44.1356 122.237 44.0278 121.825 44.0278C121.412 44.0278 121.073 44.1356 120.806 44.3496C120.535 44.5704 120.33 44.8618 120.214 45.1917C120.086 45.5398 120.022 45.9141 120.022 46.3165C120.022 46.7189 120.086 47.0925 120.214 47.4371C120.343 47.7826 120.539 48.0611 120.806 48.2725C121.073 48.4847 121.412 48.5891 121.825 48.5891ZM126.89 41.2688V49.2954H125.964V41.2688H126.89ZM129.508 41.2688V49.2954H128.583V41.2688H129.508ZM133.648 49.4211C133.105 49.4211 132.627 49.2912 132.217 49.0331C131.803 48.7672 131.472 48.3908 131.261 47.9465C131.034 47.4821 130.92 46.9388 130.92 46.3165C130.92 45.69 131.034 45.1425 131.261 44.6747C131.491 44.2078 131.81 43.8436 132.217 43.5855C132.627 43.3266 133.105 43.1976 133.648 43.1976C134.191 43.1976 134.667 43.3266 135.074 43.5855C135.484 43.8436 135.803 44.2069 136.031 44.6747C136.261 45.1425 136.375 45.69 136.375 46.3165C136.375 46.9388 136.261 47.4821 136.031 47.9465C135.821 48.3919 135.489 48.7687 135.074 49.0331C134.667 49.2912 134.191 49.4211 133.648 49.4211ZM133.648 48.5891C134.06 48.5891 134.4 48.4839 134.667 48.2725C134.937 48.0545 135.142 47.7656 135.258 47.438C135.389 47.0789 135.454 46.6994 135.45 46.3174C135.45 45.9141 135.386 45.5398 135.258 45.1917C135.142 44.8618 134.938 44.5704 134.667 44.3496C134.4 44.1356 134.06 44.0278 133.648 44.0278C133.235 44.0278 132.895 44.1356 132.629 44.3496C132.358 44.5703 132.153 44.8618 132.037 45.1917C131.909 45.5398 131.845 45.9141 131.845 46.3165C131.845 46.7189 131.909 47.0925 132.037 47.4371C132.165 47.7826 132.363 48.0611 132.629 48.2725C132.895 48.4847 133.235 48.5891 133.648 48.5891ZM141.581 46.8344V43.2757H142.506V49.2946H141.581V48.2759H141.518C141.377 48.5815 141.158 48.8421 140.86 49.0569C140.562 49.2683 140.185 49.3735 139.731 49.3735C139.381 49.3802 139.035 49.2954 138.728 49.1274C138.427 48.9517 138.187 48.6892 138.038 48.3744C137.87 48.0373 137.787 47.6129 137.787 47.101V43.2757H138.712V47.0381C138.712 47.477 138.835 47.8276 139.08 48.0883C139.329 48.3497 139.645 48.4805 140.029 48.4805C140.259 48.4805 140.493 48.421 140.731 48.3039C140.971 48.1859 141.172 48.0068 141.334 47.7631C141.499 47.5203 141.581 47.2105 141.581 46.8344ZM146.818 43.2757V44.0592H143.698V43.2757H146.818ZM144.608 41.8333H145.532V47.5713C145.532 47.8319 145.57 48.028 145.646 48.1587C145.725 48.2861 145.823 48.3727 145.944 48.4177C146.067 48.4601 146.196 48.4805 146.332 48.4805C146.434 48.4805 146.518 48.4754 146.583 48.4643L146.739 48.4329L146.928 49.264C146.842 49.2939 146.754 49.3174 146.665 49.3345C146.552 49.36 146.41 49.3735 146.238 49.3735C145.977 49.3735 145.721 49.3175 145.469 49.2055C145.221 49.0926 145.007 48.9152 144.85 48.6919C144.688 48.4626 144.608 48.1723 144.608 47.8217V41.8333ZM151.297 49.2954V48.59L153.947 45.69C154.257 45.3505 154.514 45.055 154.715 44.8037C154.916 44.5508 155.065 44.3131 155.162 44.0906C155.261 43.8665 155.31 43.6314 155.31 43.386C155.31 43.1033 155.242 42.8597 155.106 42.6525C154.972 42.445 154.782 42.2794 154.558 42.1746C154.313 42.0594 154.045 42.0016 153.774 42.0057C153.466 42.0057 153.197 42.0702 152.967 42.1984C152.743 42.3198 152.56 42.5035 152.438 42.7273C152.311 42.9739 152.247 43.2486 152.254 43.5261H151.329C151.329 43.0566 151.437 42.6432 151.654 42.2884C151.868 41.9356 152.174 41.6482 152.54 41.4573C152.916 41.2586 153.338 41.1601 153.806 41.1601C154.276 41.1601 154.693 41.2586 155.055 41.4573C155.419 41.6559 155.704 41.9242 155.91 42.2603C156.117 42.5974 156.219 42.9726 156.219 43.3852C156.219 43.6806 156.166 43.9692 156.059 44.2511C155.954 44.5312 155.772 44.8436 155.51 45.1883C155.251 45.5304 154.892 45.9481 154.432 46.4422L152.63 48.3701V48.4329H156.361V49.2954H151.297ZM158.669 48.2682C158.577 48.2695 158.484 48.2518 158.399 48.2161C158.313 48.1805 158.236 48.1278 158.171 48.0611C158.104 47.9966 158.051 47.9191 158.016 47.8334C157.98 47.7477 157.962 47.6556 157.964 47.5628C157.963 47.4701 157.98 47.3782 158.016 47.2926C158.052 47.2071 158.104 47.1297 158.171 47.0653C158.235 46.9985 158.313 46.9456 158.399 46.9098C158.484 46.874 158.576 46.8562 158.669 46.8573C158.762 46.8562 158.854 46.874 158.94 46.9098C159.025 46.9456 159.102 46.9985 159.167 47.0653C159.234 47.1296 159.286 47.207 159.322 47.2925C159.358 47.3781 159.376 47.47 159.375 47.5628C159.372 47.6861 159.338 47.8068 159.277 47.9137C159.215 48.0205 159.127 48.1101 159.022 48.174C158.915 48.2374 158.793 48.27 158.669 48.2682ZM158.669 44.2086C158.576 44.2098 158.484 44.1919 158.399 44.1562C158.313 44.1204 158.235 44.0675 158.171 44.0007C158.104 43.9363 158.052 43.8589 158.016 43.7733C157.98 43.6878 157.963 43.5958 157.964 43.5032C157.962 43.4104 157.98 43.3183 158.016 43.2326C158.051 43.1469 158.104 43.0694 158.171 43.0049C158.236 42.9382 158.313 42.8854 158.399 42.8498C158.484 42.8142 158.577 42.7965 158.669 42.7977C158.863 42.7977 159.028 42.8665 159.167 43.0049C159.234 43.0693 159.287 43.1467 159.322 43.2325C159.358 43.3182 159.376 43.4103 159.375 43.5032C159.372 43.6265 159.338 43.7472 159.277 43.8541C159.215 43.9609 159.127 44.0505 159.022 44.1144C158.915 44.1775 158.793 44.2106 158.669 44.2086Z" fill="#6DBDF5"/>
<path d="M167.565 49.2954V43.2756H168.459V44.1849H168.522C168.632 43.8877 168.83 43.6449 169.117 43.4599C169.405 43.2739 169.728 43.1814 170.089 43.1814C170.157 43.1814 170.242 43.1831 170.344 43.1857C170.446 43.1882 170.523 43.1924 170.576 43.1975V44.1382C170.504 44.1234 170.432 44.1116 170.36 44.1025C170.245 44.0839 170.128 44.0748 170.011 44.0753C169.739 44.0703 169.469 44.1336 169.227 44.2596C169.005 44.3747 168.818 44.5478 168.686 44.7604C168.554 44.9792 168.486 45.2308 168.491 45.4863V49.2954H167.565ZM173.934 49.4211C173.391 49.4211 172.914 49.2912 172.504 49.0331C172.09 48.7674 171.758 48.3909 171.548 47.9465C171.32 47.4821 171.206 46.9388 171.206 46.3165C171.206 45.69 171.32 45.1424 171.548 44.6747C171.777 44.2078 172.096 43.8436 172.504 43.5855C172.914 43.3266 173.391 43.1975 173.934 43.1975C174.477 43.1975 174.953 43.3266 175.36 43.5855C175.771 43.8436 176.089 44.2069 176.317 44.6747C176.547 45.1424 176.662 45.69 176.662 46.3165C176.662 46.9388 176.547 47.4821 176.317 47.9465C176.107 48.392 175.776 48.7689 175.36 49.0331C174.953 49.2912 174.477 49.4211 173.934 49.4211ZM173.934 48.5891C174.347 48.5891 174.686 48.4838 174.953 48.2725C175.219 48.0602 175.417 47.7826 175.544 47.438C175.675 47.079 175.74 46.6994 175.737 46.3174C175.737 45.9141 175.673 45.5397 175.544 45.1917C175.429 44.8616 175.224 44.57 174.953 44.3495C174.686 44.1356 174.347 44.0278 173.934 44.0278C173.521 44.0278 173.182 44.1356 172.915 44.3495C172.644 44.5701 172.439 44.8616 172.324 45.1917C172.195 45.5397 172.131 45.9141 172.131 46.3165C172.131 46.7189 172.195 47.0924 172.324 47.4371C172.451 47.7826 172.649 48.0611 172.915 48.2725C173.182 48.4847 173.521 48.5891 173.934 48.5891ZM178.999 41.2688V49.2954H178.073V41.2688H178.999ZM181.618 41.2688V49.2954H180.692V41.2688H181.618ZM185.757 49.4211C185.214 49.4211 184.737 49.2912 184.327 49.0331C183.913 48.7672 183.581 48.3908 183.37 47.9465C183.143 47.4821 183.029 46.9388 183.029 46.3165C183.029 45.69 183.143 45.1424 183.37 44.6747C183.6 44.2078 183.919 43.8436 184.327 43.5855C184.737 43.3266 185.214 43.1975 185.757 43.1975C186.3 43.1975 186.776 43.3266 187.183 43.5855C187.593 43.8436 187.912 44.2069 188.14 44.6747C188.369 45.1424 188.485 45.69 188.485 46.3165C188.485 46.9388 188.369 47.4821 188.14 47.9465C187.93 48.3919 187.599 48.7687 187.183 49.0331C186.776 49.2912 186.3 49.4211 185.757 49.4211ZM185.757 48.5891C186.17 48.5891 186.509 48.4838 186.776 48.2725C187.046 48.0545 187.251 47.7656 187.367 47.438C187.498 47.0789 187.563 46.6994 187.559 46.3174C187.559 45.9141 187.496 45.5397 187.367 45.1917C187.252 44.8618 187.047 44.5704 186.776 44.3495C186.509 44.1356 186.17 44.0278 185.757 44.0278C185.344 44.0278 185.004 44.1356 184.737 44.3495C184.466 44.5704 184.262 44.8618 184.146 45.1917C184.018 45.5397 183.954 45.9141 183.954 46.3165C183.954 46.7189 184.018 47.0924 184.146 47.4371C184.274 47.7826 184.471 48.0611 184.737 48.2725C185.004 48.4847 185.344 48.5891 185.757 48.5891ZM193.69 46.8344V43.2756H194.615V49.2946H193.69V48.2759H193.628C193.487 48.5815 193.267 48.8421 192.969 49.0569C192.671 49.2683 192.295 49.3735 191.84 49.3735C191.464 49.3735 191.129 49.2912 190.837 49.1273C190.536 48.9516 190.296 48.6892 190.147 48.3743C189.98 48.0373 189.896 47.6128 189.896 47.1009V43.2756H190.821V47.0381C190.821 47.477 190.944 47.8276 191.189 48.0882C191.438 48.3497 191.754 48.4804 192.138 48.4804C192.368 48.4804 192.602 48.421 192.84 48.3039C193.08 48.1859 193.281 48.0067 193.443 47.7631C193.608 47.5203 193.69 47.2104 193.69 46.8344ZM198.927 43.2756V44.0592H195.808V43.2756H198.927ZM196.717 41.8333H197.641V47.5712C197.641 47.8319 197.679 48.028 197.755 48.1587C197.821 48.2769 197.927 48.3684 198.053 48.4176C198.176 48.4601 198.305 48.4804 198.441 48.4804C198.543 48.4804 198.626 48.4754 198.691 48.4643L198.848 48.4329L199.037 49.264C198.951 49.2938 198.863 49.3174 198.774 49.3345C198.662 49.3599 198.519 49.3735 198.347 49.3735C198.082 49.3727 197.82 49.3154 197.578 49.2054C197.33 49.0926 197.116 48.9152 196.96 48.6918C196.797 48.4626 196.717 48.1723 196.717 47.8217V41.8333ZM205.695 49.4211C205.193 49.4211 204.75 49.2937 204.366 49.0407C203.983 48.7844 203.682 48.4236 203.465 47.9592C203.248 47.4914 203.14 46.9388 203.14 46.3012C203.14 45.6688 203.248 45.1204 203.465 44.6552C203.682 44.1899 203.984 43.8308 204.371 43.577C204.757 43.324 205.204 43.1975 205.71 43.1975C206.103 43.1975 206.412 43.2629 206.64 43.3928C206.869 43.521 207.045 43.6679 207.165 43.8317C207.288 43.9938 207.383 44.1271 207.451 44.2315H207.53V41.2688H208.454V49.2954H207.56V48.3701H207.451C207.36 48.5128 207.264 48.6516 207.161 48.7861C207.014 48.9685 206.831 49.1189 206.624 49.2284C206.391 49.3565 206.082 49.4211 205.695 49.4211ZM205.821 48.5891C206.192 48.5891 206.505 48.4932 206.761 48.3005C207.017 48.1035 207.212 47.8336 207.345 47.4889C207.479 47.1408 207.545 46.7401 207.545 46.286C207.545 45.836 207.48 45.443 207.349 45.1059C207.218 44.7664 207.025 44.5024 206.769 44.3139C206.513 44.1237 206.197 44.0278 205.821 44.0278C205.429 44.0278 205.102 44.1288 204.841 44.33C204.574 44.5399 204.372 44.8209 204.257 45.1408C204.129 45.4803 204.065 45.8623 204.065 46.286C204.065 46.7138 204.13 47.1035 204.26 47.4532C204.394 47.8013 204.59 48.0781 204.849 48.2843C205.11 48.4881 205.434 48.5891 205.821 48.5891ZM212.722 49.4211C212.178 49.4211 211.702 49.2912 211.291 49.0331C210.877 48.7671 210.546 48.3907 210.335 47.9465C210.108 47.4821 209.994 46.9388 209.994 46.3165C209.994 45.69 210.108 45.1424 210.335 44.6747C210.546 44.2293 210.877 43.852 211.291 43.5855C211.702 43.3266 212.178 43.1975 212.722 43.1975C213.266 43.1975 213.741 43.3266 214.149 43.5855C214.559 43.8436 214.877 44.2069 215.105 44.6747C215.335 45.1424 215.449 45.69 215.449 46.3165C215.449 46.9388 215.335 47.4821 215.105 47.9465C214.895 48.3918 214.564 48.7686 214.149 49.0331C213.741 49.2912 213.266 49.4211 212.722 49.4211ZM212.722 48.5891C213.135 48.5891 213.475 48.4838 213.741 48.2725C214.012 48.0545 214.217 47.7656 214.333 47.438C214.463 47.0789 214.528 46.6994 214.525 46.3174C214.525 45.9141 214.461 45.5397 214.333 45.1917C214.217 44.8618 214.012 44.5704 213.741 44.3495C213.475 44.1356 213.135 44.0278 212.722 44.0278C212.309 44.0278 211.97 44.1356 211.703 44.3495C211.432 44.5704 211.227 44.8618 211.111 45.1917C210.983 45.5397 210.919 45.9141 210.919 46.3165C210.919 46.7189 210.983 47.0924 211.111 47.4371C211.239 47.7826 211.436 48.0611 211.703 48.2725C211.97 48.4847 212.309 48.5891 212.722 48.5891ZM217.786 45.6739V49.2954H216.862V43.2756H217.755V44.2163H217.833C217.975 43.9106 218.189 43.6645 218.477 43.4794C218.764 43.2918 219.135 43.1975 219.59 43.1975C219.997 43.1975 220.354 43.2807 220.659 43.448C220.965 43.6127 221.203 43.864 221.372 44.2001C221.542 44.5346 221.627 44.9582 221.627 45.4701V49.2954H220.703V45.533C220.703 45.0601 220.579 44.6925 220.334 44.4276C220.088 44.1611 219.751 44.0286 219.323 44.0286C219.047 44.0237 218.774 44.0898 218.531 44.2205C218.301 44.3478 218.119 44.5346 217.986 44.7808C217.853 45.0261 217.786 45.3241 217.786 45.6739ZM225.841 49.4211C225.261 49.4211 224.76 49.2929 224.34 49.0365C223.92 48.7765 223.584 48.401 223.372 47.955C223.147 47.4897 223.035 46.949 223.035 46.3327C223.035 45.7155 223.147 45.1722 223.372 44.7027C223.599 44.229 223.916 43.8606 224.321 43.5965C224.728 43.3308 225.204 43.1975 225.747 43.1975C226.061 43.1975 226.37 43.2493 226.676 43.3537C226.981 43.4582 227.26 43.628 227.511 43.8631C227.761 44.0957 227.962 44.4047 228.11 44.7884C228.259 45.1722 228.334 45.6459 228.334 46.207V46.5992H223.693V45.7995H227.393C227.393 45.4599 227.325 45.1569 227.189 44.8903C227.062 44.6304 226.863 44.4118 226.617 44.2596C226.355 44.1007 226.053 44.0203 225.747 44.0278C225.378 44.0278 225.06 44.1195 224.791 44.3029C224.527 44.4794 224.315 44.7225 224.175 45.0075C224.032 45.2977 223.958 45.6175 223.96 45.9413V46.4736C223.96 46.9286 224.038 47.314 224.195 47.6298C224.355 47.9439 224.575 48.1816 224.857 48.3472C225.14 48.5085 225.468 48.59 225.841 48.59C226.084 48.59 226.304 48.556 226.5 48.4881C226.692 48.4217 226.866 48.3146 227.013 48.174C227.157 48.0331 227.267 47.8582 227.346 47.6493L228.239 47.8998C228.147 48.2002 227.985 48.4743 227.766 48.6995C227.532 48.934 227.252 49.1158 226.942 49.2326C226.59 49.3627 226.217 49.4266 225.841 49.4211Z" fill="#D8D8D8"/>
<path d="M28.8556 67.5475L27.0219 61.5277H27.9931L29.2945 66.1365H29.3573L30.6426 61.5277H31.6299L32.8999 66.1204H32.9628L34.2633 61.5277H35.2353L33.4017 67.5466H32.4924L31.1758 62.9225H31.0815L29.7648 67.5475H28.8556ZM38.2295 67.6884C37.8484 67.6884 37.502 67.6162 37.1913 67.4728C36.8905 67.3353 36.6339 67.1169 36.4502 66.842C36.2677 66.5653 36.176 66.2308 36.176 65.8386C36.176 65.4939 36.2439 65.2146 36.3797 64.9998C36.5155 64.7833 36.6972 64.6136 36.9247 64.4905C37.1614 64.3643 37.4145 64.272 37.6769 64.2163C37.9545 64.1534 38.2321 64.1042 38.5122 64.0677C38.8773 64.0202 39.1744 63.9853 39.4019 63.9616C39.6311 63.9361 39.7984 63.892 39.9028 63.8317C40.0106 63.7723 40.0641 63.6678 40.0641 63.5184V63.487C40.0641 63.1008 39.958 62.7994 39.7466 62.5855C39.5377 62.3715 39.2202 62.2646 38.7941 62.2646C38.3526 62.2646 38.0063 62.3613 37.7558 62.554C37.5045 62.7476 37.328 62.9539 37.2269 63.1738L36.3483 62.8597C36.5054 62.4946 36.7142 62.2094 36.9757 62.0056C37.2388 61.7993 37.5275 61.6559 37.8382 61.5744C38.1399 61.4927 38.451 61.4508 38.7635 61.4496C38.9562 61.4496 39.1786 61.4725 39.4291 61.52C39.6829 61.5642 39.9266 61.6567 40.1617 61.7985C40.3994 61.9394 40.5972 62.1525 40.7534 62.4369C40.9105 62.7221 40.9886 63.1033 40.9886 63.5813V67.5475H40.0632V66.7325H40.0165C39.9355 66.8883 39.8297 67.0299 39.7033 67.1519C39.535 67.315 39.3367 67.4439 39.1192 67.5313C38.8764 67.6366 38.5801 67.6884 38.2295 67.6884ZM38.3705 66.8573C38.7363 66.8573 39.0445 66.786 39.2958 66.6417C39.5256 66.517 39.718 66.3333 39.853 66.1094C39.9881 65.8855 40.061 65.6297 40.0641 65.3683V64.5219C40.025 64.5686 39.9384 64.6119 39.8052 64.6509C39.6556 64.6918 39.504 64.7247 39.351 64.7494C39.0564 64.7949 38.7609 64.8339 38.4647 64.8665C38.2356 64.8954 38.0098 64.9465 37.7906 65.0193C37.5843 65.0873 37.4171 65.1908 37.2898 65.3292C37.1641 65.465 37.1013 65.6501 37.1013 65.8853C37.1013 66.2079 37.2202 66.4498 37.4579 66.6153C37.6981 66.7766 38.0029 66.8573 38.3705 66.8573ZM42.6771 67.5475V61.5277H43.6024V67.5466L42.6771 67.5475ZM43.1474 60.5243C42.9735 60.5271 42.8056 60.4608 42.6805 60.34C42.6193 60.2839 42.5705 60.2155 42.5375 60.1393C42.5044 60.0631 42.4878 59.9808 42.4886 59.8977C42.4886 59.7246 42.5531 59.5777 42.6813 59.4546C42.8063 59.334 42.9738 59.2678 43.1474 59.2704C43.3274 59.2704 43.4819 59.3315 43.6101 59.4546C43.6723 59.5103 43.722 59.5786 43.7556 59.655C43.7893 59.7315 43.8063 59.8142 43.8053 59.8977C43.8061 59.9811 43.7891 60.0637 43.7555 60.14C43.7218 60.2162 43.6722 60.2845 43.6101 60.34C43.549 60.3999 43.4767 60.447 43.3973 60.4786C43.3178 60.5103 43.2329 60.5258 43.1474 60.5243ZM47.9142 61.5277V62.3113H44.7943V61.5277H47.9142ZM45.7035 60.0853H46.6289V65.8233C46.6289 66.0839 46.6662 66.28 46.7418 66.4107C46.8207 66.5381 46.9201 66.6247 47.0398 66.6697C47.1628 66.7121 47.2919 66.7325 47.4277 66.7325C47.5296 66.7325 47.6136 66.7266 47.679 66.7164L47.8352 66.685L48.0237 67.5161C47.9378 67.5459 47.8498 67.5694 47.7605 67.5865C47.6484 67.612 47.5058 67.6256 47.3335 67.6256C47.0729 67.6256 46.8165 67.5695 46.5661 67.4575C46.3172 67.3449 46.1032 67.1675 45.9463 66.9439C45.785 66.7147 45.7035 66.4235 45.7035 66.0737V60.0853ZM49.3047 67.5475V61.5277H50.23V67.5466L49.3047 67.5475ZM49.775 60.5243C49.6014 60.5268 49.4339 60.4606 49.309 60.34C49.2477 60.2839 49.199 60.2155 49.1659 60.1393C49.1329 60.0631 49.1162 59.9808 49.1171 59.8977C49.1171 59.7246 49.1808 59.5777 49.309 59.4546C49.4341 59.3338 49.602 59.2676 49.7759 59.2704C49.9558 59.2704 50.1095 59.3315 50.2377 59.4546C50.3001 59.5102 50.3499 59.5785 50.3837 59.6549C50.4175 59.7314 50.4346 59.8142 50.4338 59.8977C50.4346 59.9811 50.4176 60.0637 50.3839 60.14C50.3503 60.2162 50.3007 60.2845 50.2385 60.34C50.1774 60.4 50.1049 60.4472 50.0253 60.4788C49.9457 60.5104 49.8606 60.5259 49.775 60.5243ZM52.8482 63.9259V67.5475H51.9237V61.5277H52.8176V62.4683H52.8957C53.0375 62.1627 53.2514 61.9165 53.5383 61.7314C53.8261 61.543 54.1971 61.4496 54.6513 61.4496C55.0588 61.4496 55.4153 61.5328 55.7209 61.7C56.0266 61.8647 56.2651 62.116 56.4349 62.4522C56.6047 62.7867 56.6896 63.2103 56.6896 63.7222V67.5475H55.7642V63.785C55.7642 63.3121 55.642 62.9446 55.3966 62.6797C55.1505 62.4131 54.8134 62.2807 54.3856 62.2807C54.1095 62.2758 53.8368 62.3419 53.5935 62.4726C53.3643 62.5999 53.1818 62.7867 53.0485 63.0328C52.9152 63.2782 52.8482 63.5762 52.8482 63.9259ZM60.8094 69.9304C60.3629 69.9304 59.9783 69.8727 59.6574 69.7581C59.3636 69.6612 59.0908 69.5094 58.8535 69.3107C58.6549 69.143 58.4844 68.9447 58.3484 68.7232L59.0853 68.2054C59.1685 68.3158 59.2746 68.4414 59.4028 68.5823C59.5301 68.7258 59.7058 68.8497 59.9274 68.9542C60.1524 69.0611 60.4461 69.1154 60.8103 69.1154C61.2959 69.1154 61.6966 68.9974 62.0124 68.7623C62.329 68.5271 62.4869 68.1596 62.4869 67.657V66.4345H62.4088C62.3409 66.5449 62.2441 66.6807 62.1185 66.842C61.9727 67.0201 61.791 67.1656 61.5854 67.269C61.3562 67.3921 61.0446 67.4532 60.6524 67.4532C60.193 67.4601 59.7405 67.3409 59.3442 67.1086C58.9596 66.8785 58.6557 66.544 58.4307 66.1051C58.2083 65.6662 58.098 65.1331 58.098 64.5057C58.098 63.8894 58.2058 63.3529 58.4231 62.8953C58.6396 62.436 58.9409 62.0803 59.3281 61.8299C59.7152 61.5752 60.1617 61.4496 60.6685 61.4496C61.0607 61.4496 61.3714 61.515 61.6015 61.6448C61.8341 61.773 62.0115 61.9199 62.1338 62.0837C62.2594 62.2459 62.3562 62.3792 62.4241 62.4836H62.5175V61.5277H63.4114V67.7198C63.4114 68.2377 63.2943 68.6579 63.0591 68.9822C62.8246 69.31 62.4968 69.5596 62.1185 69.6987C61.7006 69.8577 61.2565 69.9363 60.8094 69.9304ZM60.778 66.6221C61.149 66.6221 61.4631 66.5372 61.7187 66.3675C61.975 66.1977 62.1694 65.9532 62.3027 65.6348C62.436 65.3165 62.5031 64.9345 62.5031 64.4905C62.5031 64.0575 62.4368 63.6738 62.307 63.3419C62.1922 63.0318 61.9906 62.7612 61.7263 62.5625C61.4708 62.3741 61.1541 62.2798 60.778 62.2798C60.3867 62.2798 60.0598 62.3792 59.7984 62.5778C59.5332 62.785 59.331 63.0619 59.2143 63.3775C59.0825 63.7336 59.0175 64.1108 59.0224 64.4905C59.0224 64.9081 59.0878 65.2783 59.2177 65.5992C59.3518 65.9184 59.5479 66.1688 59.806 66.3522C60.0675 66.5321 60.3918 66.6221 60.778 66.6221ZM70.8888 61.5277V62.3113H67.6442V61.5277H70.8888ZM68.6162 67.5466V60.6974C68.6162 60.3528 68.6977 60.065 68.859 59.8358C69.018 59.6084 69.2365 59.4293 69.4906 59.3179C69.7484 59.2032 70.0277 59.1444 70.3098 59.1456C70.5365 59.1456 70.7224 59.1643 70.8659 59.2008C71.0102 59.2373 71.1163 59.2712 71.1876 59.3026L70.9211 60.1023C70.8562 60.081 70.7908 60.0612 70.725 60.0429C70.6198 60.0167 70.5116 60.005 70.4032 60.0081C70.0976 60.0081 69.8769 60.0845 69.7411 60.239C69.6078 60.3935 69.5416 60.6193 69.5416 60.9173V67.5475L68.6162 67.5466ZM74.383 67.6731C73.8397 67.6731 73.3626 67.5432 72.9526 67.2851C72.5388 67.0193 72.2076 66.6428 71.9967 66.1985C71.7692 65.7341 71.6554 65.1908 71.6554 64.5686C71.6554 63.9421 71.7692 63.3945 71.9967 62.9267C72.2259 62.4598 72.5451 62.0956 72.9526 61.8375C73.3626 61.5786 73.8397 61.4496 74.383 61.4496C74.9263 61.4496 75.4017 61.5786 75.8092 61.8375C76.2201 62.0956 76.5393 62.459 76.766 62.9267C76.996 63.3945 77.1106 63.9421 77.1106 64.5686C77.1106 65.1908 76.996 65.7341 76.766 66.1985C76.5566 66.6439 76.2252 67.0207 75.8101 67.2851C75.4026 67.5432 74.9263 67.6731 74.383 67.6731ZM74.383 66.8412C74.7965 66.8412 75.136 66.7359 75.4017 66.5245C75.6683 66.3123 75.8661 66.0347 75.9943 65.69C76.1216 65.3445 76.1862 64.971 76.1862 64.5694C76.1862 64.1662 76.1216 63.7918 75.9943 63.4446C75.8786 63.1144 75.6738 62.8227 75.4026 62.6016C75.136 62.3877 74.7965 62.2798 74.3839 62.2798C73.9704 62.2798 73.6309 62.3868 73.3643 62.6016C73.0931 62.8226 72.8883 63.1144 72.7726 63.4446C72.6453 63.7918 72.5807 64.1662 72.5807 64.5686C72.5807 64.971 72.6444 65.3445 72.7726 65.6892C72.8999 66.0347 73.0977 66.3131 73.3643 66.5245C73.6309 66.7367 73.9704 66.8412 74.383 66.8412ZM78.5224 67.5475V61.5277H79.4163V62.4369H79.4792C79.5895 62.1398 79.7873 61.8978 80.0751 61.7119C80.3621 61.5268 80.6864 61.4335 81.0463 61.4335C81.1142 61.4335 81.1991 61.4352 81.301 61.4377C81.4029 61.4402 81.4801 61.4436 81.5327 61.4496V62.3902C81.4614 62.3754 81.3894 62.3636 81.3171 62.3545C81.202 62.3359 81.0856 62.3268 80.969 62.3274C80.6963 62.3225 80.4267 62.3859 80.1846 62.5116C79.9571 62.6313 79.7771 62.7985 79.6439 63.0125C79.5131 63.2247 79.4478 63.4666 79.4478 63.7383V67.5475H78.5224ZM85.7332 67.5475V61.5277H86.6577V67.5466L85.7332 67.5475ZM86.2036 60.5243C86.0297 60.527 85.8618 60.4607 85.7367 60.34C85.6754 60.2839 85.6266 60.2156 85.5936 60.1393C85.5605 60.0631 85.5439 59.9808 85.5448 59.8977C85.5448 59.7246 85.6085 59.5777 85.7367 59.4546C85.8618 59.3339 86.0297 59.2677 86.2036 59.2704C86.3835 59.2704 86.538 59.3315 86.6654 59.4546C86.7278 59.5102 86.7776 59.5785 86.8114 59.6549C86.8452 59.7314 86.8623 59.8142 86.8615 59.8977C86.8622 59.9812 86.8451 60.0638 86.8112 60.1401C86.7774 60.2164 86.7277 60.2845 86.6654 60.34C86.6045 60.3999 86.5323 60.447 86.453 60.4787C86.3737 60.5103 86.2889 60.5258 86.2036 60.5243ZM89.2767 63.9259V67.5475H88.3522V61.5277H89.2453V62.4683H89.3234C89.4652 62.1627 89.6791 61.9165 89.9669 61.7314C90.2538 61.543 90.6248 61.4496 91.0798 61.4496C91.4873 61.4496 91.8439 61.5328 92.1495 61.7C92.4551 61.8647 92.6928 62.116 92.8626 62.4522C93.0324 62.7867 93.1173 63.2103 93.1173 63.7222V67.5475H92.1928V63.785C92.1928 63.3121 92.0697 62.9446 91.8243 62.6797C91.5782 62.4131 91.2411 62.2807 90.8133 62.2807C90.5372 62.2758 90.2645 62.3419 90.0212 62.4726C89.7892 62.6024 89.6001 62.7971 89.477 63.0328C89.3438 63.2782 89.2767 63.5762 89.2767 63.9259ZM99.0717 62.8758L98.2406 63.1109C98.1846 62.9655 98.1068 62.8296 98.0097 62.7077C97.9017 62.5673 97.7621 62.4544 97.6022 62.3783C97.4298 62.2917 97.2083 62.2484 96.9392 62.2484C96.5707 62.2484 96.2643 62.3333 96.0189 62.5031C95.7753 62.6712 95.6539 62.8834 95.6539 63.1424C95.6539 63.3716 95.7379 63.5541 95.9052 63.6874C96.0724 63.8207 96.333 63.931 96.6887 64.0202L97.5826 64.24C98.1209 64.3699 98.5216 64.5703 98.7856 64.8394C99.0496 65.1059 99.1812 65.4498 99.1812 65.87C99.1852 66.2026 99.0806 66.5275 98.8832 66.7953C98.6871 67.067 98.4129 67.2809 98.0606 67.438C97.7075 67.5942 97.2974 67.6731 96.8297 67.6731C96.2159 67.6731 95.7074 67.5398 95.305 67.2733C94.9026 67.0067 94.6479 66.617 94.5409 66.1051L95.4187 65.8853C95.5028 66.2095 95.6607 66.4523 95.8933 66.6153C96.1284 66.7766 96.4349 66.8573 96.8144 66.8573C97.2456 66.8573 97.5877 66.7664 97.8407 66.5831C98.0971 66.398 98.2253 66.1756 98.2253 65.9175C98.2276 65.8193 98.2092 65.7217 98.1713 65.631C98.1334 65.5403 98.0769 65.4586 98.0054 65.3912C97.8594 65.2486 97.6344 65.1407 97.3314 65.0703L96.3279 64.8351C95.777 64.7044 95.372 64.5023 95.1131 64.2281C94.8576 63.9514 94.7294 63.605 94.7294 63.1891C94.7294 62.8495 94.8245 62.549 95.0155 62.2883C95.2199 62.018 95.4915 61.8058 95.8033 61.6729C96.1378 61.5234 96.5164 61.4496 96.9392 61.4496C97.5351 61.4496 98.0029 61.5803 98.3425 61.8409C98.6846 62.1024 98.9282 62.4462 99.0717 62.8758ZM103.192 61.5277V62.3113H100.072V61.5277H103.192ZM100.981 60.0853H101.906V65.8233C101.906 66.0839 101.944 66.28 102.02 66.4107C102.087 66.5283 102.192 66.6197 102.317 66.6697C102.44 66.7121 102.569 66.7325 102.705 66.7325C102.807 66.7325 102.891 66.7266 102.956 66.7164L103.113 66.685L103.301 67.5161C103.215 67.5458 103.128 67.5693 103.039 67.5865C102.926 67.612 102.784 67.6256 102.612 67.6256C102.347 67.625 102.085 67.5677 101.843 67.4575C101.595 67.3449 101.381 67.1675 101.224 66.9439C101.062 66.7147 100.981 66.4235 100.981 66.0737V60.0853ZM106.354 67.6884C105.996 67.6933 105.642 67.6197 105.316 67.4728C105.015 67.3351 104.758 67.1167 104.574 66.842C104.392 66.5653 104.3 66.2308 104.3 65.8386C104.3 65.4939 104.368 65.2146 104.504 64.9998C104.64 64.7833 104.822 64.6136 105.049 64.4905C105.286 64.3643 105.539 64.272 105.801 64.2163C106.077 64.1539 106.356 64.1043 106.637 64.0677C107.002 64.0202 107.299 63.9853 107.526 63.9616C107.756 63.9361 107.924 63.892 108.028 63.8317C108.135 63.7723 108.188 63.6678 108.188 63.5184V63.487C108.188 63.1008 108.082 62.7994 107.871 62.5855C107.662 62.3715 107.345 62.2646 106.918 62.2646C106.477 62.2646 106.131 62.3613 105.88 62.554C105.629 62.7476 105.453 62.9539 105.351 63.1738L104.473 62.8597C104.63 62.4946 104.838 62.2094 105.1 62.0056C105.355 61.8038 105.648 61.6569 105.962 61.5744C106.264 61.4926 106.575 61.4506 106.887 61.4496C107.081 61.4496 107.303 61.4725 107.553 61.52C107.807 61.5642 108.051 61.6567 108.286 61.7985C108.524 61.9394 108.721 62.1525 108.878 62.4369C109.035 62.7221 109.113 63.1033 109.113 63.5813V67.5475H108.188V66.7325H108.141C108.06 66.8886 107.954 67.0303 107.828 67.1519C107.659 67.3152 107.461 67.4441 107.244 67.5313C107.001 67.6366 106.704 67.6884 106.354 67.6884ZM106.496 66.8573C106.861 66.8573 107.17 66.786 107.42 66.6417C107.65 66.5172 107.843 66.3335 107.978 66.1096C108.113 65.8857 108.186 65.6297 108.188 65.3683V64.5219C108.149 64.5686 108.063 64.6119 107.929 64.6509C107.78 64.6918 107.628 64.7247 107.475 64.7494C107.181 64.7949 106.885 64.834 106.589 64.8665C106.36 64.8954 106.134 64.9466 105.915 65.0193C105.709 65.0873 105.541 65.1908 105.413 65.3292C105.288 65.465 105.226 65.6501 105.226 65.8853C105.226 66.2079 105.344 66.4498 105.582 66.6153C105.822 66.7766 106.127 66.8573 106.496 66.8573ZM111.726 63.9259V67.5475H110.801V61.5277H111.694V62.4683H111.773C111.914 62.1627 112.128 61.9165 112.416 61.7314C112.703 61.543 113.074 61.4496 113.529 61.4496C113.936 61.4496 114.293 61.5328 114.599 61.7C114.904 61.8647 115.142 62.116 115.312 62.4522C115.482 62.7867 115.567 63.2103 115.567 63.7222V67.5475H114.642V63.785C114.642 63.3121 114.519 62.9446 114.274 62.6797C114.028 62.4131 113.691 62.2807 113.262 62.2807C112.967 62.2807 112.703 62.3444 112.471 62.4726C112.241 62.5999 112.06 62.7867 111.926 63.0328C111.793 63.2782 111.726 63.5762 111.726 63.9259ZM119.702 67.6731C119.138 67.6731 118.652 67.5398 118.245 67.2733C117.833 67.0026 117.507 66.6208 117.304 66.1722C117.084 65.7044 116.975 65.1705 116.975 64.5686C116.975 63.9573 117.087 63.4183 117.312 62.9505C117.52 62.5027 117.848 62.1216 118.26 61.8494C118.668 61.5829 119.143 61.4496 119.687 61.4496C120.11 61.4496 120.492 61.5277 120.832 61.6847C121.171 61.8409 121.45 62.0608 121.666 62.3427C121.882 62.6254 122.017 62.9539 122.069 63.3308H121.145C121.067 63.0447 120.903 62.7897 120.674 62.6007C120.434 62.3868 120.11 62.2798 119.702 62.2798C119.365 62.273 119.033 62.3718 118.754 62.5625C118.474 62.761 118.256 63.034 118.123 63.3503C117.974 63.6874 117.9 64.083 117.9 64.5372C117.9 65.0024 117.973 65.4073 118.119 65.7528C118.268 66.0975 118.477 66.3649 118.747 66.5559C119.018 66.7469 119.337 66.842 119.702 66.842C119.943 66.842 120.161 66.7996 120.357 66.7164C120.552 66.6346 120.724 66.5083 120.861 66.3476C120.998 66.1868 121.095 65.9962 121.145 65.791H122.069C122.021 66.1384 121.888 66.4685 121.681 66.752C121.478 67.0339 121.208 67.2588 120.871 67.4261C120.536 67.5908 120.146 67.6731 119.702 67.6731ZM125.945 67.6731C125.366 67.6731 124.866 67.5449 124.445 67.2885C124.025 67.028 123.689 66.6527 123.477 66.207C123.252 65.7418 123.14 65.201 123.14 64.5847C123.14 63.9675 123.252 63.4242 123.477 62.9547C123.704 62.481 124.02 62.1126 124.425 61.8494C124.833 61.5829 125.308 61.4496 125.851 61.4496C126.165 61.4496 126.474 61.5014 126.78 61.6058C127.086 61.7102 127.364 61.8808 127.615 62.1152C127.866 62.3478 128.066 62.6568 128.215 63.0405C128.364 63.4242 128.438 63.8979 128.438 64.459V64.8513H123.798V64.0516H127.497C127.497 63.712 127.429 63.4089 127.294 63.1424C127.166 62.8823 126.968 62.6636 126.721 62.5116C126.459 62.3528 126.158 62.2724 125.851 62.2798C125.483 62.2798 125.164 62.3715 124.895 62.554C124.629 62.7349 124.423 62.97 124.28 63.2604C124.136 63.55 124.063 63.8692 124.064 64.1925V64.7256C124.064 65.1806 124.143 65.5661 124.299 65.8819C124.459 66.196 124.68 66.4337 124.962 66.5992C125.244 66.7605 125.572 66.842 125.945 66.842C126.188 66.842 126.408 66.808 126.604 66.7401C126.803 66.6697 126.974 66.5653 127.117 66.426C127.261 66.2851 127.373 66.1102 127.451 65.9014L128.344 66.1518C128.252 66.4522 128.089 66.7264 127.87 66.9515C127.637 67.1861 127.356 67.3678 127.047 67.4846C126.694 67.6148 126.321 67.6787 125.945 67.6731ZM135.567 61.5277V62.3113H132.447V61.5277H135.567ZM133.357 60.0853H134.281V65.8233C134.281 66.0839 134.319 66.28 134.395 66.4107C134.474 66.5381 134.573 66.6247 134.693 66.6697C134.816 66.7121 134.945 66.7325 135.081 66.7325C135.183 66.7325 135.267 66.7266 135.332 66.7164L135.488 66.685L135.677 67.5161C135.591 67.5458 135.504 67.5693 135.414 67.5865C135.274 67.615 135.13 67.6281 134.987 67.6256C134.722 67.6248 134.46 67.5675 134.219 67.4575C133.97 67.3449 133.756 67.1675 133.599 66.9439C133.437 66.7147 133.357 66.4235 133.357 66.0737V60.0853ZM139.339 67.6731C138.796 67.6731 138.319 67.5432 137.909 67.2851C137.495 67.0194 137.164 66.643 136.953 66.1985C136.725 65.7341 136.611 65.1908 136.611 64.5686C136.611 63.9421 136.725 63.3945 136.953 62.9267C137.182 62.4598 137.501 62.0956 137.909 61.8375C138.319 61.5786 138.796 61.4496 139.339 61.4496C139.882 61.4496 140.358 61.5786 140.765 61.8375C141.176 62.0956 141.495 62.459 141.722 62.9267C141.952 63.3945 142.067 63.9421 142.067 64.5686C142.067 65.1908 141.952 65.7341 141.722 66.1985C141.513 66.6441 141.181 67.0209 140.765 67.2851C140.358 67.5432 139.882 67.6731 139.339 67.6731ZM139.339 66.8412C139.752 66.8412 140.091 66.7359 140.358 66.5245C140.624 66.3123 140.822 66.0347 140.95 65.69C141.08 65.331 141.146 64.9515 141.142 64.5694C141.142 64.1662 141.078 63.7918 140.95 63.4446C140.822 63.0965 140.624 62.8164 140.358 62.6016C140.091 62.3877 139.752 62.2798 139.339 62.2798C138.927 62.2798 138.587 62.3868 138.32 62.6016C138.049 62.8224 137.844 63.1142 137.729 63.4446C137.6 63.7918 137.536 64.1662 137.536 64.5686C137.536 64.971 137.6 65.3445 137.729 65.6892C137.856 66.0347 138.054 66.3131 138.32 66.5245C138.587 66.7367 138.927 66.8412 139.339 66.8412ZM150.846 62.8766L150.015 63.1109C149.959 62.9655 149.881 62.8296 149.784 62.7077C149.676 62.5673 149.537 62.4544 149.377 62.3783C149.205 62.2917 148.984 62.2484 148.715 62.2484C148.346 62.2484 148.039 62.3333 147.794 62.5031C147.551 62.6712 147.429 62.8834 147.429 63.1424C147.429 63.3716 147.513 63.5541 147.68 63.6874C147.847 63.8207 148.109 63.931 148.463 64.0202L149.357 64.24C149.896 64.3699 150.296 64.5703 150.56 64.8394C150.824 65.1059 150.956 65.4498 150.956 65.87C150.96 66.2026 150.855 66.5275 150.658 66.7953C150.463 67.067 150.188 67.2809 149.835 67.438C149.483 67.5942 149.072 67.6731 148.604 67.6731C147.991 67.6731 147.483 67.5398 147.081 67.2733C146.678 67.0067 146.423 66.617 146.316 66.1051L147.194 65.8853C147.277 66.2095 147.435 66.4523 147.668 66.6153C147.903 66.7766 148.21 66.8573 148.589 66.8573C149.02 66.8573 149.362 66.7664 149.616 66.5831C149.872 66.398 150 66.1756 150 65.9175C150.002 65.8193 149.984 65.7216 149.946 65.6309C149.908 65.5402 149.852 65.4585 149.78 65.3912C149.634 65.2486 149.409 65.1407 149.106 65.0703L148.103 64.8351C147.552 64.7044 147.147 64.5023 146.888 64.2281C146.632 63.9514 146.504 63.605 146.504 63.1891C146.504 62.8495 146.599 62.549 146.79 62.2883C146.995 62.018 147.266 61.8058 147.578 61.6729C147.912 61.5234 148.291 61.4496 148.715 61.4496C149.31 61.4496 149.778 61.5803 150.117 61.8409C150.46 62.1024 150.703 62.4471 150.846 62.8766ZM154.966 61.5277V62.3113H151.846V61.5277H154.966ZM152.756 60.0853H153.681V65.8233C153.681 66.0839 153.719 66.28 153.795 66.4107C153.861 66.5289 153.966 66.6204 154.093 66.6697C154.215 66.7121 154.345 66.7325 154.481 66.7325C154.583 66.7325 154.666 66.7266 154.731 66.7164L154.888 66.685L155.076 67.5161C154.99 67.5459 154.902 67.5695 154.813 67.5865C154.701 67.612 154.559 67.6256 154.386 67.6256C154.121 67.6247 153.859 67.5674 153.618 67.4575C153.37 67.3446 153.156 67.1673 152.999 66.9439C152.837 66.7147 152.756 66.4235 152.756 66.0737V60.0853ZM158.129 67.6884C157.747 67.6884 157.402 67.6162 157.09 67.4728C156.79 67.3353 156.533 67.1169 156.35 66.842C156.167 66.5653 156.076 66.2308 156.076 65.8386C156.076 65.4939 156.144 65.2146 156.28 64.9998C156.415 64.7833 156.597 64.6136 156.824 64.4905C157.061 64.3643 157.314 64.272 157.577 64.2163C157.853 64.1534 158.132 64.1042 158.411 64.0677C158.777 64.0202 159.073 63.9853 159.301 63.9616C159.531 63.9361 159.698 63.892 159.803 63.8317C159.91 63.7723 159.963 63.6678 159.963 63.5184V63.487C159.963 63.1008 159.858 62.7994 159.646 62.5855C159.437 62.3715 159.119 62.2646 158.693 62.2646C158.252 62.2646 157.906 62.3613 157.655 62.554C157.404 62.7476 157.228 62.9539 157.126 63.1738L156.248 62.8597C156.404 62.4946 156.614 62.2094 156.875 62.0056C157.139 61.7993 157.426 61.6559 157.737 61.5744C158.039 61.4926 158.349 61.4506 158.662 61.4496C158.855 61.4496 159.078 61.4725 159.328 61.52C159.582 61.5642 159.826 61.6567 160.062 61.7985C160.299 61.9394 160.496 62.1525 160.653 62.4369C160.809 62.7221 160.888 63.1033 160.888 63.5813V67.5475H159.963V66.7325H159.916C159.835 66.8884 159.729 67.03 159.602 67.1519C159.434 67.315 159.236 67.4439 159.019 67.5313C158.775 67.6366 158.479 67.6884 158.129 67.6884ZM158.27 66.8573C158.636 66.8573 158.944 66.786 159.195 66.6417C159.433 66.513 159.632 66.3205 159.767 66.0856C159.895 65.8682 159.963 65.6206 159.963 65.3683V64.5219C159.924 64.5686 159.837 64.6119 159.704 64.6509C159.555 64.6919 159.403 64.7248 159.25 64.7494C158.956 64.7947 158.66 64.8338 158.365 64.8665C158.135 64.8953 157.91 64.9465 157.69 65.0193C157.483 65.0873 157.317 65.1908 157.189 65.3292C157.063 65.465 157 65.6501 157 65.8853C157 66.2079 157.119 66.4498 157.357 66.6153C157.597 66.7766 157.902 66.8573 158.27 66.8573ZM162.576 67.5475V61.5277H163.47V62.4369H163.533C163.642 62.1398 163.841 61.8978 164.128 61.7119C164.418 61.5258 164.756 61.429 165.1 61.4335C165.168 61.4335 165.253 61.4352 165.355 61.4377C165.457 61.4402 165.534 61.4436 165.586 61.4496V62.3902C165.515 62.3755 165.443 62.3636 165.371 62.3545C165.255 62.3359 165.139 62.3268 165.022 62.3274C164.749 62.3223 164.48 62.3857 164.238 62.5116C164.013 62.6266 163.824 62.8026 163.694 63.0194C163.564 63.2363 163.497 63.4854 163.501 63.7383V67.5475H162.576ZM169.677 61.5277V62.3113H166.558V61.5277H169.677ZM167.468 60.0853H168.392V65.8233C168.392 66.0839 168.43 66.28 168.506 66.4107C168.572 66.5289 168.678 66.6204 168.804 66.6697C168.926 66.7121 169.056 66.7325 169.192 66.7325C169.294 66.7325 169.377 66.7266 169.442 66.7164L169.599 66.685L169.788 67.5161C169.702 67.5459 169.614 67.5694 169.525 67.5865C169.413 67.612 169.27 67.6256 169.098 67.6256C168.832 67.6247 168.571 67.5674 168.329 67.4575C168.081 67.3446 167.867 67.1673 167.71 66.9439C167.548 66.7147 167.468 66.4235 167.468 66.0737V60.0853ZM29.9839 96.1641C29.5246 96.1641 29.1095 96.0733 28.7419 95.8899C28.3871 95.719 28.082 95.46 27.8556 95.1378C27.6329 94.8165 27.5065 94.4384 27.4914 94.0477H28.432C28.4685 94.4111 28.6332 94.7116 28.9261 94.9493C29.2215 95.1845 29.5738 95.3025 29.9839 95.3025C30.2923 95.3081 30.5962 95.2278 30.8616 95.0707C31.1186 94.9187 31.3288 94.6991 31.4695 94.4357C31.618 94.1641 31.6928 93.8576 31.6928 93.5155C31.6928 93.1649 31.6163 92.8524 31.4618 92.5782C31.3158 92.3073 31.099 92.0811 30.8345 91.9237C30.5577 91.7614 30.2419 91.6775 29.921 91.6809C29.6649 91.6802 29.4101 91.7186 29.1655 91.7947C28.9375 91.8561 28.7214 91.9554 28.5262 92.0884L27.617 91.9789L28.1026 88.028H32.2726V88.8905H28.9184L28.6357 91.2573H28.6833C29.0882 90.9616 29.5767 90.8025 30.0781 90.8031C30.5333 90.7948 30.9819 90.9127 31.3742 91.1438C31.7665 91.3749 32.0871 91.71 32.3006 92.1122C32.5222 92.5171 32.6334 92.9798 32.6334 93.4993C32.6334 94.0112 32.5188 94.4688 32.2887 94.8712C32.0662 95.2662 31.7412 95.5938 31.3481 95.8195C30.9482 96.0495 30.4932 96.1641 29.9839 96.1641ZM37.3101 96.0546V90.0348H38.2032V90.9755H38.2822C38.3973 90.6663 38.6105 90.4033 38.8892 90.2267C39.1693 90.0467 39.5046 89.9567 39.896 89.9567C40.2933 89.9567 40.6244 90.0467 40.8875 90.2267C41.1541 90.405 41.3621 90.6537 41.5107 90.9755H41.5735C41.728 90.6647 41.9589 90.4177 42.2671 90.2352C42.5761 90.0493 42.9462 89.9567 43.3766 89.9567C43.9148 89.9567 44.3546 90.1248 44.6976 90.4619C45.0397 90.7963 45.2103 91.3176 45.2103 92.0256V96.0546H44.285V92.0256C44.285 91.5816 44.1644 91.2641 43.9216 91.0731C43.6769 90.882 43.3738 90.781 43.0634 90.787C42.6397 90.787 42.3121 90.9152 42.0786 91.1716C41.8468 91.4245 41.7305 91.7463 41.7305 92.136V96.0546H40.7899V91.9314C40.7899 91.5892 40.6796 91.3142 40.4571 91.1045C40.2347 90.8931 39.9486 90.787 39.5989 90.787C39.3605 90.7864 39.1269 90.8532 38.9248 90.9797C38.7146 91.1111 38.5418 91.2944 38.4231 91.512C38.2939 91.7514 38.229 92.0202 38.2346 92.2922V96.0546H37.3101ZM46.9014 96.0546V90.0348H47.8267V96.0546H46.9014ZM47.3717 89.0314C47.1981 89.0341 47.0305 88.9678 46.9056 88.8472C46.8443 88.7911 46.7955 88.7227 46.7625 88.6465C46.7294 88.5703 46.7128 88.488 46.7138 88.4049C46.7138 88.2317 46.7774 88.0848 46.9056 87.9618C47.0307 87.8409 47.1986 87.7746 47.3725 87.7775C47.5525 87.7775 47.7062 87.8387 47.8344 87.9618C47.8968 88.0173 47.9466 88.0857 47.9804 88.1621C48.0142 88.2385 48.0313 88.3213 48.0305 88.4049C48.0314 88.4883 48.0144 88.5709 47.9807 88.6472C47.9471 88.7235 47.8974 88.7917 47.8352 88.8472C47.7741 88.9072 47.7016 88.9545 47.622 88.9861C47.5424 89.0177 47.4573 89.0331 47.3717 89.0314ZM50.4448 92.4331V96.0546H49.5203V90.0348H50.4151V90.9755H50.4932C50.6318 90.6729 50.855 90.417 51.1359 90.2386C51.4236 90.051 51.7946 89.9567 52.2488 89.9567C52.6563 89.9567 53.0128 90.0399 53.3185 90.2072C53.6241 90.3719 53.8618 90.6232 54.0316 90.9602C54.2022 91.2947 54.2871 91.7174 54.2871 92.2293V96.0546H53.3618V92.2922C53.3618 91.8193 53.2395 91.4509 52.9942 91.1868C52.748 90.9203 52.411 90.787 51.9831 90.787C51.7069 90.7824 51.4342 90.8487 51.191 90.9797C50.9618 91.107 50.7793 91.2947 50.646 91.54C50.5127 91.7853 50.4465 92.0833 50.4465 92.4331H50.4448ZM60.8519 96.1955C60.4939 96.2009 60.1391 96.1273 59.8128 95.9799C59.5123 95.8425 59.256 95.624 59.0725 95.3492C58.89 95.0724 58.7983 94.7379 58.7983 94.3457C58.7983 94.0011 58.8662 93.7218 59.0021 93.507C59.136 93.2924 59.3239 93.1167 59.5471 92.9976C59.7737 92.8745 60.025 92.7837 60.2992 92.7234C60.576 92.6606 60.8544 92.6114 61.1337 92.5749C61.4996 92.5273 61.7959 92.4925 62.0234 92.4687C62.2526 92.4424 62.4207 92.3991 62.5251 92.3397C62.6321 92.2794 62.6864 92.175 62.6864 92.0256V91.9942C62.6864 91.6079 62.5803 91.3074 62.3681 91.0935C62.1592 90.8787 61.8417 90.7717 61.4164 90.7717C60.975 90.7717 60.6286 90.8685 60.3773 91.0621C60.1269 91.2548 59.9503 91.461 59.8484 91.6809L58.9707 91.3677C59.1269 91.0018 59.3357 90.7165 59.598 90.5128C59.8525 90.3113 60.1459 90.1645 60.4597 90.0815C60.7738 89.9983 61.0819 89.9567 61.385 89.9567C61.5777 89.9567 61.8001 89.9797 62.0506 90.0272C62.3044 90.0713 62.5489 90.1639 62.7841 90.3057C63.0218 90.4466 63.2187 90.6597 63.3758 90.9441C63.532 91.2293 63.6109 91.6105 63.6109 92.0884V96.0546H62.6856V95.2397H62.6397C62.5582 95.3954 62.4522 95.537 62.3256 95.659C62.1574 95.822 61.9594 95.9511 61.7424 96.0393C61.4988 96.1438 61.2016 96.1955 60.8519 96.1955ZM60.9928 95.3644C61.3579 95.3644 61.6669 95.2931 61.9182 95.1497C62.1478 95.0246 62.3399 94.8406 62.4748 94.6167C62.6097 94.3927 62.6824 94.1368 62.6856 93.8754V93.029C62.6465 93.0757 62.5608 93.119 62.4275 93.1581C62.2777 93.1989 62.1258 93.2318 61.9725 93.2565C61.6782 93.3018 61.383 93.3408 61.087 93.3737C60.8579 93.4025 60.6322 93.4537 60.413 93.5265C60.2219 93.585 60.0491 93.6917 59.9113 93.8364C59.7856 93.9722 59.7228 94.1581 59.7228 94.3933C59.7228 94.7142 59.8417 94.957 60.0794 95.1216C60.3205 95.2838 60.6244 95.3644 60.9928 95.3644ZM67.7282 98.4376C67.2817 98.4376 66.898 98.3799 66.5762 98.2652C66.2827 98.1682 66.0102 98.0164 65.7732 97.8179C65.5742 97.6503 65.4034 97.452 65.2672 97.2304L66.0041 96.7134C66.0881 96.8229 66.1934 96.9486 66.3216 97.0895C66.4497 97.2329 66.6246 97.3569 66.8471 97.4613C67.072 97.5683 67.3649 97.6226 67.7282 97.6226C68.2147 97.6226 68.6154 97.5046 68.932 97.2694C69.2478 97.0343 69.4057 96.6659 69.4057 96.1641V94.9417H69.3276C69.2597 95.0512 69.1629 95.187 69.0373 95.3492C68.8917 95.5272 68.7104 95.6726 68.505 95.7762C68.275 95.8993 67.9634 95.9604 67.5712 95.9604C67.1118 95.9674 66.6593 95.8482 66.263 95.6157C65.8793 95.3857 65.5745 95.0512 65.3495 94.6123C65.128 94.1734 65.0168 93.6403 65.0168 93.0137C65.0168 92.3966 65.1254 91.86 65.3419 91.4025C65.5584 90.9432 65.8606 90.5875 66.2477 90.3371C66.634 90.0832 67.0805 89.9567 67.5873 89.9567C67.9795 89.9567 68.2902 90.0221 68.5211 90.1528C68.7529 90.2802 68.9303 90.4271 69.0534 90.5917C69.1791 90.753 69.275 90.8863 69.3429 90.9907H69.4371V90.0348H70.3311V96.227C70.3311 96.744 70.2131 97.165 69.9779 97.4893C69.7434 97.8172 69.4156 98.0668 69.0373 98.2058C68.6195 98.365 68.1753 98.4437 67.7282 98.4376ZM67.6977 95.1293C68.0687 95.1293 68.3819 95.0444 68.6383 94.8746C68.8938 94.7048 69.0882 94.4612 69.2215 94.142C69.3548 93.8236 69.4219 93.4416 69.4219 92.9976C69.4219 92.5638 69.3565 92.1809 69.2258 91.8499C69.1115 91.5395 68.9102 91.2686 68.6459 91.0697C68.3896 90.8812 68.0738 90.787 67.6977 90.787C67.3055 90.787 66.9786 90.8863 66.718 91.085C66.4529 91.2922 66.2507 91.5691 66.1339 91.8847C66.0018 92.2406 65.9365 92.6179 65.9412 92.9976C65.9412 93.4161 66.0066 93.7854 66.1373 94.1072C66.2575 94.409 66.4616 94.6701 66.7257 94.8593C66.9871 95.0393 67.3114 95.1293 67.6977 95.1293ZM74.4696 96.1803C73.9263 96.1803 73.4492 96.0504 73.0392 95.7923C72.6252 95.5267 72.2938 95.1506 72.0824 94.7065C71.8558 94.2413 71.742 93.698 71.742 93.0757C71.742 92.4492 71.8558 91.9016 72.0824 91.4339C72.2929 90.9883 72.6245 90.6109 73.0392 90.3447C73.4492 90.0858 73.9263 89.9567 74.4696 89.9567C75.0129 89.9567 75.4883 90.0858 75.8958 90.3447C76.3067 90.6028 76.6251 90.9661 76.8526 91.4339C77.0818 91.9016 77.1972 92.4492 77.1972 93.0757C77.1972 93.698 77.0818 94.2413 76.8526 94.7065C76.6428 95.1517 76.311 95.5282 75.8958 95.7923C75.4883 96.0504 75.0129 96.1803 74.4696 96.1803ZM74.4696 95.3492C74.8822 95.3492 75.2218 95.243 75.4883 95.0317C75.7549 94.8203 75.9519 94.5418 76.08 94.1972C76.2082 93.8525 76.2728 93.4781 76.2728 93.0757C76.2758 92.6926 76.2105 92.312 76.08 91.9517C75.9645 91.6214 75.7597 91.3296 75.4883 91.1087C75.2218 90.8948 74.8822 90.787 74.4696 90.787C74.057 90.787 73.7175 90.8948 73.4509 91.1087C73.1792 91.3295 72.9741 91.6213 72.8583 91.9517C72.7282 92.312 72.6632 92.6926 72.6665 93.0757C72.6665 93.4781 72.731 93.8525 72.8592 94.1972C72.9865 94.5418 73.1843 94.8203 73.4509 95.0317C73.7166 95.243 74.057 95.3492 74.4696 95.3492Z" fill="#A1A1A1"/>
<g filter="url(#filter0_d_1_616)">
<path d="M121.861 84.5261H93.7107C90.8976 84.5261 88.6171 86.8066 88.6171 89.6197V94.8491C88.6171 97.6623 90.8976 99.9427 93.7107 99.9427H121.861C124.674 99.9427 126.955 97.6623 126.955 94.8491V89.6197C126.955 86.8066 124.674 84.5261 121.861 84.5261Z" fill="#2E5235" fill-opacity="0.3"/>
<path d="M94.2854 95.2057H93.5562L95.6641 89.4635H96.3823L98.4902 95.2057H97.7618L96.0461 90.3719H96.0011L94.2854 95.2057ZM94.5545 92.9628H97.4927V93.58H94.5545V92.9628ZM103.736 91.2582H103.04C102.969 90.8911 102.759 90.5657 102.454 90.3498C102.309 90.2444 102.147 90.1648 101.975 90.1146C101.797 90.0616 101.611 90.035 101.425 90.0357C101.078 90.0357 100.763 90.124 100.48 90.2997C100.2 90.4746 99.9766 90.7335 99.8103 91.0756C99.6456 91.4178 99.5632 91.838 99.5632 92.3346C99.5632 92.8321 99.6456 93.2514 99.8103 93.5936C99.9766 93.9357 100.2 94.1946 100.48 94.3703C100.763 94.5461 101.078 94.6335 101.425 94.6335C101.616 94.6335 101.799 94.6072 101.975 94.5554C102.151 94.5028 102.31 94.4255 102.454 94.3228C102.758 94.1042 102.968 93.7783 103.04 93.411H103.736C103.689 93.6888 103.592 93.9558 103.45 94.1989C103.179 94.6571 102.748 94.9988 102.241 95.1581C101.977 95.2436 101.702 95.286 101.425 95.2838C100.935 95.2838 100.5 95.1649 100.118 94.9255C99.7288 94.6764 99.417 94.3228 99.2186 93.9051C99.0004 93.4637 98.8909 92.9407 98.8909 92.3346C98.8909 91.7293 99.0004 91.2055 99.2186 90.7649C99.4376 90.3235 99.7372 89.9831 100.118 89.7445C100.51 89.502 100.964 89.3774 101.425 89.3854C101.715 89.3854 101.987 89.427 102.241 89.511C102.497 89.5959 102.728 89.719 102.933 89.8812C103.139 90.0425 103.311 90.2386 103.45 90.4703C103.588 90.7004 103.683 90.9627 103.736 91.2582ZM104.545 90.0807V89.4635H108.851V90.0807H107.046V95.2057H106.35V90.0807H104.545ZM110.62 89.4635V95.2057H109.924V89.4635H110.62ZM112.25 89.4635L113.954 94.2973H114.021L115.726 89.4635H116.454L114.347 95.2057H113.629L111.52 89.4635H112.25ZM117.349 95.2057V89.4635H120.815V90.0807H118.044V92.0205H120.635V92.6377H118.044V94.5885H120.86V95.2057H117.349Z" fill="#A2CEAD"/>
<path d="M121.861 84.9209H93.7107C91.1156 84.9209 89.0118 87.0246 89.0118 89.6197V94.8492C89.0118 97.4443 91.1156 99.548 93.7107 99.548H121.861C124.456 99.548 126.56 97.4443 126.56 94.8492V89.6197C126.56 87.0246 124.456 84.9209 121.861 84.9209Z" stroke="#3A523E" stroke-width="0.789507"/>
</g>
<path d="M248.216 31.4679H19.8535C18.2126 31.4679 16.8823 32.7981 16.8823 34.4391V106.734C16.8823 108.375 18.2126 109.705 19.8535 109.705H248.216C249.857 109.705 251.188 108.375 251.188 106.734V34.4391C251.188 32.7981 249.857 31.4679 248.216 31.4679Z" stroke="#484848" stroke-width="0.848933"/>
<path d="M17.7592 126.722L20.1413 133.479H20.2356L22.6185 126.722H23.6372L20.6906 134.749H19.6871L16.7397 126.722H17.7584H17.7592ZM24.7629 134.749V128.729H25.6874V134.749H24.7621H24.7629ZM25.2324 127.726C25.0585 127.729 24.8905 127.662 24.7655 127.542C24.7043 127.485 24.6556 127.417 24.6227 127.34C24.5898 127.264 24.5734 127.182 24.5745 127.098C24.5745 126.926 24.6381 126.778 24.7663 126.656C24.8914 126.535 25.0593 126.469 25.2332 126.472C25.4132 126.472 25.5669 126.533 25.695 126.656C25.8258 126.778 25.8903 126.926 25.8903 127.098C25.8912 127.182 25.8743 127.265 25.8406 127.341C25.8069 127.418 25.7573 127.486 25.695 127.542C25.6341 127.601 25.5617 127.649 25.4823 127.68C25.4028 127.712 25.3179 127.727 25.2324 127.726ZM29.9049 134.875C29.3251 134.875 28.8251 134.746 28.404 134.49C27.9845 134.23 27.6486 133.854 27.4362 133.409C27.2112 132.943 27.0992 132.403 27.0992 131.786C27.0992 131.169 27.2112 130.626 27.4362 130.155C27.6637 129.683 27.9795 129.314 28.3845 129.05C28.7919 128.784 29.2674 128.651 29.8107 128.651C30.1248 128.651 30.4346 128.703 30.7403 128.807C31.0459 128.912 31.3243 129.082 31.5747 129.317C31.8252 129.549 32.0247 129.857 32.1741 130.242C32.3235 130.626 32.3974 131.099 32.3974 131.661V132.053H27.7571V131.253H31.4567C31.4567 130.914 31.3888 130.61 31.253 130.344C31.1257 130.084 30.9273 129.865 30.6808 129.713C30.4192 129.554 30.1175 129.474 29.8115 129.481C29.4431 129.481 29.1239 129.573 28.8548 129.756C28.5915 129.933 28.3793 130.176 28.2393 130.461C28.0957 130.751 28.0219 131.07 28.0237 131.394V131.927C28.0237 132.381 28.1026 132.767 28.2588 133.083C28.4046 133.382 28.6348 133.632 28.921 133.801C29.2037 133.962 29.5322 134.044 29.9057 134.044C30.1477 134.044 30.3676 134.01 30.5637 133.942C30.7554 133.875 30.9306 133.769 31.0773 133.628C31.2207 133.487 31.332 133.312 31.4101 133.103L32.304 133.353C32.2115 133.654 32.0488 133.928 31.8294 134.153C31.5962 134.388 31.3154 134.569 31.006 134.686C30.6537 134.816 30.2804 134.88 29.9049 134.875ZM35.1683 134.749L33.3346 128.729H34.3066L35.6072 133.338H35.67L36.9553 128.729H37.9434L39.2126 133.322H39.2754L40.5768 128.729H41.5489L39.7152 134.749H38.8051L37.4893 130.124H37.3942L36.0783 134.749H35.1683ZM47.6476 134.89C47.2656 134.89 46.9192 134.818 46.6085 134.674C46.3077 134.537 46.051 134.319 45.8674 134.044C45.6849 133.767 45.5932 133.432 45.5932 133.04C45.5932 132.695 45.6611 132.415 45.7969 132.201C45.9308 131.987 46.1188 131.811 46.3419 131.692C46.5686 131.569 46.8199 131.478 47.0941 131.418C47.3708 131.355 47.6493 131.305 47.9286 131.268C48.2945 131.222 48.5908 131.186 48.8183 131.163C49.0483 131.137 49.2156 131.093 49.32 131.033C49.4278 130.974 49.4813 130.869 49.4813 130.72V130.689C49.4813 130.302 49.3752 130.002 49.1638 129.787C48.9541 129.573 48.6374 129.466 48.2113 129.466C47.7698 129.466 47.4235 129.563 47.1722 129.756C46.9218 129.949 46.7452 130.155 46.6433 130.375L45.7655 130.062C45.9226 129.696 46.1314 129.411 46.3929 129.207C46.6474 129.006 46.9407 128.859 47.2545 128.776C47.5686 128.693 47.8768 128.651 48.1799 128.651C48.3734 128.651 48.5958 128.674 48.8463 128.722C49.0993 128.766 49.3438 128.858 49.5789 128.999C49.8166 129.141 50.0136 129.353 50.1706 129.638C50.3277 129.923 50.4058 130.305 50.4058 130.783V134.749H49.4813V133.934H49.4346C49.3529 134.09 49.2468 134.231 49.1205 134.353C48.9524 134.516 48.7543 134.645 48.5373 134.733C48.2945 134.837 47.9974 134.89 47.6476 134.89ZM47.7877 134.059C48.1536 134.059 48.4617 133.987 48.713 133.843C48.9432 133.719 49.1358 133.535 49.2709 133.311C49.4061 133.087 49.4787 132.831 49.4813 132.57V131.723C49.4414 131.77 49.3556 131.813 49.2224 131.852C49.0725 131.893 48.9206 131.926 48.7673 131.951C48.5975 131.976 48.432 132 48.2699 132.021C48.1103 132.039 47.9812 132.055 47.8819 132.068C47.6528 132.097 47.427 132.148 47.2078 132.221C47.0171 132.279 46.8446 132.386 46.707 132.531C46.5805 132.667 46.5185 132.852 46.5185 133.087C46.5185 133.409 46.6374 133.651 46.8751 133.816C47.1153 133.978 47.4192 134.059 47.7877 134.059ZM53.0188 126.722V134.749H52.0935V126.722H53.0188ZM55.6377 126.722V134.749H54.7124V126.722H55.6377ZM63.2416 126.722V134.749H62.2696V127.742H62.2229L60.2636 129.042V128.055L62.2696 126.722H63.2416ZM65.5507 134.749V134.044L68.1994 131.144C68.5101 130.804 68.7665 130.509 68.9677 130.257C69.1467 130.04 69.2968 129.8 69.4142 129.544C69.5135 129.319 69.5636 129.084 69.5636 128.839C69.5636 128.557 69.4957 128.312 69.3599 128.106C69.2252 127.898 69.0349 127.733 68.8106 127.628C68.5658 127.513 68.2977 127.455 68.0271 127.459C67.7189 127.459 67.4498 127.524 67.2197 127.651C66.9962 127.773 66.8125 127.957 66.6908 128.181C66.5633 128.427 66.5 128.702 66.5066 128.98H65.5813C65.5813 128.509 65.69 128.097 65.9064 127.742C66.1204 127.389 66.4269 127.102 66.7927 126.911C67.1688 126.712 67.5907 126.613 68.0576 126.613C68.5288 126.613 68.9456 126.712 69.309 126.911C69.6714 127.109 69.9567 127.377 70.163 127.714C70.3693 128.051 70.4728 128.426 70.4728 128.839C70.4728 129.134 70.4194 129.423 70.3115 129.705C70.2071 129.985 70.0246 130.297 69.7631 130.642C69.5042 130.984 69.1451 131.402 68.685 131.896L66.8827 133.824V133.886H70.6138V134.749H65.5507ZM77.8755 134.875C77.2957 134.875 76.7957 134.746 76.3746 134.49C75.9551 134.23 75.6192 133.854 75.4068 133.409C75.1819 132.943 75.0698 132.403 75.0698 131.786C75.0698 131.169 75.1819 130.626 75.4068 130.155C75.6344 129.683 75.9502 129.314 76.3551 129.05C76.7626 128.784 77.238 128.651 77.7813 128.651C78.0954 128.651 78.4044 128.703 78.71 128.807C79.0157 128.912 79.2941 129.082 79.5454 129.317C79.7958 129.549 79.9953 129.857 80.1447 130.242C80.2933 130.626 80.368 131.099 80.368 131.661V132.053H75.7277V131.253H79.4274C79.4274 130.914 79.3595 130.61 79.2236 130.344C79.0964 130.084 78.898 129.865 78.6515 129.713C78.3896 129.554 78.0876 129.474 77.7813 129.481C77.4129 129.481 77.0937 129.573 76.8254 129.756C76.5588 129.936 76.3534 130.172 76.2099 130.461C76.0656 130.751 75.9943 131.062 75.9943 131.394V131.927C75.9943 132.381 76.0732 132.767 76.2295 133.083C76.3752 133.382 76.6054 133.632 76.8916 133.801C77.1743 133.962 77.502 134.044 77.8764 134.044C78.1183 134.044 78.3382 134.01 78.5343 133.942C78.7261 133.875 78.9012 133.769 79.0479 133.628C79.1914 133.487 79.3026 133.312 79.3807 133.103L80.2738 133.353C80.1804 133.656 80.0216 133.923 79.8001 134.153C79.5669 134.388 79.2861 134.569 78.9766 134.686C78.6243 134.816 78.251 134.88 77.8755 134.875ZM86.5143 128.729L84.2884 134.749H83.3477L81.1218 128.729H82.1244L83.7867 133.526H83.8495L85.5108 128.729H86.5143ZM90.0433 134.875C89.4635 134.875 88.9634 134.746 88.5424 134.49C88.123 134.23 87.7871 133.854 87.5746 133.409C87.3496 132.943 87.2376 132.403 87.2376 131.786C87.2376 131.169 87.3496 130.626 87.5746 130.155C87.8021 129.683 88.1179 129.314 88.5228 129.05C88.9303 128.784 89.4057 128.651 89.9491 128.651C90.2632 128.651 90.5722 128.703 90.8778 128.807C91.1842 128.912 91.4619 129.082 91.7131 129.317C91.9636 129.549 92.1639 129.857 92.3125 130.242C92.461 130.626 92.5357 131.099 92.5357 131.661V132.053H87.8955V131.253H91.5951C91.5951 130.914 91.5272 130.61 91.3914 130.344C91.2643 130.084 91.0659 129.865 90.8192 129.713C90.5573 129.554 90.2553 129.474 89.9491 129.481C89.5806 129.481 89.2623 129.573 88.9932 129.756C88.7266 129.936 88.5211 130.172 88.3777 130.461C88.2341 130.751 88.1603 131.07 88.162 131.394V131.927C88.162 132.381 88.241 132.767 88.3972 133.083C88.5568 133.397 88.7775 133.636 89.0594 133.801C89.3421 133.962 89.6698 134.044 90.0433 134.044C90.2861 134.044 90.506 134.01 90.7021 133.942C90.9007 133.871 91.0713 133.767 91.2148 133.628C91.3591 133.487 91.4703 133.312 91.5484 133.103L92.4415 133.353C92.3481 133.656 92.1894 133.923 91.9678 134.153C91.7346 134.388 91.4538 134.569 91.1443 134.686C90.7921 134.816 90.4188 134.88 90.0433 134.875ZM94.8678 131.127V134.749H93.9433V128.729H94.8363V129.67H94.9145C95.0562 129.364 95.2702 129.118 95.558 128.933C95.8449 128.744 96.2159 128.651 96.6709 128.651C97.0784 128.651 97.4349 128.734 97.7406 128.902C98.0462 129.066 98.2839 129.317 98.4537 129.654C98.6234 129.988 98.7083 130.412 98.7083 130.924V134.749H97.7838V130.987C97.7838 130.514 97.6608 130.145 97.4154 129.881C97.1692 129.615 96.8322 129.481 96.4043 129.481C96.1089 129.481 95.8449 129.546 95.6123 129.673C95.3801 129.803 95.1907 129.998 95.0673 130.234C94.934 130.48 94.8678 130.778 94.8678 131.127ZM103.017 128.729V129.513H99.8968V128.729H103.017ZM100.806 127.287H101.731V133.025C101.731 133.285 101.769 133.482 101.844 133.612C101.923 133.74 102.023 133.826 102.142 133.871C102.265 133.913 102.394 133.934 102.53 133.934C102.632 133.934 102.716 133.928 102.782 133.918L102.938 133.886L103.126 134.718C103.041 134.747 102.953 134.771 102.864 134.788C102.751 134.814 102.609 134.827 102.437 134.827C102.175 134.827 101.919 134.771 101.669 134.659C101.42 134.546 101.206 134.369 101.049 134.145C100.888 133.915 100.806 133.625 100.806 133.275V127.287ZM108.564 130.077L107.733 130.312C107.677 130.167 107.599 130.031 107.502 129.908C107.393 129.768 107.254 129.656 107.094 129.58C106.922 129.493 106.701 129.45 106.432 129.45C106.063 129.45 105.757 129.535 105.511 129.705C105.268 129.872 105.147 130.085 105.147 130.344C105.147 130.574 105.23 130.756 105.397 130.889C105.564 131.022 105.826 131.133 106.181 131.222L107.075 131.442C107.613 131.571 108.014 131.772 108.278 132.041C108.542 132.307 108.674 132.65 108.674 133.071C108.674 133.416 108.575 133.724 108.376 133.996C108.18 134.268 107.906 134.482 107.553 134.639C107.2 134.796 106.79 134.875 106.322 134.875C105.709 134.875 105.2 134.741 104.798 134.475C104.395 134.208 104.141 133.819 104.034 133.307L104.911 133.087C104.995 133.411 105.153 133.654 105.385 133.816C105.62 133.978 105.928 134.059 106.306 134.059C106.738 134.059 107.08 133.968 107.333 133.785C107.589 133.6 107.717 133.377 107.717 133.118C107.719 133.02 107.701 132.923 107.663 132.833C107.626 132.742 107.569 132.661 107.498 132.594C107.351 132.449 107.127 132.342 106.824 132.272L105.821 132.037C105.27 131.906 104.864 131.704 104.606 131.43C104.349 131.152 104.221 130.807 104.221 130.391C104.221 130.051 104.317 129.75 104.507 129.49C104.712 129.22 104.983 129.007 105.295 128.874C105.654 128.72 106.041 128.644 106.432 128.651C107.028 128.651 107.496 128.781 107.835 129.042C108.177 129.304 108.42 129.649 108.564 130.077Z" fill="#A1A1A1"/>
<path d="M114.934 127.109L118.33 130.929L114.934 134.749" stroke="#A1A1A1" stroke-width="0.848933"/>
<path d="M258.404 17.8849H9.66636C6.14996 17.8849 3.29936 20.7355 3.29936 24.2519V141.54C3.29936 145.057 6.14996 147.907 9.66636 147.907H258.404C261.92 147.907 264.771 145.057 264.771 141.54V24.2519C264.771 20.7355 261.92 17.8849 258.404 17.8849Z" stroke="#484848" stroke-width="0.848933"/>
<defs>
<filter id="filter0_d_1_616" x="88.6171" y="84.5261" width="38.3378" height="16.2061" filterUnits="userSpaceOnUse" color-interpolation-filters="sRGB">
<feFlood flood-opacity="0" result="BackgroundImageFix"/>
<feColorMatrix in="SourceAlpha" type="matrix" values="0 0 0 0 0 0 0 0 0 0 0 0 0 0 0 0 0 0 127 0" result="hardAlpha"/>
<feOffset dy="0.789507"/>
<feComposite in2="hardAlpha" operator="out"/>
<feColorMatrix type="matrix" values="0 0 0 0 0.227451 0 0 0 0 0.321569 0 0 0 0 0.243137 0 0 0 1 0"/>
<feBlend mode="normal" in2="BackgroundImageFix" result="effect1_dropShadow_1_616"/>
<feBlend mode="normal" in="SourceGraphic" in2="effect1_dropShadow_1_616" result="shape"/>
</filter>
</defs>
</svg>
