<svg width="389" height="201" viewBox="0 0 389 201" fill="none" xmlns="http://www.w3.org/2000/svg">
<g clip-path="url(#clip0_1_438)">
<g clip-path="url(#clip1_1_438)">
<path d="M367.09 84.954L61.0047 117.125C57.6294 117.479 55.1825 120.52 55.5394 123.916L61.2816 178.549C61.6385 181.945 64.6641 184.41 68.0394 184.056L374.125 151.885C377.501 151.53 379.947 148.49 379.591 145.094L373.848 90.4604C373.491 87.0645 370.466 84.5992 367.09 84.954Z" fill="#303030"/>
<path d="M367.09 84.954L61.0047 117.125C57.6294 117.479 55.1825 120.52 55.5394 123.916L61.2816 178.549C61.6385 181.945 64.6641 184.41 68.0394 184.056L374.125 151.885C377.501 151.53 379.947 148.49 379.591 145.094L373.848 90.4604C373.491 87.0645 370.466 84.5992 367.09 84.954Z" stroke="#484848" stroke-width="0.821776"/>
<path d="M99.3556 129.594L80.3869 131.587C76.2127 132.026 73.1867 135.786 73.628 139.986L75.6338 159.069C76.0752 163.269 79.8169 166.318 83.9911 165.879L102.96 163.885C107.134 163.446 110.16 159.686 109.719 155.487L107.713 136.403C107.271 132.204 103.53 129.155 99.3556 129.594Z" fill="#484848"/>
<path d="M99.3556 129.594L80.3869 131.587C76.2127 132.026 73.1867 135.786 73.628 139.986L75.6338 159.069C76.0752 163.269 79.8169 166.318 83.9911 165.879L102.96 163.885C107.134 163.446 110.16 159.686 109.719 155.487L107.713 136.403C107.271 132.204 103.53 129.155 99.3556 129.594Z" stroke="#585858" stroke-width="1.01644"/>
<path d="M97.4905 144.002L89.814 144.809C89.4068 144.852 89.0334 145.056 88.7759 145.376C88.5184 145.696 88.398 146.105 88.441 146.515L89.2528 154.238C89.2958 154.648 89.4989 155.024 89.8172 155.283C90.1356 155.543 90.5432 155.664 90.9504 155.621L98.6269 154.815C99.0341 154.772 99.4075 154.568 99.665 154.248C99.9225 153.928 100.043 153.518 99.9999 153.109L99.1881 145.386C99.1451 144.976 98.942 144.6 98.6237 144.341C98.3053 144.081 97.8977 143.959 97.4905 144.002Z" stroke="#A1A1A1" stroke-width="1.10602" stroke-linecap="round" stroke-linejoin="round"/>
<path d="M85.8574 151.472C85.013 151.56 84.2491 150.938 84.1598 150.088L83.3481 142.365C83.2588 141.516 83.8766 140.748 84.721 140.659L92.3975 139.852C93.242 139.764 94.0059 140.386 94.0952 141.236" stroke="#A1A1A1" stroke-width="1.10602" stroke-linecap="square" stroke-linejoin="round"/>
<path d="M121.662 130.542L121.535 129.336L129.909 128.456L130.035 129.662L126.525 130.031L127.579 140.058L126.227 140.2L125.173 130.175L121.662 130.544L121.662 130.542ZM135.317 139.423C134.511 139.508 133.796 139.401 133.172 139.104C132.55 138.801 132.028 138.325 131.666 137.732C131.285 137.114 131.05 136.373 130.96 135.51C130.869 134.648 130.945 133.87 131.188 133.179C131.435 132.484 131.821 131.923 132.345 131.494C132.872 131.061 133.514 130.806 134.271 130.726C134.707 130.68 135.145 130.708 135.586 130.81C136.027 130.911 136.439 131.108 136.823 131.4C137.205 131.689 137.529 132.091 137.793 132.607C138.056 133.122 138.229 133.774 138.312 134.56L138.369 135.109L131.914 135.787L131.797 134.668L136.943 134.127C136.905 133.685 136.762 133.259 136.527 132.884C136.311 132.539 136.003 132.262 135.638 132.085C135.273 131.906 134.858 131.84 134.393 131.889C133.881 131.943 133.45 132.117 133.103 132.413C132.763 132.699 132.503 133.071 132.352 133.49C132.194 133.917 132.138 134.374 132.188 134.827L132.267 135.573C132.334 136.209 132.5 136.737 132.764 137.157C133.032 137.571 133.374 137.873 133.79 138.064C134.208 138.249 134.675 138.315 135.195 138.26C135.533 138.224 135.833 138.145 136.096 138.02C136.361 137.892 136.585 137.721 136.763 137.507C136.943 137.288 137.072 137.027 137.15 136.724L138.43 136.944C138.343 137.381 138.163 137.777 137.888 138.132C137.613 138.482 137.256 138.772 136.821 138.998C136.386 139.222 135.884 139.363 135.317 139.423ZM145.968 131.514L144.847 131.966C144.747 131.771 144.619 131.591 144.466 131.435C144.295 131.254 144.084 131.116 143.851 131.033C143.598 130.937 143.284 130.91 142.91 130.949C142.397 131.003 141.983 131.167 141.666 131.44C141.353 131.71 141.215 132.025 141.253 132.387C141.287 132.709 141.43 132.952 141.682 133.113C141.934 133.276 142.315 133.392 142.822 133.465L144.097 133.641C144.865 133.745 145.453 133.967 145.859 134.305C146.265 134.639 146.499 135.101 146.561 135.69C146.612 136.172 146.52 136.618 146.283 137.028C146.05 137.437 145.7 137.776 145.233 138.047C144.765 138.319 144.206 138.488 143.555 138.557C142.702 138.647 141.975 138.533 141.375 138.22C140.777 137.906 140.365 137.399 140.141 136.697L141.33 136.262C141.494 136.702 141.749 137.02 142.096 137.212C142.448 137.405 142.887 137.474 143.414 137.418C144.013 137.355 144.475 137.177 144.802 136.884C145.131 136.586 145.276 136.257 145.238 135.895C145.226 135.757 145.186 135.624 145.121 135.503C145.055 135.382 144.964 135.276 144.855 135.192C144.63 135.013 144.303 134.895 143.871 134.842L142.44 134.658C141.653 134.556 141.061 134.333 140.661 133.986C140.263 133.636 140.035 133.171 139.974 132.588C139.924 132.114 140.011 131.679 140.239 131.286C140.484 130.878 140.831 130.541 141.244 130.31C141.721 130.042 142.249 129.878 142.793 129.83C143.621 129.743 144.291 129.858 144.802 130.173C145.317 130.489 145.705 130.936 145.968 131.514ZM151.502 129.025L151.617 130.123L147.277 130.579L147.161 129.482L151.502 129.025ZM148.215 127.33L149.501 127.194L150.345 135.225C150.383 135.59 150.465 135.86 150.589 136.032C150.718 136.199 150.868 136.306 151.042 136.35C151.219 136.39 151.402 136.401 151.591 136.382C151.733 136.367 151.848 136.347 151.937 136.323L152.152 136.256L152.535 137.391C152.238 137.531 151.919 137.617 151.592 137.645C151.228 137.684 150.864 137.643 150.498 137.522C150.135 137.4 149.812 137.183 149.561 136.894C149.302 136.595 149.147 136.201 149.096 135.711L148.215 127.331L148.215 127.33ZM158.986 125.4L160.167 136.632L158.815 136.775L157.634 125.543L158.986 125.401L158.986 125.4ZM163.457 131.163L163.99 136.232L162.704 136.367L161.818 127.941L163.062 127.81L163.2 129.127L163.308 129.115C163.46 128.668 163.721 128.292 164.094 127.991C164.466 127.685 164.969 127.499 165.601 127.433C166.168 127.373 166.677 127.438 167.127 127.627C167.576 127.813 167.944 128.129 168.229 128.576C168.515 129.02 168.696 129.6 168.771 130.316L169.334 135.669L168.046 135.804L167.493 130.539C167.423 129.877 167.198 129.38 166.818 129.046C166.437 128.709 165.949 128.572 165.352 128.635C164.942 128.678 164.584 128.805 164.28 129.019C163.978 129.232 163.753 129.52 163.604 129.883C163.454 130.247 163.406 130.673 163.457 131.163ZM174.441 126.614L174.557 127.712L170.216 128.168L170.101 127.071L174.441 126.614ZM171.154 124.918L172.441 124.783L173.285 132.814C173.323 133.179 173.405 133.449 173.529 133.621C173.639 133.776 173.799 133.889 173.982 133.939C174.159 133.979 174.342 133.99 174.53 133.971C174.672 133.956 174.787 133.936 174.877 133.912L175.09 133.845L175.475 134.98C175.178 135.12 174.858 135.206 174.531 135.234C174.167 135.273 173.804 135.232 173.437 135.111C173.075 134.989 172.752 134.772 172.501 134.483C172.241 134.184 172.087 133.79 172.035 133.3L171.154 124.92L171.154 124.918ZM180.701 134.653C179.894 134.738 179.18 134.631 178.557 134.334C177.935 134.031 177.412 133.554 177.051 132.962C176.67 132.343 176.434 131.603 176.343 130.74C176.252 129.878 176.329 129.1 176.573 128.409C176.819 127.714 177.204 127.153 177.729 126.724C178.257 126.291 178.899 126.035 179.655 125.956C180.092 125.91 180.529 125.938 180.97 126.04C181.411 126.141 181.823 126.338 182.207 126.63C182.59 126.919 182.913 127.321 183.177 127.837C183.441 128.352 183.614 129.003 183.696 129.79L183.754 130.338L177.299 131.017L177.181 129.898L182.328 129.357C182.278 128.882 182.139 128.467 181.91 128.114C181.695 127.769 181.387 127.492 181.022 127.315C180.658 127.136 180.243 127.07 179.778 127.119C179.264 127.173 178.835 127.347 178.488 127.643C178.147 127.929 177.888 128.301 177.735 128.72C177.578 129.147 177.523 129.604 177.573 130.057L177.651 130.802C177.718 131.439 177.883 131.967 178.148 132.387C178.416 132.801 178.758 133.103 179.175 133.294C179.591 133.479 180.059 133.544 180.579 133.49C180.917 133.454 181.218 133.375 181.48 133.25C181.737 133.129 181.965 132.954 182.149 132.737C182.328 132.517 182.457 132.257 182.534 131.954L183.815 132.174C183.73 132.607 183.544 133.015 183.272 133.362C182.996 133.712 182.641 134.002 182.206 134.228C181.735 134.462 181.225 134.606 180.701 134.653ZM186.108 133.906L185.223 125.481L186.465 125.351L186.599 126.624L186.687 126.615C186.798 126.176 187.053 125.788 187.409 125.512C187.784 125.209 188.24 125.024 188.72 124.981C188.814 124.971 188.932 124.961 189.075 124.949C189.217 124.938 189.325 124.932 189.398 124.932L189.536 126.248C189.435 126.238 189.333 126.232 189.232 126.23C189.068 126.221 188.905 126.225 188.742 126.242C188.335 126.285 187.98 126.409 187.679 126.615C187.382 126.809 187.146 127.083 186.996 127.405C186.847 127.728 186.791 128.086 186.834 128.44L187.394 133.771L186.108 133.906ZM195.189 124.434L195.304 125.531L190.789 126.006L190.674 124.908L195.189 124.434ZM192.912 133.192L191.904 123.604C191.853 123.121 191.924 122.707 192.116 122.361C192.307 122.016 192.574 121.744 192.917 121.545C193.259 121.346 193.638 121.223 194.031 121.183C194.347 121.15 194.609 121.149 194.813 121.179C195.019 121.21 195.173 121.242 195.276 121.276L195.023 122.433C194.929 122.413 194.835 122.395 194.741 122.379C194.591 122.358 194.439 122.357 194.288 122.377C193.864 122.421 193.568 122.562 193.401 122.797C193.239 123.032 193.18 123.359 193.224 123.775L194.199 133.057L192.912 133.192ZM200.123 132.633C199.592 132.688 199.1 132.64 198.646 132.483C198.208 132.335 197.819 132.067 197.523 131.709C197.228 131.347 197.052 130.893 196.994 130.345C196.943 129.861 196.997 129.461 197.154 129.141C197.311 128.818 197.539 128.554 197.837 128.349C198.135 128.143 198.471 127.978 198.844 127.854C199.219 127.726 199.599 127.616 199.983 127.523C200.485 127.404 200.892 127.311 201.205 127.246C201.521 127.175 201.747 127.091 201.884 126.991C202.023 126.891 202.082 126.738 202.061 126.529L202.056 126.485C201.999 125.944 201.808 125.538 201.482 125.27C201.16 125.001 200.703 124.897 200.11 124.959C199.495 125.024 199.028 125.209 198.708 125.517C198.387 125.824 198.172 126.139 198.063 126.461L196.795 126.15C196.96 125.616 197.208 125.186 197.542 124.863C197.867 124.544 198.254 124.295 198.679 124.134C199.102 123.971 199.524 123.866 199.947 123.822C200.215 123.794 200.528 123.794 200.884 123.824C201.243 123.85 201.596 123.943 201.944 124.106C202.295 124.27 202.602 124.539 202.861 124.913C203.121 125.29 203.287 125.812 203.357 126.481L203.941 132.033L202.653 132.168L202.533 131.026L202.468 131.033C202.4 131.225 202.276 131.437 202.094 131.666C201.912 131.897 201.659 132.102 201.337 132.284C201.015 132.465 200.61 132.581 200.123 132.633ZM200.197 131.45C200.706 131.397 201.124 131.25 201.452 131.013C201.764 130.797 202.011 130.498 202.166 130.15C202.315 129.813 202.37 129.469 202.333 129.118L202.208 127.935C202.161 128.007 202.047 128.079 201.868 128.154C201.666 128.232 201.46 128.3 201.25 128.357C200.847 128.464 200.442 128.562 200.035 128.651C199.72 128.724 199.414 128.829 199.12 128.963C198.863 129.073 198.638 129.247 198.468 129.47C198.312 129.678 198.253 129.947 198.288 130.277C198.335 130.726 198.536 131.049 198.891 131.244C199.249 131.436 199.684 131.504 200.197 131.45ZM209.709 131.604C208.925 131.686 208.228 131.57 207.622 131.258C207.01 130.939 206.5 130.451 206.152 129.853C205.777 129.231 205.546 128.5 205.458 127.658C205.368 126.803 205.445 126.031 205.689 125.344C205.912 124.686 206.313 124.104 206.846 123.664C207.374 123.231 208.016 122.975 208.772 122.896C209.361 122.834 209.903 122.888 210.398 123.057C210.894 123.227 211.313 123.493 211.656 123.856C211.999 124.22 212.235 124.661 212.363 125.18L211.077 125.315C210.939 124.941 210.685 124.624 210.315 124.363C209.95 124.099 209.484 123.997 208.915 124.056C208.445 124.096 207.998 124.283 207.638 124.59C207.291 124.888 207.037 125.287 206.876 125.784C206.719 126.277 206.674 126.843 206.741 127.478C206.809 128.129 206.969 128.686 207.224 129.148C207.482 129.608 207.812 129.953 208.214 130.18C208.621 130.408 209.078 130.495 209.587 130.441C209.921 130.406 210.219 130.315 210.479 130.169C210.738 130.027 210.96 129.825 211.127 129.58C211.294 129.335 211.401 129.054 211.439 128.759L212.725 128.624C212.708 129.122 212.569 129.607 212.32 130.037C212.071 130.467 211.72 130.827 211.298 131.087C210.857 131.367 210.327 131.539 209.709 131.604ZM218.394 130.691C217.587 130.776 216.873 130.669 216.25 130.372C215.628 130.069 215.105 129.593 214.744 129C214.363 128.382 214.128 127.641 214.037 126.779C213.946 125.916 214.022 125.138 214.265 124.448C214.512 123.753 214.898 123.191 215.422 122.762C215.95 122.33 216.593 122.074 217.348 121.994C217.785 121.948 218.222 121.976 218.663 122.078C219.104 122.179 219.516 122.377 219.899 122.669C220.282 122.957 220.606 123.36 220.87 123.875C221.134 124.391 221.306 125.042 221.389 125.828L221.447 126.377L214.992 127.055L214.874 125.936L220.021 125.396C219.971 124.92 219.832 124.505 219.603 124.152C219.387 123.807 219.08 123.53 218.715 123.353C218.35 123.174 217.935 123.108 217.47 123.157C216.958 123.211 216.528 123.386 216.181 123.681C215.84 123.967 215.58 124.339 215.428 124.758C215.271 125.185 215.215 125.643 215.266 126.095L215.344 126.841C215.411 127.477 215.576 128.006 215.841 128.425C216.109 128.84 216.451 129.142 216.868 129.332C217.284 129.517 217.752 129.583 218.272 129.528C218.61 129.493 218.911 129.413 219.173 129.289C219.429 129.167 219.657 128.992 219.842 128.775C220.02 128.556 220.149 128.296 220.227 127.992L221.508 128.212C221.422 128.649 221.24 129.046 220.965 129.4C220.676 129.763 220.312 130.058 219.899 130.266C219.427 130.5 218.917 130.644 218.394 130.691ZM228.097 129.493L227.994 128.506L231.252 124.059C231.635 123.539 231.948 123.088 232.191 122.708C232.433 122.324 232.605 121.969 232.708 121.644C232.812 121.318 232.847 120.975 232.81 120.635C232.768 120.24 232.638 119.909 232.419 119.638C232.201 119.368 231.913 119.164 231.586 119.05C231.228 118.925 230.847 118.883 230.471 118.928C230.078 118.961 229.701 119.094 229.375 119.316C229.078 119.525 228.858 119.797 228.717 120.133C228.577 120.498 228.529 120.891 228.579 121.279L227.292 121.414C227.222 120.757 227.313 120.163 227.562 119.635C227.812 119.105 228.182 118.674 228.673 118.341C229.187 118.001 229.776 117.794 230.389 117.739C231.044 117.67 231.639 117.749 232.172 117.973C232.688 118.184 233.139 118.529 233.479 118.974C233.816 119.415 234.015 119.925 234.076 120.502C234.119 120.915 234.087 121.327 233.979 121.739C233.875 122.145 233.666 122.608 233.354 123.129C233.044 123.645 232.606 124.284 232.039 125.042L229.815 128.004L229.824 128.092L235.014 127.547L235.141 128.754L228.097 129.493Z" fill="white"/>
<path d="M175.224 146.206L126.972 151.278C124.852 151.501 123.316 153.41 123.54 155.543C123.764 157.676 125.664 159.224 127.784 159.001L176.036 153.929C178.156 153.707 179.693 151.797 179.469 149.665C179.244 147.532 177.344 145.984 175.224 146.206Z" fill="#484848"/>
<path d="M355.723 111.394L314.867 115.688C312.703 115.915 311.134 117.865 311.363 120.042L312.321 129.15C312.549 131.327 314.489 132.907 316.653 132.68L357.509 128.386C359.673 128.158 361.241 126.209 361.013 124.032L360.055 114.924C359.827 112.747 357.887 111.167 355.723 111.394Z" fill="#3E3E3E"/>
<path d="M355.723 111.394L314.867 115.688C312.703 115.915 311.134 117.865 311.363 120.042L312.321 129.15C312.549 131.327 314.489 132.907 316.653 132.68L357.509 128.386C359.673 128.158 361.241 126.209 361.013 124.032L360.055 114.924C359.827 112.747 357.887 111.167 355.723 111.394Z" stroke="#696969" stroke-width="0.945651"/>
<path d="M318.17 127.278L317.449 120.419L319.752 120.177C320.287 120.12 320.735 120.171 321.094 120.33C321.456 120.486 321.736 120.72 321.935 121.03C322.134 121.342 322.255 121.699 322.297 122.103C322.34 122.507 322.296 122.883 322.166 123.23C322.039 123.578 321.816 123.867 321.497 124.099C321.178 124.329 320.753 124.472 320.224 124.528L318.572 124.701L318.495 123.965L320.119 123.795C320.485 123.756 320.772 123.661 320.982 123.511C321.19 123.361 321.333 123.172 321.41 122.944C321.49 122.701 321.516 122.443 321.485 122.189C321.456 121.913 321.379 121.673 321.255 121.468C321.129 121.26 320.94 121.099 320.714 121.01C320.477 120.908 320.174 120.877 319.803 120.916L318.352 121.069L318.995 127.189L318.17 127.276L318.17 127.278ZM324.119 126.653L323.398 119.793L325.701 119.551C326.234 119.495 326.68 119.541 327.042 119.688C327.403 119.833 327.681 120.056 327.879 120.355C328.077 120.655 328.197 121.007 328.239 121.411C328.282 121.814 328.237 122.182 328.106 122.511C327.969 122.848 327.732 123.133 327.427 123.328C327.106 123.54 326.682 123.674 326.154 123.729L324.29 123.925L324.212 123.175L326.048 122.982C326.412 122.943 326.7 122.859 326.91 122.728C327.109 122.614 327.263 122.436 327.348 122.222C327.429 122.012 327.456 121.771 327.427 121.496C327.398 121.221 327.321 120.987 327.198 120.793C327.07 120.595 326.88 120.445 326.659 120.369C326.423 120.277 326.121 120.252 325.752 120.291L324.301 120.444L324.945 126.564L324.119 126.65L324.119 126.653ZM327.004 123.234L329.005 126.139L328.046 126.24L326.072 123.332L327.004 123.234ZM330.218 119.078L330.939 125.936L330.114 126.022L329.394 119.163L330.218 119.077L330.218 119.078ZM332.153 118.874L334.784 124.434L334.863 124.426L336.281 118.44L337.146 118.35L335.363 125.471L334.511 125.56L331.288 118.965L332.153 118.874ZM338.622 125.128L337.756 125.219L339.539 118.098L340.391 118.008L343.614 124.604L342.749 124.694L340.105 119.135L340.052 119.141L338.622 125.128ZM338.66 122.416L342.147 122.049L342.225 122.785L338.737 123.152L338.66 122.416ZM342.863 118.494L342.786 117.756L347.898 117.218L347.976 117.955L345.832 118.181L346.475 124.301L345.649 124.387L345.006 118.27L342.863 118.494ZM349.892 123.943L349.172 117.086L353.285 116.653L353.363 117.39L350.075 117.736L350.318 120.053L353.393 119.73L353.471 120.467L350.396 120.79L350.641 123.12L353.982 122.769L354.06 123.506L349.892 123.943Z" fill="#D8D8D8"/>
</g>
</g>
<g clip-path="url(#clip2_1_438)">
<g clip-path="url(#clip3_1_438)">
<path d="M335.026 32.668L27.2964 27.2966C23.9029 27.2373 21.1042 29.9211 21.0454 33.2909L20.0991 87.5039C20.0403 90.8737 22.7436 93.6535 26.1371 93.7127L333.866 99.0841C337.26 99.1434 340.058 96.4596 340.117 93.0899L341.064 38.8768C341.122 35.507 338.419 32.7272 335.026 32.668Z" fill="#303030"/>
<path d="M335.026 32.668L27.2964 27.2966C23.9029 27.2373 21.1042 29.9211 21.0454 33.2909L20.0991 87.5039C20.0403 90.8737 22.7436 93.6535 26.1371 93.7127L333.866 99.0841C337.26 99.1434 340.058 96.4596 340.117 93.0899L341.064 38.8768C341.122 35.507 338.419 32.7272 335.026 32.668Z" stroke="#484848" stroke-width="0.816439"/>
<path d="M63.8456 44.1332L44.7754 43.8004C40.5788 43.7271 37.1179 47.046 37.0452 51.2134L36.7146 70.1509C36.6419 74.3182 39.9849 77.7559 44.1814 77.8292L63.2517 78.162C67.4482 78.2353 70.9092 74.9164 70.9819 70.749L71.3125 51.8115C71.3852 47.6442 68.0422 44.2065 63.8456 44.1332Z" fill="#303B32"/>
<path d="M63.8456 44.1332L44.7754 43.8004C40.5788 43.7271 37.1179 47.046 37.0452 51.2134L36.7146 70.1509C36.6419 74.3182 39.9849 77.7559 44.1814 77.8292L63.2517 78.162C67.4482 78.2353 70.9092 74.9164 70.9819 70.749L71.3125 51.8115C71.3852 47.6442 68.0422 44.2065 63.8456 44.1332Z" stroke="#2E5235" stroke-width="1.00983"/>
<path d="M60.2397 58.0238L52.5221 57.8891C52.1127 57.882 51.7173 58.0366 51.4228 58.319C51.1283 58.6014 50.9589 58.9884 50.9518 59.395L50.818 67.0589C50.8109 67.4654 50.9667 67.8581 51.2512 68.1506C51.5356 68.4431 51.9254 68.6114 52.3348 68.6186L60.0524 68.7533C60.4618 68.7604 60.8572 68.6058 61.1517 68.3234C61.4462 68.041 61.6156 67.654 61.6227 67.2475L61.7565 59.5836C61.7636 59.177 61.6077 58.7843 61.3233 58.4918C61.0388 58.1993 60.6491 58.031 60.2397 58.0238Z" stroke="#A2CEAD" stroke-width="1.09884" stroke-linecap="round" stroke-linejoin="round"/>
<path d="M47.7866 63.9395C46.9377 63.9247 46.2551 63.2228 46.2698 62.3798L46.4036 54.7159C46.4183 53.8729 47.125 53.1952 47.9739 53.21L55.6915 53.3448C56.5405 53.3596 57.223 54.0615 57.2083 54.9045" stroke="#A2CEAD" stroke-width="1.09884" stroke-linecap="square" stroke-linejoin="round"/>
<path d="M85.8739 47.5951L85.8948 46.3985L94.3137 46.5454L94.2928 47.7421L90.7625 47.6805L90.5888 57.6315L89.2305 57.6077L89.4042 47.6579L85.875 47.5963L85.8739 47.5951ZM98.3476 57.941C97.5362 57.9269 96.8403 57.7362 96.2577 57.3701C95.6772 56.9982 95.2164 56.4686 94.93 55.8443C94.6271 55.1929 94.4825 54.4391 94.4975 53.5829C94.5124 52.7268 94.6833 51.9741 95.0089 51.327C95.3379 50.6757 95.79 50.1721 96.362 49.8152C96.9385 49.4551 97.6065 49.2817 98.3673 49.295C98.8061 49.3026 99.237 49.3824 99.6623 49.5355C100.088 49.6875 100.472 49.9308 100.818 50.2632C101.162 50.5923 101.435 51.0252 101.633 51.562C101.833 52.1 101.925 52.7576 101.912 53.5382L101.902 54.0824L95.4127 53.9691L95.4321 52.8589L100.606 52.9492C100.622 52.5116 100.532 52.0766 100.343 51.6808C100.171 51.3168 99.8993 51.0083 99.5587 50.791C99.2185 50.5715 98.8146 50.4571 98.3472 50.4489C97.8312 50.4399 97.3835 50.5592 97.0031 50.8066C96.6304 51.0461 96.3279 51.3789 96.126 51.7715C95.9179 52.1704 95.8067 52.6121 95.8013 53.0614L95.7884 53.8015C95.7774 54.4332 95.8783 54.9705 96.0889 55.4134C96.3041 55.8519 96.607 56.189 96.9977 56.4258C97.3885 56.6572 97.8452 56.7779 98.3678 56.7871C98.7073 56.793 99.0158 56.7513 99.2909 56.6608C99.5704 56.5671 99.8133 56.4268 100.017 56.2387C100.221 56.0451 100.381 55.8059 100.495 55.5166L101.739 55.8876C101.6 56.3057 101.373 56.672 101.056 56.9862C100.741 57.2961 100.352 57.5368 99.8924 57.7062C99.4329 57.8734 98.9176 57.951 98.3476 57.941ZM109.882 51.4771L108.714 51.7842C108.639 51.5809 108.533 51.39 108.401 51.218C108.253 51.0202 108.061 50.86 107.839 50.7504C107.598 50.6258 107.291 50.5612 106.916 50.5547C106.4 50.5457 105.969 50.6565 105.621 50.8858C105.277 51.112 105.102 51.4047 105.096 51.7638C105.09 52.0835 105.203 52.3384 105.433 52.5275C105.664 52.7166 106.027 52.8774 106.521 53.0087L107.766 53.3359C108.516 53.5297 109.071 53.8176 109.434 54.1974C109.797 54.5739 109.973 55.0545 109.962 55.6391C109.954 56.1175 109.808 56.5432 109.523 56.9161C109.243 57.289 108.854 57.579 108.357 57.7883C107.86 57.9986 107.284 58.097 106.631 58.0856C105.771 58.0706 105.064 57.8721 104.507 57.4933C103.951 57.1134 103.605 56.5663 103.466 55.8521L104.7 55.5691C104.809 56.0201 105.024 56.3622 105.346 56.5924C105.67 56.8236 106.098 56.9439 106.628 56.9531C107.231 56.9637 107.711 56.845 108.071 56.5972C108.434 56.3451 108.618 56.0406 108.624 55.6803C108.629 55.5443 108.606 55.4087 108.556 55.2821C108.505 55.1556 108.428 55.041 108.33 54.9458C108.129 54.743 107.817 54.5886 107.395 54.4838L105.997 54.1319C105.229 53.9378 104.668 53.6466 104.313 53.2592C103.962 52.8676 103.79 52.3849 103.8 51.8069C103.809 51.3361 103.949 50.9202 104.222 50.5624C104.515 50.1924 104.9 49.9046 105.34 49.7277C105.845 49.5227 106.388 49.4262 106.934 49.4445C107.767 49.4591 108.419 49.6511 108.887 50.0229C109.359 50.3937 109.691 50.8791 109.882 51.4771ZM115.676 49.7055L115.657 50.7938L111.295 50.7177L111.314 49.6294L115.676 49.7055ZM112.62 47.648L113.914 47.6706L113.775 55.641C113.769 56.0023 113.817 56.277 113.92 56.4595C114.027 56.6387 114.162 56.7616 114.33 56.8258C114.501 56.8869 114.681 56.9196 114.871 56.9229C115.014 56.9254 115.13 56.9198 115.222 56.9071L115.442 56.8672L115.685 58.0257C115.374 58.1272 115.046 58.173 114.718 58.1611C114.347 58.1535 113.982 58.0672 113.647 57.908C113.302 57.7454 113.008 57.4941 112.794 57.1801C112.573 56.8565 112.466 56.4516 112.475 55.9655L112.62 47.648ZM123.547 47.0557L123.353 58.2034L121.993 58.1796L122.188 47.032L123.547 47.0557ZM127.284 53.2408L127.196 58.2704L125.903 58.2479L126.049 49.8866L127.298 49.9084L127.275 51.2145L127.386 51.2165C127.59 50.7962 127.895 50.4598 128.302 50.2096C128.709 49.9549 129.229 49.8337 129.866 49.8448C130.436 49.8547 130.933 49.9795 131.356 50.2191C131.779 50.4554 132.106 50.8093 132.335 51.281C132.565 51.7504 132.673 52.3404 132.661 53.051L132.568 58.3642L131.275 58.3416L131.366 53.116C131.377 52.4591 131.214 51.9448 130.878 51.572C130.54 51.196 130.071 51.0027 129.473 50.9922C129.06 50.985 128.688 51.0673 128.361 51.239C128.036 51.4118 127.778 51.6669 127.586 52.0041C127.392 52.3424 127.293 52.7546 127.284 53.2408ZM138.739 50.1081L138.72 51.1964L134.357 51.1202L134.376 50.0319L138.739 50.1081ZM135.683 48.0506L136.977 48.0732L136.838 56.0436C136.831 56.4049 136.88 56.6795 136.982 56.862C137.072 57.0276 137.217 57.1571 137.393 57.2284C137.563 57.2894 137.743 57.3221 137.934 57.3255C138.076 57.3279 138.193 57.3223 138.285 57.3097L138.505 57.2697L138.748 58.4283C138.436 58.5297 138.109 58.5755 137.781 58.5636C137.41 58.556 137.045 58.4698 136.71 58.3106C136.365 58.1484 136.07 57.8969 135.857 57.5827C135.635 57.2591 135.529 56.8542 135.537 56.3681L135.683 48.0506ZM143.976 58.7375C143.165 58.7233 142.468 58.5326 141.886 58.1665C141.305 57.795 140.844 57.2653 140.558 56.6408C140.255 55.9894 140.111 55.2355 140.126 54.3794C140.141 53.5232 140.312 52.7705 140.637 52.1235C140.966 51.4721 141.417 50.9686 141.99 50.6117C142.567 50.2516 143.235 50.0782 143.996 50.0914C144.433 50.0991 144.865 50.1789 145.291 50.332C145.716 50.484 146.101 50.7272 146.446 51.0596C146.791 51.3887 147.063 51.8217 147.261 52.3585C147.46 52.8964 147.554 53.554 147.54 54.3347L147.531 54.8788L141.04 54.7655L141.059 53.6553L146.235 53.7457C146.243 53.2738 146.154 52.8517 145.971 52.4772C145.799 52.113 145.527 51.8046 145.186 51.5874C144.847 51.3679 144.443 51.2536 143.976 51.2454C143.46 51.2364 143.012 51.3556 142.631 51.603C142.258 51.8419 141.955 52.1749 141.753 52.5679C141.546 52.9669 141.435 53.4087 141.43 53.8578L141.417 54.5979C141.406 55.2297 141.506 55.7669 141.717 56.2098C141.932 56.6483 142.235 56.9855 142.626 57.2223C143.017 57.4536 143.474 57.5744 143.996 57.5835C144.336 57.5894 144.644 57.5477 144.919 57.4572C145.199 57.3636 145.441 57.2232 145.645 57.0351C145.85 56.8416 146.009 56.6023 146.124 56.313L147.368 56.6841C147.228 57.1022 147.001 57.4684 146.685 57.7827C146.368 58.0925 145.98 58.3333 145.521 58.5027C145.025 58.6747 144.501 58.7543 143.976 58.7375ZM149.433 58.6575L149.579 50.2973L150.828 50.3191L150.806 51.5826L150.895 51.5841C151.055 51.1729 151.339 50.8417 151.745 50.5914C152.154 50.34 152.629 50.2139 153.111 50.2286C153.207 50.2303 153.325 50.2346 153.467 50.2403C153.61 50.2461 153.718 50.2535 153.791 50.2624L153.768 51.5685C153.668 51.5464 153.568 51.5282 153.467 51.514C153.306 51.4851 153.143 51.4694 152.98 51.4672C152.571 51.46 152.203 51.539 151.879 51.7042C151.561 51.8583 151.293 52.098 151.106 52.396C150.918 52.694 150.819 53.0384 150.819 53.3898L150.727 58.6812L149.433 58.6575ZM159.599 50.4722L159.58 51.5605L155.041 51.4812L155.06 50.393L159.599 50.4722ZM156.273 58.778L156.439 49.2638C156.448 48.7843 156.568 48.3867 156.8 48.0709C157.033 47.7563 157.331 47.5217 157.696 47.3681C158.059 47.2152 158.451 47.1407 158.845 47.1494C159.163 47.155 159.423 47.1847 159.622 47.2397C159.822 47.2935 159.971 47.3432 160.07 47.3877L159.677 48.4924C159.587 48.4613 159.496 48.4323 159.405 48.4055C159.258 48.3663 159.107 48.3471 158.956 48.3484C158.528 48.3409 158.217 48.4428 158.024 48.6541C157.834 48.8644 157.735 49.1769 157.727 49.5908L157.567 58.8006L156.273 58.778ZM163.498 59.1001C162.966 59.0908 162.482 58.9816 162.051 58.7748C161.634 58.5765 161.281 58.267 161.03 57.8808C160.781 57.491 160.661 57.0245 160.671 56.4804C160.679 56.0009 160.782 55.615 160.977 55.3205C161.172 55.0227 161.43 54.7918 161.751 54.6265C162.071 54.4613 162.424 54.3404 162.809 54.2639C163.199 54.1831 163.589 54.1209 163.981 54.0762C164.493 54.0206 164.91 53.9786 165.228 53.9524C165.551 53.9207 165.785 53.8657 165.932 53.7839C166.084 53.7034 166.161 53.5601 166.165 53.3532L166.166 53.3094C166.175 52.773 166.035 52.3521 165.743 52.0503C165.456 51.7474 165.016 51.5907 164.419 51.5803C163.802 51.5696 163.315 51.6947 162.96 51.9579C162.605 52.22 162.353 52.5025 162.205 52.8044L160.985 52.3483C161.213 51.8431 161.512 51.4529 161.883 51.1768C162.243 50.9027 162.657 50.706 163.098 50.599C163.522 50.4922 163.959 50.4409 164.396 50.4464C164.666 50.4511 164.976 50.4894 165.326 50.5612C165.679 50.6298 166.018 50.7639 166.343 50.9656C166.673 51.1685 166.943 51.4689 167.156 51.8668C167.368 52.267 167.468 52.7988 167.457 53.4623L167.36 58.9715L166.067 58.9489L166.087 57.8169L166.022 57.8157C165.931 57.9948 165.78 58.1872 165.573 58.3894C165.364 58.5939 165.089 58.7643 164.747 58.904C164.405 59.0426 163.989 59.1087 163.498 59.1001ZM163.716 57.9496C164.227 57.9585 164.661 57.8654 165.015 57.6722C165.352 57.4984 165.633 57.2358 165.829 56.9132C166.017 56.6011 166.114 56.271 166.12 55.9217L166.141 54.7459C166.084 54.8106 165.963 54.8687 165.776 54.9202C165.565 54.9729 165.352 55.0146 165.137 55.0448C164.725 55.1007 164.311 55.1478 163.896 55.1864C163.559 55.2243 163.244 55.2889 162.95 55.3823C162.681 55.4589 162.437 55.6028 162.24 55.8003C162.061 55.9856 161.97 56.2413 161.964 56.5687C161.956 57.0143 162.116 57.3544 162.445 57.589C162.777 57.8204 163.201 57.9406 163.716 57.9496ZM173.139 59.2465C172.35 59.2327 171.674 59.0348 171.11 58.6558C170.541 58.2698 170.095 57.7315 169.822 57.1034C169.525 56.4477 169.385 55.7038 169.4 54.8685C169.414 54.02 169.585 53.2727 169.911 52.629C170.212 52.0118 170.681 51.4903 171.264 51.1226C171.84 50.7625 172.508 50.5891 173.268 50.6024C173.86 50.6127 174.392 50.7315 174.863 50.9566C175.334 51.1828 175.718 51.4939 176.015 51.8912C176.311 52.2884 176.492 52.7493 176.555 53.2728L175.262 53.2503C175.169 52.8675 174.956 52.5265 174.621 52.2261C174.29 51.9235 173.84 51.7667 173.27 51.7567C172.766 51.7479 172.322 51.8716 171.937 52.1255C171.556 52.3762 171.255 52.7357 171.036 53.2039C170.819 53.6688 170.705 54.2166 170.694 54.8472C170.682 55.4932 170.775 56.0577 170.972 56.5408C171.172 57.0229 171.457 57.4003 171.829 57.6718C172.205 57.9434 172.648 58.0836 173.159 58.0925C173.473 58.102 173.786 58.0478 174.079 57.9334C174.353 57.8254 174.598 57.6545 174.793 57.4347C174.988 57.2148 175.129 56.9523 175.202 56.6683L176.496 56.6909C176.419 57.1763 176.221 57.635 175.922 58.026C175.622 58.417 175.23 58.728 174.779 58.9312C174.308 59.153 173.761 59.2574 173.139 59.2465ZM181.871 59.3989C181.06 59.3848 180.363 59.1941 179.781 58.828C179.201 58.4562 178.74 57.9266 178.454 57.3023C178.151 56.6508 178.006 55.897 178.021 55.0408C178.036 54.1847 178.207 53.432 178.532 52.785C178.861 52.1336 179.312 51.63 179.886 51.2731C180.462 50.913 181.13 50.7396 181.891 50.7529C182.329 50.7605 182.761 50.8404 183.186 50.9934C183.611 51.1454 183.996 51.3887 184.341 51.7211C184.686 52.0502 184.959 52.4831 185.158 53.02C185.356 53.5579 185.449 54.2155 185.435 54.9961L185.426 55.5403L178.936 55.427L178.956 54.3168L184.13 54.4071C184.145 53.9695 184.055 53.5345 183.866 53.1387C183.694 52.7745 183.422 52.466 183.081 52.2489C182.742 52.0294 182.338 51.915 181.871 51.9069C181.355 51.8978 180.907 52.0171 180.527 52.2645C180.154 52.5038 179.851 52.8366 179.648 53.2294C179.441 53.6284 179.33 54.0701 179.325 54.5193L179.312 55.2594C179.301 55.8911 179.401 56.4284 179.612 56.8713C179.828 57.3098 180.131 57.6469 180.521 57.8837C180.912 58.1151 181.369 58.2358 181.891 58.245C182.231 58.2509 182.539 58.2092 182.814 58.1187C183.094 58.025 183.336 57.8847 183.54 57.6966C183.745 57.503 183.905 57.2638 184.019 56.9745L185.263 57.3455C185.123 57.7637 184.896 58.1299 184.58 58.4441C184.264 58.754 183.876 58.9947 183.416 59.1641C182.92 59.3362 182.396 59.4158 181.871 59.3989ZM195.789 48.3167L195.594 59.4643L194.235 59.4406L194.405 49.7075L194.338 49.7063L191.566 51.465L191.59 50.0942L194.429 48.293L195.789 48.3167Z" fill="white"/>
<path d="M166.08 69.9008L88.7792 68.5515C86.5615 68.5128 84.7326 70.2667 84.6942 72.4688C84.6557 74.671 86.4223 76.4876 88.64 76.5263L165.941 77.8756C168.159 77.9143 169.987 76.1605 170.026 73.9583C170.064 71.7561 168.298 69.9395 166.08 69.9008Z" fill="#484848"/>
<path d="M320.525 57.1997L283.861 56.5597C281.685 56.5218 279.891 58.2424 279.854 60.4028L279.696 69.4408C279.658 71.6012 281.391 73.3834 283.567 73.4214L320.231 74.0614C322.407 74.0994 324.201 72.3787 324.239 70.2183L324.396 61.1803C324.434 59.0199 322.701 57.2377 320.525 57.1997Z" fill="#2E5235" fill-opacity="0.3"/>
<path d="M320.525 57.1997L283.861 56.5597C281.685 56.5218 279.891 58.2424 279.854 60.4028L279.696 69.4408C279.658 71.6012 281.391 73.3834 283.567 73.4214L320.231 74.0614C322.407 74.0994 324.201 72.3787 324.239 70.2183L324.396 61.1803C324.434 59.0199 322.701 57.2377 320.525 57.1997Z" stroke="#3A523E" stroke-width="0.939509"/>
<path d="M285.729 68.3117L285.848 61.5062L288.163 61.5466C288.702 61.556 289.139 61.66 289.477 61.8587C289.817 62.0551 290.067 62.318 290.226 62.646C290.386 62.9752 290.461 63.3401 290.454 63.7408C290.447 64.1415 290.359 64.5047 290.188 64.8291C290.019 65.1547 289.764 65.412 289.418 65.6009C289.073 65.7877 288.635 65.8764 288.101 65.8671L286.442 65.8381L286.455 65.1068L288.088 65.1353C288.456 65.1417 288.752 65.0834 288.977 64.9613C289.203 64.8393 289.367 64.6713 289.471 64.4585C289.578 64.2424 289.634 63.9992 289.639 63.7266C289.647 63.4745 289.599 63.2236 289.497 62.9925C289.399 62.7736 289.23 62.5931 289.017 62.4793C288.795 62.3516 288.497 62.284 288.124 62.2775L286.666 62.252L286.56 68.3262L285.729 68.3117ZM296.327 61.6891L297.156 61.7036L297.077 66.2099C297.069 66.6752 296.951 67.0883 296.724 67.4501C296.496 67.8131 296.169 68.1055 295.782 68.2945C295.379 68.4955 294.909 68.5913 294.372 68.582C293.834 68.5726 293.367 68.4604 292.972 68.2454C292.591 68.0422 292.275 67.7388 292.056 67.3686C291.841 66.9869 291.736 66.554 291.751 66.117L291.829 61.6106L292.66 61.6251L292.582 66.0647C292.576 66.3964 292.644 66.6944 292.787 66.9553C292.929 67.2152 293.136 67.4214 293.405 67.575C293.677 67.7254 294.004 67.8045 294.386 67.8112C294.767 67.8179 295.096 67.7502 295.373 67.6094C295.65 67.4653 295.863 67.2664 296.012 67.0116C296.164 66.7558 296.243 66.4604 296.249 66.1287L296.327 61.6891ZM298.694 68.538L298.813 61.7325L301.208 61.7743C301.686 61.7826 302.078 61.8716 302.386 62.0413C302.693 62.2087 302.92 62.4306 303.067 62.7081C303.213 62.9833 303.284 63.2868 303.278 63.6186C303.273 63.9109 303.217 64.1519 303.109 64.3406C303.01 64.5216 302.867 64.6748 302.692 64.7857C302.523 64.8934 302.338 64.973 302.143 65.0214L302.142 65.0871C302.351 65.105 302.561 65.182 302.77 65.3182C302.979 65.4554 303.154 65.649 303.293 65.899C303.43 66.15 303.497 66.4545 303.491 66.8136C303.485 67.1541 303.401 67.4604 303.241 67.7292C303.079 68.0002 302.829 68.2116 302.49 68.3644C302.15 68.5184 301.71 68.5907 301.17 68.5813L298.694 68.538ZM299.537 67.8212L301.183 67.8499C301.725 67.8594 302.112 67.7621 302.343 67.558C302.454 67.4649 302.544 67.3489 302.606 67.218C302.668 67.0871 302.7 66.9444 302.701 66.7998C302.705 66.5699 302.649 66.3554 302.535 66.1584C302.417 65.9564 302.245 65.7904 302.038 65.6789C301.801 65.5498 301.535 65.4829 301.265 65.4847L299.578 65.4552L299.537 67.8212ZM299.591 64.7381L301.13 64.765C301.38 64.7693 301.606 64.724 301.808 64.63C302.005 64.5426 302.174 64.4031 302.297 64.2268C302.423 64.0439 302.49 63.8274 302.489 63.6059C302.494 63.4643 302.47 63.3232 302.419 63.1912C302.367 63.0592 302.288 62.9391 302.188 62.8384C301.982 62.6245 301.651 62.5136 301.196 62.5057L299.63 62.4783L299.591 64.7381ZM304.823 68.645L304.942 61.8395L305.771 61.8539L305.665 67.9281L308.851 67.9837L308.838 68.7151L304.823 68.645ZM311.072 61.9465L310.953 68.752L310.123 68.7375L310.241 61.932L311.072 61.9465ZM318.212 64.199L317.383 64.1846C317.305 63.7481 317.061 63.3581 316.701 63.095C316.53 62.9673 316.338 62.8695 316.134 62.8058C315.922 62.7396 315.702 62.7044 315.48 62.7013C315.065 62.6941 314.687 62.7926 314.348 62.9948C313.994 63.2132 313.711 63.5274 313.531 63.9005C313.328 64.3021 313.221 64.7986 313.211 65.3876C313.2 65.9766 313.29 66.4754 313.479 66.885C313.67 67.2936 313.932 67.6048 314.263 67.8187C314.596 68.0325 314.97 68.1442 315.385 68.1515C315.613 68.1554 315.832 68.1275 316.042 68.0698C316.253 68.0111 316.445 67.9235 316.619 67.8039C316.987 67.5519 317.244 67.1703 317.338 66.7366L318.167 66.7511C318.106 67.079 317.985 67.3931 317.81 67.678C317.478 68.2151 316.957 68.6109 316.348 68.7892C316.042 68.8836 315.717 68.9283 315.371 68.9222C314.787 68.912 314.27 68.7606 313.82 68.4691C313.36 68.1662 312.995 67.7408 312.767 67.2417C312.515 66.7138 312.395 66.0918 312.408 65.3736C312.42 64.6565 312.561 64.038 312.832 63.5192C313.102 63.0015 313.467 62.6049 313.927 62.3292C314.4 62.0501 314.943 61.9117 315.493 61.9306C315.839 61.9366 316.163 61.9926 316.465 62.0976C316.769 62.2025 317.042 62.3529 317.283 62.5499C317.526 62.7458 317.727 62.9815 317.887 63.2592C318.047 63.5347 318.156 63.8476 318.212 64.199Z" fill="#A2CEAD"/>
</g>
</g>
<defs>
<clipPath id="clip0_1_438">
<rect width="321.984" height="69.8923" fill="white" transform="translate(53.42 116.6) rotate(-5.99997)"/>
</clipPath>
<clipPath id="clip1_1_438">
<rect width="321.984" height="69.8923" fill="white" transform="translate(53.42 116.6) rotate(-5.99997)"/>
</clipPath>
<clipPath id="clip2_1_438">
<rect width="321.989" height="67.8903" fill="white" transform="translate(20.32 26.2001) rotate(0.999999)"/>
</clipPath>
<clipPath id="clip3_1_438">
<rect width="321.989" height="67.8903" fill="white" transform="translate(20.32 26.2001) rotate(0.999999)"/>
</clipPath>
</defs>
</svg>
