<svg width="342" height="179" viewBox="0 0 342 179" fill="none" xmlns="http://www.w3.org/2000/svg">
<g opacity="0.5" clip-path="url(#clip0_1_564)">
<g clip-path="url(#clip1_1_564)">
<path d="M321.187 112.197H19.8637C16.5787 112.197 13.9157 114.856 13.9157 118.137V156.145C13.9157 159.426 16.5787 162.085 19.8637 162.085H321.187C324.472 162.085 327.135 159.426 327.135 156.145V118.137C327.135 114.856 324.472 112.197 321.187 112.197Z" fill="#303030"/>
<path d="M46.7413 124.898H30.9215C28.519 124.898 26.5713 126.843 26.5713 129.242V145.039C26.5713 147.438 28.519 149.383 30.9215 149.383H46.7413C49.1438 149.383 51.0915 147.438 51.0915 145.039V129.242C51.0915 126.843 49.1438 124.898 46.7413 124.898Z" fill="#484848"/>
<path fill-rule="evenodd" clip-rule="evenodd" d="M37.4467 131.81V134.969H40.2141V131.81H41.4012V134.969H43.3789V136.153H41.4004V138.128H43.3781V139.313H41.4004V142.472H40.2141V139.313H37.4459V142.472H36.2588V139.313H34.2819V138.128H36.2588V136.153H34.2819V134.969H36.2588V131.81H37.4467ZM37.4467 136.153V138.128H40.2141V136.153H37.4467Z" fill="white"/>
<path d="M46.7413 124.898H30.9215C28.519 124.898 26.5713 126.843 26.5713 129.242V145.039C26.5713 147.438 28.519 149.383 30.9215 149.383H46.7413C49.1438 149.383 51.0915 147.438 51.0915 145.039V129.242C51.0915 126.843 49.1438 124.898 46.7413 124.898Z" stroke="#585858" stroke-width="0.790021"/>
<path d="M67.5838 134.81C67.5838 135.921 66.9256 136.427 66.1786 136.68V136.705C67.1278 136.869 67.9382 137.59 67.9382 138.942C67.9382 140.61 66.7488 141.571 64.8758 141.571H60.9775V132.534H64.622C66.4696 132.534 67.5838 133.407 67.5838 134.81ZM62.1162 136.313H64.7997C66.0906 136.313 66.4451 135.758 66.4451 134.936C66.4451 134.115 65.9637 133.546 64.9257 133.546H62.1162V136.313ZM62.1162 137.325V140.559H64.9892C66.4443 140.559 66.7987 139.789 66.7987 138.942C66.7987 137.969 66.1913 137.325 65.2421 137.325H62.1162ZM73.248 135.126H74.2606V141.571H73.248V140.8H73.2226C72.8808 141.254 72.1973 141.748 71.0966 141.748C69.9191 141.748 68.9318 141.103 68.9318 139.624V135.126H69.9444V139.371C69.9444 140.205 70.337 140.863 71.3496 140.863C72.4883 140.863 73.248 140.142 73.248 139.144V135.126ZM76.289 133.875C76.0107 133.875 75.6562 133.659 75.6562 133.268C75.6562 132.876 76.0107 132.661 76.289 132.661C76.58 132.661 76.9218 132.876 76.9218 133.268C76.9218 133.659 76.5808 133.875 76.289 133.875ZM75.7831 135.126H76.7949V141.571H75.7831V135.126ZM78.2278 132.535H79.2404V141.57H78.2278V132.535ZM85.2678 132.535H86.2804V141.57H85.2678V140.775H85.2424C84.8634 141.267 84.2552 141.748 83.218 141.748C81.5979 141.748 80.3078 140.471 80.3078 138.348C80.3078 136.226 81.5979 134.948 83.218 134.948C84.2552 134.948 84.8634 135.404 85.2424 135.96H85.2678V132.535ZM83.3195 140.863C84.5216 140.863 85.2678 139.865 85.2678 138.348C85.2678 136.831 84.5216 135.833 83.3195 135.833C81.9904 135.833 81.3196 137.084 81.3196 138.348C81.3196 139.611 81.9904 140.863 83.3195 140.863ZM91.1017 135.454H89.9614C89.9614 133.849 91.0121 132.662 93.1761 132.662C94.6692 132.662 95.9856 133.533 95.9856 135.075C95.9856 135.998 95.5296 136.579 94.6439 136.933V136.958C95.8841 137.298 96.302 138.095 96.302 139.119C96.302 140.837 95.0744 141.748 93.2015 141.748C90.974 141.748 89.7338 140.585 89.7338 138.614H90.8725C90.8725 139.877 91.4545 140.736 93.1126 140.736C94.6185 140.736 95.1633 140.168 95.1633 139.119C95.1633 137.754 94.1633 137.514 93.3156 137.514H92.3799V136.503H93.2657C94.1641 136.503 94.8477 136.086 94.8477 135.075C94.8477 134.367 94.3663 133.672 93.1769 133.672C91.468 133.672 91.1017 134.595 91.1017 135.454Z" fill="white"/>
<path d="M150.072 129.408H149.166C149.074 128.93 148.801 128.507 148.403 128.226C148.214 128.089 148.003 127.986 147.778 127.92C147.546 127.851 147.305 127.817 147.063 127.818C146.61 127.818 146.2 127.932 145.832 128.161C145.467 128.389 145.177 128.726 144.959 129.17C144.745 129.615 144.638 130.161 144.638 130.808C144.638 131.455 144.745 132 144.959 132.444C145.177 132.889 145.467 133.227 145.832 133.455C146.2 133.684 146.61 133.798 147.063 133.798C147.311 133.798 147.55 133.764 147.778 133.696C148.008 133.627 148.215 133.527 148.403 133.393C148.799 133.109 149.072 132.685 149.166 132.208H150.072C150.011 132.569 149.885 132.916 149.7 133.232C149.519 133.533 149.295 133.791 149.027 134.002C148.757 134.212 148.452 134.374 148.126 134.479C147.783 134.591 147.424 134.646 147.063 134.643C146.425 134.643 145.858 134.488 145.361 134.176C144.865 133.866 144.474 133.424 144.189 132.85C143.905 132.276 143.762 131.596 143.762 130.808C143.762 130.02 143.905 129.34 144.189 128.766C144.474 128.192 144.865 127.75 145.361 127.438C145.858 127.127 146.425 126.971 147.063 126.971C147.441 126.971 147.794 127.027 148.126 127.136C148.459 127.245 148.76 127.405 149.027 127.617C149.295 127.826 149.519 128.081 149.7 128.383C149.88 128.682 150.003 129.024 150.072 129.408ZM151.418 134.541V128.941H152.251V129.787H152.309C152.412 129.51 152.597 129.285 152.865 129.112C153.134 128.939 153.449 128.849 153.77 128.853C153.834 128.853 153.912 128.854 154.007 128.857C154.102 128.859 154.174 128.863 154.223 128.868V129.743C154.156 129.729 154.089 129.718 154.021 129.71C153.914 129.693 153.806 129.684 153.697 129.685C153.424 129.685 153.181 129.742 152.967 129.856C152.76 129.964 152.585 130.125 152.462 130.323C152.341 130.519 152.28 130.744 152.28 130.997V134.541H151.418ZM157.425 134.658C156.885 134.658 156.419 134.54 156.027 134.3C155.636 134.059 155.322 133.71 155.124 133.295C154.915 132.862 154.81 132.359 154.81 131.785C154.81 131.212 154.915 130.706 155.124 130.268C155.318 129.85 155.624 129.494 156.009 129.24C156.388 128.992 156.831 128.868 157.338 128.868C157.629 128.868 157.918 128.917 158.203 129.013C158.487 129.111 158.747 129.269 158.981 129.488C159.215 129.704 159.4 129.991 159.539 130.348C159.678 130.706 159.748 131.146 159.748 131.668V132.033H155.424V131.288H158.871C158.871 130.973 158.808 130.691 158.681 130.443C158.563 130.201 158.378 129.997 158.148 129.856C157.904 129.708 157.623 129.634 157.338 129.641C156.994 129.641 156.697 129.726 156.446 129.896C156.201 130.061 156.003 130.287 155.873 130.553C155.739 130.822 155.67 131.12 155.672 131.421V131.916C155.672 132.339 155.745 132.698 155.891 132.992C156.04 133.284 156.246 133.506 156.508 133.659C156.771 133.81 157.077 133.886 157.425 133.886C157.652 133.886 157.856 133.854 158.039 133.791C158.223 133.725 158.383 133.627 158.517 133.498C158.655 133.36 158.761 133.193 158.827 133.01L159.659 133.243C159.572 133.525 159.425 133.774 159.218 133.988C159.001 134.206 158.739 134.375 158.451 134.483C158.123 134.604 157.775 134.664 157.425 134.658ZM162.708 134.673C162.375 134.677 162.045 134.609 161.741 134.472C161.461 134.344 161.222 134.141 161.051 133.886C160.881 133.627 160.795 133.316 160.795 132.951C160.795 132.631 160.858 132.371 160.985 132.171C161.112 131.969 161.281 131.812 161.493 131.698C161.705 131.583 161.938 131.498 162.194 131.442C162.452 131.383 162.712 131.337 162.972 131.303C163.313 131.26 163.589 131.227 163.8 131.205C164.014 131.181 164.171 131.141 164.268 131.085C164.368 131.029 164.418 130.931 164.418 130.793V130.764C164.418 130.404 164.319 130.124 164.122 129.925C163.927 129.726 163.631 129.626 163.235 129.626C162.823 129.626 162.501 129.717 162.267 129.896C162.034 130.076 161.869 130.268 161.774 130.472L160.956 130.181C161.102 129.84 161.297 129.575 161.54 129.386C161.786 129.194 162.054 129.06 162.344 128.985C162.625 128.908 162.914 128.869 163.206 128.868C163.386 128.868 163.593 128.89 163.827 128.933C164.062 128.975 164.29 129.061 164.509 129.192C164.731 129.324 164.914 129.522 165.06 129.786C165.206 130.052 165.279 130.406 165.279 130.851V134.541H164.418V133.783H164.374C164.298 133.928 164.2 134.06 164.082 134.173C163.925 134.325 163.74 134.445 163.538 134.527C163.311 134.624 163.035 134.673 162.708 134.673ZM162.84 133.9C163.181 133.9 163.468 133.833 163.702 133.699C163.916 133.583 164.095 133.412 164.221 133.204C164.347 132.996 164.415 132.757 164.418 132.514V131.726C164.381 131.771 164.301 131.81 164.177 131.847C164.037 131.884 163.896 131.915 163.753 131.938C163.479 131.98 163.204 132.017 162.928 132.048C162.715 132.075 162.504 132.122 162.3 132.19C162.107 132.253 161.952 132.349 161.832 132.478C161.716 132.604 161.657 132.777 161.657 132.996C161.657 133.294 161.768 133.521 161.989 133.673C162.214 133.824 162.497 133.9 162.84 133.9ZM169.292 128.941V129.67H166.385V128.941H169.292V128.941ZM167.232 127.599H168.094V132.937C168.094 133.18 168.129 133.362 168.2 133.483C168.262 133.593 168.36 133.679 168.477 133.725C168.592 133.764 168.712 133.783 168.839 133.783C168.934 133.783 169.012 133.778 169.073 133.768L169.219 133.739L169.394 134.512C169.314 134.54 169.232 134.562 169.149 134.578C169.018 134.604 168.885 134.617 168.751 134.614C168.507 134.614 168.269 134.562 168.036 134.457C167.804 134.352 167.605 134.188 167.458 133.98C167.308 133.766 167.232 133.497 167.232 133.171V127.599ZM172.879 134.658C172.339 134.658 171.873 134.54 171.48 134.3C171.09 134.058 170.777 133.709 170.579 133.295C170.369 132.862 170.265 132.359 170.265 131.785C170.265 131.212 170.369 130.706 170.579 130.268C170.772 129.85 171.078 129.494 171.462 129.24C171.842 128.992 172.285 128.868 172.792 128.868C173.084 128.868 173.372 128.917 173.657 129.013C173.942 129.111 174.201 129.269 174.435 129.488C174.668 129.704 174.854 129.991 174.993 130.348C175.132 130.706 175.202 131.146 175.202 131.668V132.033H170.878V131.288H174.325C174.325 130.973 174.262 130.691 174.135 130.443C174.017 130.201 173.832 129.998 173.602 129.856C173.358 129.708 173.077 129.634 172.792 129.641C172.449 129.641 172.151 129.726 171.901 129.896C171.655 130.061 171.457 130.287 171.327 130.553C171.193 130.822 171.125 131.12 171.127 131.421V131.916C171.127 132.339 171.2 132.698 171.345 132.992C171.494 133.284 171.7 133.506 171.962 133.659C172.226 133.81 172.531 133.886 172.879 133.886C173.106 133.886 173.31 133.854 173.493 133.791C173.678 133.725 173.837 133.627 173.971 133.498C174.109 133.36 174.215 133.193 174.281 133.01L175.114 133.243C175.026 133.525 174.879 133.774 174.672 133.988C174.455 134.206 174.193 134.375 173.905 134.483C173.577 134.604 173.229 134.664 172.879 134.658ZM178.63 134.658C178.163 134.658 177.75 134.54 177.393 134.304C177.034 134.067 176.754 133.731 176.553 133.299C176.351 132.863 176.249 132.349 176.249 131.756C176.249 131.167 176.351 130.657 176.553 130.224C176.754 129.792 177.036 129.458 177.396 129.222C177.757 128.986 178.173 128.868 178.645 128.868C179.01 128.868 179.298 128.929 179.51 129.05C179.725 129.169 179.887 129.306 180 129.458C180.114 129.609 180.203 129.733 180.266 129.831H180.339V127.074H181.201V134.541H180.369V133.681H180.266C180.203 133.783 180.113 133.912 179.996 134.068C179.859 134.238 179.689 134.378 179.496 134.479C179.279 134.598 178.99 134.658 178.63 134.658ZM178.747 133.886C179.093 133.886 179.385 133.795 179.623 133.616C179.862 133.433 180.044 133.182 180.167 132.861C180.292 132.537 180.354 132.164 180.354 131.741C180.354 131.323 180.293 130.957 180.171 130.644C180.049 130.327 179.869 130.082 179.63 129.907C179.393 129.73 179.098 129.641 178.747 129.641C178.382 129.641 178.078 129.735 177.834 129.922C177.585 130.117 177.397 130.379 177.29 130.676C177.171 130.993 177.111 131.348 177.111 131.741C177.111 132.14 177.172 132.501 177.294 132.828C177.418 133.151 177.6 133.409 177.841 133.6C178.085 133.791 178.387 133.886 178.747 133.886Z" fill="#A1A1A1"/>
<path d="M219.694 140.992H146.926C145.179 140.992 143.762 142.406 143.762 144.151C143.762 145.896 145.179 147.311 146.926 147.311H219.694C221.441 147.311 222.858 145.896 222.858 144.151C222.858 142.406 221.441 140.992 219.694 140.992Z" fill="#484848"/>
<path d="M309.188 128.139H267.035C264.025 128.139 261.586 130.576 261.586 133.581V140.702C261.586 143.707 264.025 146.143 267.035 146.143H309.188C312.198 146.143 314.637 143.707 314.637 140.702V133.581C314.637 130.576 312.198 128.139 309.188 128.139Z" fill="#262626"/>
<path d="M272.422 139.965V134.221H274.473C274.918 134.221 275.288 134.298 275.582 134.451C275.878 134.605 276.099 134.817 276.245 135.088C276.391 135.357 276.464 135.669 276.464 136.022C276.464 136.374 276.39 136.683 276.243 136.95C276.091 137.22 275.86 137.437 275.58 137.57C275.285 137.718 274.915 137.792 274.47 137.792H272.917V137.046H274.391C274.672 137.046 274.901 137.006 275.077 136.925C275.243 136.855 275.38 136.732 275.467 136.575C275.554 136.404 275.596 136.214 275.591 136.022C275.591 135.805 275.549 135.617 275.464 135.458C275.378 135.297 275.241 135.168 275.074 135.094C274.898 135.007 274.666 134.965 274.38 134.965H273.29V139.965H272.422ZM275.262 137.374L276.683 139.965H275.695L274.301 137.374H275.262ZM279.216 140.052C278.812 140.052 278.459 139.96 278.157 139.775C277.854 139.588 277.61 139.318 277.455 138.998C277.289 138.665 277.205 138.276 277.205 137.831C277.205 137.384 277.289 136.994 277.455 136.659C277.61 136.337 277.853 136.067 278.157 135.879C278.459 135.693 278.812 135.602 279.216 135.602C279.621 135.602 279.974 135.693 280.275 135.879C280.576 136.064 280.811 136.324 280.977 136.659C281.144 136.994 281.227 137.384 281.227 137.831C281.227 138.276 281.144 138.665 280.977 138.998C280.811 139.33 280.576 139.59 280.275 139.775C279.974 139.96 279.621 140.052 279.216 140.052ZM279.219 139.348C279.481 139.348 279.698 139.279 279.87 139.141C280.047 138.996 280.18 138.805 280.253 138.588C280.337 138.359 280.379 138.105 280.379 137.828C280.382 137.57 280.339 137.314 280.253 137.071C280.18 136.853 280.047 136.66 279.87 136.513C279.698 136.373 279.481 136.302 279.219 136.302C278.955 136.302 278.736 136.373 278.562 136.513C278.385 136.66 278.251 136.853 278.177 137.071C278.094 137.301 278.053 137.553 278.053 137.828C278.053 138.105 278.094 138.359 278.177 138.588C278.262 138.818 278.389 139.003 278.562 139.141C278.736 139.28 278.955 139.348 279.219 139.348ZM283.004 134.221V139.965H282.164V134.221H283.004ZM284.974 134.221V139.965H284.134V134.221H284.974ZM286.171 139.965V134.221H287.011V136.355H287.062C287.124 136.246 287.194 136.142 287.273 136.044C287.364 135.926 287.492 135.824 287.654 135.735C287.818 135.646 288.032 135.601 288.3 135.601C288.649 135.601 288.959 135.689 289.233 135.865C289.507 136.04 289.721 136.294 289.876 136.625C290.034 136.956 290.112 137.354 290.112 137.82C290.112 138.285 290.035 138.685 289.879 139.018C289.742 139.328 289.52 139.593 289.239 139.783C288.962 139.962 288.639 140.055 288.309 140.05C288.047 140.05 287.833 140.006 287.666 139.918C287.517 139.843 287.385 139.738 287.278 139.609C287.198 139.511 287.125 139.406 287.062 139.295H286.992V139.965H286.171ZM286.994 137.812C286.994 138.114 287.039 138.38 287.127 138.608C287.215 138.836 287.342 139.014 287.508 139.143C287.675 139.27 287.879 139.334 288.12 139.334C288.372 139.334 288.581 139.268 288.75 139.136C288.918 139.001 289.046 138.819 289.132 138.588C289.22 138.359 289.264 138.1 289.264 137.812C289.264 137.527 289.221 137.272 289.135 137.046C289.061 136.834 288.929 136.648 288.752 136.51C288.584 136.379 288.373 136.313 288.12 136.313C287.877 136.313 287.672 136.377 287.503 136.502C287.329 136.637 287.198 136.819 287.124 137.026C287.033 137.278 286.989 137.544 286.994 137.812ZM292.311 140.061C292.038 140.061 291.79 140.011 291.569 139.909C291.356 139.813 291.174 139.658 291.044 139.463C290.916 139.269 290.853 139.03 290.853 138.748C290.853 138.505 290.9 138.305 290.993 138.148C291.087 137.991 291.214 137.867 291.372 137.775C291.532 137.683 291.71 137.614 291.906 137.568C292.103 137.52 292.303 137.485 292.507 137.461L293.137 137.388C293.298 137.367 293.415 137.335 293.488 137.29C293.561 137.245 293.598 137.172 293.598 137.071V137.051C293.598 136.806 293.528 136.616 293.39 136.481C293.253 136.347 293.049 136.28 292.778 136.28C292.495 136.28 292.272 136.343 292.109 136.468C291.947 136.591 291.836 136.729 291.774 136.88L290.985 136.701C291.079 136.439 291.215 136.228 291.395 136.067C291.577 135.904 291.786 135.786 292.022 135.713C292.263 135.638 292.513 135.6 292.766 135.602C292.939 135.602 293.121 135.622 293.314 135.663C293.509 135.703 293.69 135.775 293.858 135.882C294.029 135.988 294.168 136.141 294.277 136.339C294.386 136.535 294.44 136.79 294.44 137.105V139.965H293.62V139.376H293.586C293.523 139.496 293.441 139.604 293.342 139.696C293.221 139.809 293.079 139.898 292.924 139.957C292.728 140.031 292.52 140.066 292.311 140.06V140.061ZM292.494 139.388C292.726 139.388 292.924 139.342 293.089 139.25C293.256 139.159 293.382 139.039 293.468 138.891C293.555 138.746 293.601 138.58 293.6 138.412V137.857C293.549 137.897 293.49 137.926 293.426 137.941C293.331 137.967 293.234 137.989 293.137 138.005L292.82 138.052L292.561 138.086C292.409 138.105 292.259 138.139 292.115 138.19C291.992 138.232 291.881 138.304 291.794 138.401C291.712 138.502 291.67 138.629 291.676 138.759C291.676 138.967 291.753 139.124 291.906 139.231C292.06 139.335 292.256 139.388 292.494 139.388ZM297.376 140.052C296.958 140.052 296.599 139.957 296.298 139.769C295.997 139.577 295.757 139.304 295.606 138.981C295.445 138.646 295.365 138.263 295.365 137.831C295.365 137.394 295.448 137.008 295.612 136.673C295.777 136.336 296.009 136.074 296.309 135.884C296.608 135.696 296.961 135.602 297.367 135.602C297.696 135.602 297.987 135.662 298.244 135.784C298.5 135.903 298.707 136.072 298.864 136.288C299.024 136.505 299.118 136.758 299.148 137.048H298.331C298.286 136.846 298.178 136.664 298.022 136.527C297.863 136.381 297.65 136.308 297.382 136.308C297.148 136.308 296.942 136.37 296.766 136.493C296.593 136.614 296.457 136.789 296.359 137.015C296.257 137.268 296.207 137.539 296.214 137.812C296.214 138.125 296.261 138.397 296.356 138.625C296.452 138.853 296.587 139.029 296.761 139.155C296.937 139.28 297.144 139.343 297.382 139.343C297.541 139.343 297.685 139.314 297.815 139.256C297.945 139.197 298.055 139.111 298.143 139.001C298.232 138.89 298.295 138.758 298.331 138.603H299.148C299.122 138.87 299.029 139.127 298.876 139.349C298.721 139.57 298.511 139.748 298.267 139.865C298.014 139.99 297.717 140.052 297.376 140.052ZM300.819 138.504L300.814 137.481H300.959L302.679 135.657H303.684L301.723 137.733H301.591L300.819 138.504ZM300.047 139.965V134.221H300.886V139.965H300.047ZM302.771 139.965L301.226 137.918L301.805 137.332L303.802 139.965H302.771Z" fill="white"/>
<path d="M309.188 128.139H267.035C264.025 128.139 261.586 130.576 261.586 133.581V140.702C261.586 143.707 264.025 146.143 267.035 146.143H309.188C312.198 146.143 314.637 143.707 314.637 140.702V133.581C314.637 130.576 312.198 128.139 309.188 128.139Z" stroke="#484848" stroke-width="0.473854"/>
<path d="M321.187 112.197H19.8637C16.5787 112.197 13.9157 114.856 13.9157 118.137V156.145C13.9157 159.426 16.5787 162.085 19.8637 162.085H321.187C324.472 162.085 327.135 159.426 327.135 156.145V118.137C327.135 114.856 324.472 112.197 321.187 112.197Z" stroke="#484848" stroke-width="0.790021"/>
</g>
</g>
<g opacity="0.5" clip-path="url(#clip2_1_564)">
<g clip-path="url(#clip3_1_564)">
<path d="M321.187 15.2726H19.8637C16.5787 15.2726 13.9157 17.9319 13.9157 21.2123V59.2209C13.9157 62.5012 16.5787 65.1605 19.8637 65.1605H321.187C324.472 65.1605 327.135 62.5012 327.135 59.2209V21.2123C327.135 17.9319 324.472 15.2726 321.187 15.2726Z" fill="#303030"/>
<path d="M46.7413 27.9738H30.9215C28.519 27.9738 26.5713 29.9187 26.5713 32.3178V48.1148C26.5713 50.5139 28.519 52.4587 30.9215 52.4587H46.7413C49.1438 52.4587 51.0915 50.5139 51.0915 48.1148V32.3178C51.0915 29.9187 49.1438 27.9738 46.7413 27.9738Z" fill="#484848"/>
<path fill-rule="evenodd" clip-rule="evenodd" d="M37.4467 34.8851V38.0445H40.2141V34.8851H41.4012V38.0445H43.3789V39.229H41.4004V41.2039H43.3781V42.3884H41.4004V45.5478H40.2141V42.3884H37.4459V45.5478H36.2588V42.3884H34.2819V41.2039H36.2588V39.229H34.2819V38.0453H36.2588V34.8859H37.4459L37.4467 34.8851ZM37.4467 39.229V41.2039H40.2141V39.229H37.4467Z" fill="white"/>
<path d="M46.7413 27.9738H30.9215C28.519 27.9738 26.5713 29.9187 26.5713 32.3178V48.1148C26.5713 50.5139 28.519 52.4587 30.9215 52.4587H46.7413C49.1438 52.4587 51.0915 50.5139 51.0915 48.1148V32.3178C51.0915 29.9187 49.1438 27.9738 46.7413 27.9738Z" stroke="#585858" stroke-width="0.790021"/>
<path d="M67.5838 37.8845C67.5838 38.811 67.1159 39.4349 66.1786 39.7548V39.7802C66.6732 39.8532 67.1236 40.1051 67.4442 40.4881C67.7733 40.8674 67.9382 41.3773 67.9382 42.0171C67.9382 42.843 67.6639 43.4875 67.1151 43.9507C66.5672 44.414 65.8202 44.646 64.875 44.646H60.9783V35.6104H64.6228C65.5427 35.6104 66.2643 35.8163 66.7876 36.2296C67.3189 36.6335 67.5838 37.1854 67.5838 37.8845ZM64.7997 39.389C65.4071 39.389 65.8329 39.2702 66.0779 39.0351C66.3222 38.7991 66.4443 38.457 66.4443 38.0112C66.4443 37.5813 66.3174 37.2447 66.0652 37.0001C65.8115 36.7475 65.4324 36.6208 64.9257 36.6208H62.1162V39.3882L64.7997 39.389ZM62.1162 43.6348H64.9892C66.1961 43.6348 66.7987 43.0956 66.7987 42.0171C66.7987 41.5285 66.656 41.1366 66.3689 40.842C66.0906 40.5467 65.7147 40.3994 65.2429 40.3994H62.1162V43.6348ZM74.2606 38.2005V44.646H73.248V43.8747H73.2226C73.0196 44.1439 72.7412 44.372 72.3868 44.5573C72.0323 44.7346 71.6017 44.8225 71.0966 44.8225C70.463 44.8225 69.9444 44.646 69.54 44.292C69.1348 43.9294 68.9318 43.3988 68.9318 42.6996V38.2005H69.9444V42.4471C69.9444 42.8936 70.0586 43.2555 70.2862 43.5334C70.5138 43.8027 70.8683 43.9381 71.3488 43.9381C71.915 43.9381 72.3701 43.7781 72.7159 43.4582C73.0703 43.1375 73.2472 42.725 73.2472 42.219V38.2005H74.2606ZM76.289 36.9494C76.1306 36.9472 75.9781 36.8891 75.8584 36.7855C75.7924 36.7326 75.7397 36.6651 75.7046 36.5882C75.6694 36.5113 75.6529 36.4273 75.6562 36.3429C75.6562 36.1576 75.7236 36.0103 75.8584 35.901C75.9779 35.797 76.1305 35.7387 76.289 35.7363C76.448 35.7361 76.6014 35.7948 76.7196 35.901C76.8544 36.0103 76.9218 36.1576 76.9218 36.3429C76.9218 36.5281 76.8544 36.6754 76.7196 36.7855C76.6014 36.8917 76.4479 36.9501 76.289 36.9494ZM76.7949 38.2005V44.646H75.7831V38.2005H76.7949ZM79.2404 35.6104V44.6452H78.2278V35.6104H79.2404ZM86.2804 35.6104V44.6452H85.2678V43.8494H85.2424C84.7452 44.4987 84.0696 44.8233 83.218 44.8233C82.6962 44.8281 82.1834 44.688 81.7367 44.4187C81.2982 44.14 80.9485 43.7441 80.6868 43.231C80.4331 42.7163 80.307 42.1145 80.307 41.4232C80.307 40.7327 80.4338 40.1302 80.6868 39.6163C80.9485 39.1016 81.2982 38.7104 81.7375 38.4412C82.1811 38.1641 82.6947 38.0193 83.218 38.0239C84.1037 38.0239 84.7785 38.3612 85.2424 39.0351H85.2678V35.6104H86.2804ZM83.3195 43.9381C83.9182 43.9381 84.39 43.7108 84.7365 43.2555C85.091 42.7923 85.2678 42.1818 85.2678 41.4232C85.2678 40.6646 85.091 40.0581 84.7365 39.6036C84.3908 39.1404 83.9182 38.9084 83.3187 38.9084C82.8976 38.9084 82.5344 39.0264 82.2307 39.2623C81.927 39.4983 81.6994 39.8103 81.5472 40.1975C81.3933 40.5877 81.316 41.0038 81.3196 41.4232C81.3196 41.8611 81.3957 42.2744 81.5472 42.6616C81.6994 43.0409 81.927 43.3482 82.2307 43.5841C82.5344 43.8201 82.8968 43.9381 83.3195 43.9381ZM92.8985 35.9137V44.646H91.7598V38.1126C91.514 38.3398 91.2658 38.4832 91.0129 38.5418C90.7678 38.5924 90.4102 38.6178 89.9368 38.6178V37.7966C90.6544 37.7966 91.1603 37.6407 91.4553 37.3295C91.759 37.0088 91.9454 36.5369 92.0128 35.9137H92.8985Z" fill="white"/>
<path d="M149.547 32.4826H148.641C148.549 32.0052 148.276 31.5819 147.878 31.3012C147.689 31.1645 147.478 31.0611 147.253 30.9955C147.021 30.9267 146.78 30.892 146.538 30.8926C146.085 30.8926 145.675 31.0074 145.308 31.2362C144.942 31.4643 144.652 31.8008 144.434 32.2458C144.22 32.6908 144.113 33.2364 144.113 33.8833C144.113 34.5294 144.22 35.0758 144.434 35.52C144.652 35.965 144.942 36.3016 145.308 36.5304C145.675 36.7584 146.085 36.8733 146.538 36.8733C146.786 36.8733 147.025 36.8392 147.253 36.7703C147.483 36.703 147.69 36.6017 147.878 36.4686C148.274 36.1844 148.547 35.7607 148.641 35.2833H149.547C149.486 35.6447 149.36 35.9919 149.174 36.3079C148.822 36.9037 148.262 37.3481 147.601 37.555C147.258 37.6662 146.899 37.7215 146.538 37.7189C145.9 37.7189 145.333 37.5629 144.837 37.2517C144.34 36.9413 143.949 36.4987 143.665 35.9246C143.38 35.3514 143.237 34.6704 143.237 33.8833C143.237 33.0954 143.38 32.4153 143.665 31.8412C143.949 31.2679 144.34 30.8253 144.837 30.5141C145.333 30.2029 145.9 30.0469 146.538 30.0469C146.916 30.0469 147.269 30.1023 147.601 30.2116C147.934 30.3209 148.234 30.4808 148.502 30.6922C148.77 30.9013 148.994 31.157 149.174 31.4579C149.355 31.7573 149.479 32.0993 149.547 32.4826ZM150.893 37.6168V32.0162H151.726V32.8619H151.785C151.887 32.5847 152.072 32.3598 152.34 32.1872C152.609 32.0142 152.924 31.9244 153.245 31.9291C153.308 31.9291 153.387 31.9299 153.482 31.9322C153.577 31.9346 153.649 31.9386 153.698 31.9433V32.8183C153.631 32.8048 153.564 32.794 153.497 32.7858C153.389 32.7682 153.281 32.7595 153.172 32.7597C152.899 32.7597 152.656 32.8175 152.442 32.9315C152.235 33.0392 152.061 33.2006 151.938 33.3987C151.816 33.5951 151.755 33.82 151.755 34.0726V37.6168H150.893ZM156.9 37.7332C156.36 37.7332 155.894 37.6144 155.501 37.3769C155.11 37.1344 154.797 36.7847 154.6 36.3696C154.39 35.9373 154.286 35.4337 154.286 34.8604C154.286 34.2863 154.39 33.7812 154.6 33.3433C154.793 32.9254 155.099 32.5695 155.483 32.3155C155.863 32.0676 156.306 31.9433 156.813 31.9433C157.105 31.9433 157.393 31.9916 157.678 32.089C157.963 32.1864 158.222 32.344 158.456 32.5633C158.689 32.7795 158.875 33.0661 159.014 33.4233C159.153 33.7812 159.223 34.2206 159.223 34.7432V35.1075H154.899V34.3647H158.346C158.346 34.048 158.283 33.7661 158.156 33.5183C158.038 33.2763 157.853 33.0728 157.623 32.9315C157.379 32.7839 157.098 32.7092 156.813 32.7162C156.469 32.7162 156.172 32.8017 155.921 32.9719C155.676 33.1364 155.478 33.3625 155.348 33.6275C155.214 33.8972 155.146 34.1944 155.147 34.4954V34.9919C155.147 35.4147 155.22 35.7726 155.366 36.0672C155.515 36.3586 155.721 36.5819 155.983 36.7347C156.247 36.8851 156.552 36.9604 156.9 36.9604C157.127 36.9604 157.331 36.9287 157.514 36.8653C157.698 36.8004 157.858 36.703 157.992 36.5739C158.13 36.4359 158.236 36.2691 158.302 36.0854L159.135 36.319C159.049 36.5987 158.897 36.8538 158.693 37.0633C158.476 37.2811 158.214 37.4499 157.926 37.5582C157.598 37.679 157.25 37.7384 156.9 37.7332ZM162.184 37.7482C161.828 37.7482 161.506 37.6809 161.216 37.5479C160.936 37.4197 160.697 37.2163 160.526 36.9604C160.356 36.703 160.27 36.3918 160.27 36.0268C160.27 35.7061 160.334 35.4464 160.46 35.2468C160.585 35.0469 160.76 34.8833 160.968 34.7725C161.18 34.6585 161.414 34.573 161.669 34.5176C161.927 34.459 162.186 34.413 162.447 34.379C162.788 34.3354 163.064 34.3022 163.275 34.2808C163.49 34.2563 163.646 34.2159 163.743 34.1604C163.842 34.1042 163.892 34.0068 163.892 33.8683V33.839C163.892 33.4795 163.794 33.2 163.597 33.0004C163.402 32.8017 163.107 32.7019 162.709 32.7019C162.298 32.7019 161.976 32.7914 161.742 32.9711C161.508 33.1517 161.344 33.3433 161.249 33.5476L160.431 33.2562C160.577 32.9157 160.772 32.6504 161.015 32.4612C161.261 32.2688 161.529 32.135 161.819 32.0597C162.1 31.9836 162.39 31.9444 162.681 31.9433C162.861 31.9433 163.068 31.9647 163.301 32.0091C163.537 32.0502 163.765 32.1365 163.984 32.268C164.206 32.3994 164.39 32.5974 164.535 32.8619C164.681 33.1271 164.754 33.4819 164.754 33.9269V37.6168H163.892V36.8582H163.849C163.773 37.0032 163.675 37.135 163.557 37.2486C163.4 37.4006 163.215 37.5208 163.013 37.6025C162.786 37.6991 162.51 37.7482 162.184 37.7482ZM162.315 36.9754C162.656 36.9754 162.943 36.9081 163.177 36.7743C163.391 36.6587 163.571 36.4878 163.697 36.2795C163.822 36.0711 163.89 35.833 163.892 35.5897V34.8018C163.856 34.8454 163.776 34.8858 163.651 34.9222C163.512 34.9601 163.371 34.9905 163.228 35.0132C162.954 35.0558 162.679 35.0922 162.403 35.1225C162.19 35.1493 161.979 35.1971 161.775 35.265C161.582 35.3284 161.427 35.4242 161.307 35.5533C161.191 35.68 161.132 35.8518 161.132 36.0711C161.132 36.3696 161.243 36.5961 161.464 36.7489C161.689 36.8994 161.972 36.9754 162.315 36.9754ZM168.767 32.0162V32.7455H165.86V32.0162H168.767ZM166.707 30.674H167.569V36.0125C167.569 36.2556 167.604 36.4377 167.675 36.5589C167.737 36.6687 167.835 36.754 167.952 36.8004C168.067 36.8392 168.187 36.8582 168.314 36.8582C168.408 36.8582 168.487 36.8535 168.547 36.844L168.694 36.8147L168.869 37.5875C168.789 37.6152 168.707 37.6372 168.624 37.6532C168.493 37.6801 168.36 37.6923 168.226 37.6896C167.983 37.6896 167.744 37.6374 167.511 37.5328C167.279 37.4282 167.08 37.2633 166.933 37.0554C166.783 36.8416 166.707 36.5716 166.707 36.2461V30.6732V30.674ZM172.354 37.7332C171.813 37.7332 171.348 37.6144 170.955 37.3769C170.564 37.1344 170.251 36.7847 170.054 36.3696C169.844 35.9373 169.74 35.4337 169.74 34.8604C169.74 34.2863 169.844 33.7812 170.054 33.3433C170.247 32.9252 170.553 32.5693 170.937 32.3155C171.317 32.0676 171.76 31.9433 172.266 31.9433C172.559 31.9433 172.847 31.9916 173.132 32.089C173.417 32.1864 173.676 32.344 173.91 32.5633C174.143 32.7795 174.329 33.0661 174.468 33.4233C174.607 33.7812 174.677 34.2206 174.677 34.7432V35.1075H170.353V34.3647H173.801C173.801 34.048 173.737 33.7661 173.61 33.5183C173.491 33.2766 173.307 33.0733 173.077 32.9315C172.833 32.7839 172.552 32.7091 172.266 32.7162C171.924 32.7162 171.626 32.8017 171.376 32.9719C171.13 33.1364 170.932 33.3625 170.802 33.6275C170.668 33.8972 170.6 34.1944 170.602 34.4954V34.9919C170.602 35.4147 170.675 35.7726 170.821 36.0672C170.969 36.3586 171.175 36.5819 171.437 36.7347C171.701 36.8851 172.006 36.9604 172.354 36.9604C172.58 36.9604 172.785 36.9287 172.968 36.8653C173.153 36.8004 173.312 36.703 173.446 36.5739C173.584 36.4359 173.69 36.2691 173.756 36.0854L174.589 36.319C174.503 36.5987 174.352 36.8538 174.147 37.0633C173.93 37.2811 173.668 37.4499 173.38 37.5582C173.052 37.679 172.704 37.7384 172.354 37.7332ZM178.106 37.7332C177.638 37.7332 177.225 37.6152 176.868 37.38C176.509 37.1417 176.229 36.8059 176.027 36.3736C175.826 35.9381 175.724 35.4242 175.724 34.8311C175.724 34.2428 175.826 33.7321 176.027 33.2997C176.229 32.8666 176.511 32.5325 176.871 32.2973C177.232 32.0613 177.647 31.9433 178.12 31.9433C178.485 31.9433 178.773 32.0043 178.985 32.1255C179.2 32.2442 179.362 32.3804 179.474 32.534C179.589 32.6845 179.678 32.8088 179.741 32.9062H179.814V30.1491H180.676V37.6168H179.844V36.7561H179.741C179.678 36.859 179.588 36.9873 179.471 37.1425C179.334 37.3121 179.164 37.4522 178.971 37.5542C178.754 37.6738 178.466 37.7332 178.106 37.7332ZM178.222 36.9604C178.568 36.9604 178.86 36.8709 179.098 36.6911C179.337 36.509 179.519 36.2564 179.642 35.9357C179.767 35.6127 179.829 35.2389 179.829 34.8161C179.829 34.3988 179.768 34.0322 179.646 33.7186C179.524 33.4027 179.344 33.1572 179.105 32.9822C178.867 32.8048 178.573 32.7162 178.222 32.7162C177.857 32.7162 177.553 32.8096 177.309 32.9973C177.06 33.1926 176.872 33.4542 176.765 33.7519C176.641 34.0931 176.581 34.454 176.586 34.8169C176.586 35.2152 176.647 35.577 176.769 35.9033C176.893 36.2263 177.075 36.4837 177.317 36.6761C177.56 36.8661 177.862 36.9604 178.222 36.9604Z" fill="#A1A1A1"/>
<path d="M207.305 44.0673H146.401C144.654 44.0673 143.237 45.4819 143.237 47.2268C143.237 48.9717 144.654 50.3863 146.401 50.3863H207.305C209.052 50.3863 210.469 48.9717 210.469 47.2268C210.469 45.4819 209.052 44.0673 207.305 44.0673Z" fill="#484848"/>
<path d="M309.189 31.3701H265.985C262.975 31.3701 260.536 33.8064 260.536 36.8117V43.6223C260.536 46.6276 262.975 49.0639 265.985 49.0639H309.189C312.199 49.0639 314.638 46.6276 314.638 43.6223V36.8117C314.638 33.8064 312.199 31.3701 309.189 31.3701Z" fill="#262626"/>
<path d="M276.727 42.6759H274.864V36.9312H276.786C277.35 36.9312 277.833 37.0468 278.238 37.2764C278.641 37.5026 278.965 37.8459 279.168 38.2607C279.385 38.6875 279.494 39.199 279.494 39.7953C279.494 40.3939 279.384 40.9078 279.165 41.3377C278.947 41.7677 278.633 42.0987 278.221 42.3307C277.809 42.5603 277.311 42.6759 276.727 42.6759ZM275.733 41.9181H276.679C277.117 41.9181 277.481 41.8358 277.771 41.6719C278.062 41.5056 278.279 41.2649 278.423 40.9513C278.568 40.6346 278.64 40.2498 278.64 39.7953C278.64 39.3439 278.568 38.9623 278.423 38.6479C278.293 38.3473 278.07 38.0966 277.786 37.9329C277.503 37.7698 277.152 37.689 276.733 37.689H275.733V41.9181ZM282.365 42.7622C281.94 42.7622 281.574 42.672 281.267 42.4906C280.961 42.3072 280.715 42.0393 280.559 41.7194C280.394 41.3868 280.311 40.9965 280.311 40.5499C280.311 40.108 280.394 39.7192 280.559 39.3827C280.725 39.0462 280.958 38.7833 281.256 38.5948C281.555 38.4056 281.905 38.3114 282.306 38.3114C282.549 38.3114 282.785 38.351 283.014 38.4317C283.242 38.5125 283.447 38.6384 283.629 38.811C283.811 38.9828 283.953 39.2061 284.059 39.4809C284.164 39.7541 284.216 40.0859 284.216 40.477V40.774H280.786V40.146H283.393C283.397 39.9426 283.351 39.7412 283.258 39.5601C283.17 39.3869 283.034 39.2425 282.866 39.144C282.698 39.0455 282.506 38.997 282.311 39.0042C282.076 39.0042 281.869 39.062 281.693 39.1784C281.522 39.2901 281.382 39.4446 281.289 39.6266C281.195 39.8118 281.147 40.0168 281.149 40.2244V40.7154C281.149 41.0028 281.199 41.2483 281.3 41.4502C281.403 41.6521 281.547 41.8065 281.73 41.9126C281.914 42.0171 282.128 42.0702 282.373 42.0702C282.521 42.0717 282.668 42.049 282.808 42.0029C282.937 41.9597 283.054 41.8882 283.15 41.7936C283.247 41.699 283.321 41.5837 283.367 41.4565L284.163 41.599C284.101 41.8287 283.983 42.0395 283.82 42.2127C283.657 42.3869 283.452 42.5223 283.205 42.6197C282.936 42.7188 282.651 42.7672 282.365 42.7622ZM285.148 44.2913V38.3676H285.968V39.066H286.038C286.1 38.9567 286.17 38.8526 286.249 38.7548C286.34 38.636 286.468 38.5339 286.63 38.446C286.794 38.3565 287.009 38.3114 287.277 38.3114C287.625 38.3114 287.936 38.3993 288.209 38.575C288.483 38.7508 288.697 39.0042 288.852 39.3352C289.01 39.6662 289.089 40.0637 289.089 40.5301C289.089 40.9957 289.011 41.3947 288.856 41.7273C288.718 42.0374 288.496 42.3026 288.215 42.493C287.939 42.6723 287.615 42.7652 287.285 42.7599C287.023 42.7599 286.809 42.7163 286.642 42.6284C286.493 42.5532 286.361 42.4481 286.255 42.3196C286.174 42.2208 286.102 42.1157 286.038 42.0052H285.987V44.2913H285.148ZM285.971 40.5222C285.971 40.8246 286.015 41.0899 286.103 41.3179C286.191 41.546 286.318 41.7249 286.485 41.854C286.651 41.9807 286.856 42.044 287.097 42.044C287.348 42.044 287.557 41.9783 287.726 41.8461C287.894 41.7115 288.022 41.5286 288.109 41.2989C288.197 41.0685 288.24 40.8096 288.24 40.5214C288.24 40.2371 288.197 39.9821 288.111 39.7557C288.037 39.5444 287.905 39.3587 287.729 39.2204C287.561 39.0889 287.35 39.024 287.097 39.024C286.854 39.024 286.648 39.0866 286.479 39.2117C286.305 39.3471 286.174 39.5292 286.1 39.7367C286.009 39.9881 285.965 40.2549 285.971 40.5222ZM290.87 36.9312V42.6759H290.03V36.9312H290.87ZM293.816 42.7622C293.412 42.7622 293.059 42.6704 292.758 42.4851C292.455 42.2979 292.211 42.0285 292.055 41.7083C291.889 41.3757 291.805 40.9862 291.805 40.5412C291.805 40.0946 291.889 39.7034 292.055 39.3692C292.222 39.0343 292.456 38.7738 292.758 38.5893C293.059 38.404 293.412 38.3114 293.816 38.3114C294.221 38.3114 294.574 38.404 294.876 38.5885C295.177 38.7746 295.411 39.0343 295.578 39.3685C295.744 39.7034 295.828 40.0946 295.828 40.5412C295.828 40.9862 295.744 41.3749 295.578 41.7083C295.411 42.0409 295.177 42.2998 294.876 42.4843C294.574 42.6704 294.221 42.7622 293.816 42.7622ZM293.82 42.0583C294.081 42.0583 294.298 41.9894 294.471 41.8508C294.643 41.7123 294.77 41.5286 294.853 41.2989C294.938 41.0685 294.98 40.8151 294.98 40.5388C294.983 40.2807 294.94 40.0241 294.853 39.781C294.78 39.5631 294.648 39.3698 294.471 39.2228C294.298 39.0826 294.081 39.0129 293.82 39.0129C293.555 39.0129 293.337 39.0826 293.162 39.2228C292.985 39.37 292.852 39.5632 292.778 39.781C292.693 40.0246 292.651 40.2809 292.654 40.5388C292.654 40.8151 292.695 41.0685 292.778 41.2989C292.862 41.5286 292.99 41.7131 293.162 41.8508C293.337 41.9894 293.555 42.0583 293.82 42.0583ZM297.149 44.2913C296.955 44.2924 296.761 44.2611 296.577 44.1986L296.779 43.5113C296.932 43.5525 297.069 43.5707 297.189 43.5651C297.307 43.56 297.42 43.5122 297.506 43.4305C297.6 43.3458 297.682 43.2088 297.753 43.018L297.857 42.7321L296.279 38.3676H297.178L298.27 41.7107H298.315L299.408 38.3676H300.309L298.531 43.2508C298.459 43.4569 298.353 43.6494 298.217 43.8201C298.09 43.9769 297.937 44.0949 297.761 44.1733C297.585 44.2525 297.382 44.2913 297.149 44.2913Z" fill="white"/>
<path d="M309.189 31.3701H265.985C262.975 31.3701 260.536 33.8064 260.536 36.8117V43.6223C260.536 46.6276 262.975 49.0639 265.985 49.0639H309.189C312.199 49.0639 314.638 46.6276 314.638 43.6223V36.8117C314.638 33.8064 312.199 31.3701 309.189 31.3701Z" stroke="#484848" stroke-width="0.473854"/>
<path d="M321.187 15.2726H19.8637C16.5787 15.2726 13.9157 17.9319 13.9157 21.2123V59.2209C13.9157 62.5012 16.5787 65.1605 19.8637 65.1605H321.187C324.472 65.1605 327.135 62.5012 327.135 59.2209V21.2123C327.135 17.9319 324.472 15.2726 321.187 15.2726Z" stroke="#484848" stroke-width="0.790021"/>
</g>
</g>
<g clip-path="url(#clip4_1_564)">
<g clip-path="url(#clip5_1_564)">
<path d="M331.123 62.0801H10.1376C6.63827 62.0801 3.80151 64.9228 3.80151 68.4294V109.06C3.80151 112.566 6.63827 115.409 10.1376 115.409H331.123C334.623 115.409 337.459 112.566 337.459 109.06V68.4294C337.459 64.9228 334.623 62.0801 331.123 62.0801Z" fill="#303030"/>
<path d="M38.7686 75.6583H21.9169C19.3576 75.6583 17.2829 77.7373 17.2829 80.302V97.1889C17.2829 99.7535 19.3576 101.833 21.9169 101.833H38.7686C41.3279 101.833 43.4026 99.7535 43.4026 97.1889V80.302C43.4026 77.7373 41.3279 75.6583 38.7686 75.6583Z" fill="#484848"/>
<path fill-rule="evenodd" clip-rule="evenodd" d="M28.8679 83.0462V86.4233H31.8159V83.0462H33.0804V86.4233H35.1871V87.6895H33.0795V89.8004H35.1862V91.0666H33.0795V94.4437H31.8159V91.0666H28.867V94.4437H27.6025V91.0666H25.4967V89.8004H27.6025V87.6895H25.4967V86.4233H27.6025V83.0462H28.8679ZM28.8679 87.6895V89.8004H31.8159V87.6895H28.8679Z" fill="white"/>
<path d="M38.7686 75.6583H21.9169C19.3576 75.6583 17.2829 77.7373 17.2829 80.302V97.1889C17.2829 99.7535 19.3576 101.833 21.9169 101.833H38.7686C41.3279 101.833 43.4026 99.7535 43.4026 97.1889V80.302C43.4026 77.7373 41.3279 75.6583 38.7686 75.6583Z" stroke="#585858" stroke-width="0.843008"/>
<path d="M60.9714 86.2524C60.9714 87.2426 60.4731 87.9096 59.4746 88.2515V88.2786C60.0014 88.3566 60.4812 88.6259 60.8228 89.0353C61.1733 89.4407 61.349 89.985 61.349 90.6689C61.349 91.5525 61.0568 92.2415 60.4722 92.7366C59.8885 93.2317 59.0928 93.4797 58.086 93.4797H53.9351V83.8207H57.8173C58.7972 83.8207 59.5659 84.0416 60.1234 84.4826C60.6893 84.9151 60.9714 85.505 60.9714 86.2524ZM58.0057 87.8605C58.6528 87.8605 59.1064 87.7336 59.3674 87.4813C59.6275 87.23 59.7576 86.8652 59.7576 86.3878C59.7576 85.9282 59.6225 85.5676 59.3539 85.3069C59.0835 85.0361 58.6798 84.9015 58.14 84.9015H55.1473V87.8597L58.0057 87.8605ZM55.1473 92.3989H58.2076C59.4932 92.3989 60.1352 91.8225 60.1352 90.6697C60.1352 90.1475 59.9832 89.7285 59.6774 89.4136C59.3809 89.0979 58.9805 88.9405 58.4779 88.9405H55.1473V92.3989ZM68.0838 86.5901V93.4797H67.0051V92.6545H66.9781C66.7618 92.9423 66.4654 93.186 66.0878 93.3841C65.7102 93.5728 65.2515 93.6676 64.7135 93.6676C64.0385 93.6676 63.4861 93.478 63.0553 93.1005C62.6237 92.7129 62.4074 92.1458 62.4074 91.3984V86.5892H63.4861V91.1284C63.4861 91.605 63.6077 91.9918 63.8502 92.2897C64.0926 92.5775 64.4702 92.7214 64.9821 92.7214C65.5852 92.7214 66.07 92.5512 66.4383 92.2084C66.8159 91.8665 67.0043 91.4255 67.0043 90.8847V86.5892L68.0838 86.5901ZM70.2445 85.2528C70.0758 85.2504 69.9133 85.1883 69.7859 85.0776C69.7156 85.021 69.6595 84.9488 69.6221 84.8666C69.5847 84.7845 69.567 84.6947 69.5705 84.6044C69.5705 84.4064 69.6423 84.249 69.7859 84.1313C69.9133 84.0205 70.0758 83.9585 70.2445 83.9561C70.4152 83.9561 70.568 84.0153 70.7032 84.1313C70.8468 84.249 70.9186 84.4064 70.9186 84.6044C70.9186 84.8025 70.8468 84.9599 70.7032 85.0776C70.5774 85.1911 70.4138 85.2536 70.2445 85.2528ZM70.7834 86.5901V93.4797H69.7056V86.5901H70.7834ZM73.3885 83.8207V93.4797H72.3098V83.8207H73.3885ZM80.8877 83.8207V93.4797H79.809V92.6283H79.782C79.2524 93.3223 78.5327 93.6685 77.6255 93.6685C77.0698 93.6739 76.5235 93.5244 76.0476 93.2368C75.5805 92.9389 75.208 92.5157 74.9292 91.9664C74.6589 91.4171 74.5246 90.773 74.5246 90.0349C74.5246 89.296 74.6598 88.6527 74.9292 88.1034C75.208 87.5533 75.5805 87.1352 76.0484 86.8465C76.5211 86.5506 77.0682 86.3962 77.6255 86.4013C78.569 86.4013 79.2879 86.761 79.782 87.4813H79.809V83.8207H80.8877ZM77.7336 92.723C78.3714 92.723 78.874 92.4793 79.2431 91.9935C79.6207 91.4983 79.809 90.8449 79.809 90.0349C79.809 89.2241 79.6207 88.5757 79.2431 88.0899C78.8748 87.5939 78.3714 87.3468 77.7328 87.3468C77.2842 87.3468 76.8974 87.4729 76.5738 87.7251C76.2503 87.9773 76.0079 88.31 75.8457 88.7238C75.6817 89.1412 75.5994 89.5863 75.6033 90.0349C75.6033 90.503 75.6844 90.9439 75.8457 91.3587C76.0079 91.7641 76.2503 92.0925 76.5738 92.3447C76.8974 92.5969 77.2834 92.723 77.7336 92.723ZM85.0115 87.4145C85.0115 86.3963 85.2953 85.5676 85.8613 84.9286C86.4272 84.2803 87.2635 83.9553 88.3692 83.9553C88.883 83.9498 89.3909 84.0658 89.8516 84.2938C90.301 84.5096 90.6609 84.8296 90.9303 85.2528C91.1998 85.676 91.3349 86.1753 91.3349 86.7526C91.3349 87.3112 91.204 87.8021 90.9438 88.2253C90.6926 88.6288 90.3679 88.9813 89.9868 89.2647C89.6177 89.5355 89.1286 89.8504 88.517 90.2101C87.8244 90.6062 87.2947 90.9575 86.9264 91.2639C86.5797 91.5503 86.33 91.9373 86.2118 92.3718V92.3989H91.1998V93.4789H84.7421C84.7421 91.8851 85.6679 90.5478 87.5194 89.467L88.0583 89.1563C88.6158 88.8415 89.0247 88.5893 89.2857 88.4005C89.539 88.2289 89.7508 88.0028 89.9057 87.7386C90.0493 87.4771 90.1211 87.1529 90.1211 86.7653C90.1211 86.2888 89.9868 85.8833 89.7173 85.5499C89.447 85.2079 88.9892 85.0369 88.3422 85.0369C87.5777 85.0369 87.0337 85.2528 86.7111 85.6853C86.3875 86.1169 86.2254 86.6933 86.2254 87.4145H85.0115Z" fill="white"/>
<path d="M148.283 80.4778H147.318C147.22 79.9675 146.929 79.515 146.505 79.215C146.304 79.0686 146.079 78.9578 145.84 78.8874C145.593 78.8141 145.336 78.7773 145.078 78.7782C144.596 78.7782 144.158 78.901 143.767 79.1447C143.378 79.3893 143.068 79.7491 142.837 80.2247C142.609 80.7004 142.495 81.2827 142.495 81.9742C142.495 82.6657 142.609 83.2489 142.837 83.7246C143.068 84.2002 143.378 84.56 143.767 84.8046C144.16 85.0489 144.615 85.1758 145.078 85.1702C145.342 85.1702 145.597 85.1338 145.84 85.061C146.084 84.9882 146.305 84.8807 146.505 84.7377C146.707 84.5921 146.879 84.4144 147.019 84.2045C147.165 83.9819 147.267 83.7329 147.318 83.4715H148.283C148.218 83.8578 148.084 84.229 147.886 84.5667C147.511 85.2033 146.914 85.6779 146.21 85.899C145.844 86.0181 145.462 86.0776 145.078 86.075C144.398 86.075 143.794 85.9083 143.265 85.5756C142.736 85.243 142.32 84.7707 142.017 84.1571C141.714 83.5443 141.561 82.8164 141.561 81.9742C141.561 81.1329 141.714 80.405 142.017 79.7922C142.32 79.1786 142.736 78.7055 143.265 78.3728C143.794 78.0402 144.398 77.8743 145.078 77.8743C145.48 77.8743 145.857 77.9335 146.21 78.0495C146.565 78.1663 146.885 78.3381 147.17 78.5641C147.456 78.7876 147.694 79.0601 147.886 79.3826C148.078 79.7025 148.21 80.0673 148.283 80.4778ZM149.717 85.9658V79.9793H150.604V80.8832H150.666C150.775 80.587 150.972 80.3466 151.258 80.1621C151.545 79.9768 151.881 79.8806 152.222 79.8853C152.289 79.8853 152.374 79.887 152.475 79.8896C152.576 79.8921 152.652 79.8955 152.705 79.9014V80.8367C152.634 80.822 152.562 80.8102 152.49 80.8011C152.376 80.7826 152.26 80.7735 152.145 80.774C151.854 80.774 151.595 80.835 151.367 80.9569C151.146 81.0719 150.961 81.2444 150.829 81.4562C150.7 81.667 150.635 81.9074 150.635 82.1774V85.9658H149.717ZM156.116 86.0902C155.54 86.0902 155.044 85.9633 154.626 85.7085C154.209 85.4495 153.876 85.0761 153.665 84.6328C153.442 84.1698 153.331 83.6323 153.331 83.0187C153.331 82.4059 153.442 81.865 153.665 81.3978C153.871 80.9508 154.197 80.5701 154.606 80.2984C155.011 80.0334 155.483 79.9006 156.023 79.9006C156.334 79.9006 156.641 79.953 156.944 80.0571C157.253 80.1643 157.536 80.337 157.773 80.5633C158.021 80.7952 158.22 81.1016 158.368 81.4833C158.515 81.865 158.59 82.3356 158.59 82.8943V83.2836H153.984V82.4888H157.656C157.656 82.1511 157.589 81.8498 157.454 81.5849C157.327 81.3262 157.131 81.1087 156.886 80.9577C156.626 80.7999 156.326 80.72 156.023 80.7275C155.657 80.7275 155.34 80.8181 155.073 81C154.812 81.1761 154.601 81.4181 154.463 81.7017C154.32 81.9899 154.247 82.3076 154.249 82.6293V83.1592C154.249 83.6112 154.327 83.9946 154.482 84.3094C154.64 84.6209 154.86 84.8587 155.139 85.0221C155.42 85.1829 155.745 85.2642 156.116 85.2642C156.357 85.2642 156.574 85.2303 156.769 85.1626C156.96 85.0966 157.133 84.9904 157.279 84.8511C157.426 84.7036 157.539 84.5253 157.609 84.3289L158.496 84.5777C158.403 84.8799 158.246 85.1448 158.025 85.3733C157.794 85.6065 157.516 85.7872 157.209 85.9032C156.859 86.0324 156.488 86.0958 156.116 86.0902ZM161.744 86.1055C161.389 86.1106 161.037 86.0375 160.713 85.8913C160.415 85.7546 160.161 85.5374 159.978 85.2642C159.797 84.9882 159.706 84.6556 159.706 84.2663C159.706 83.9235 159.773 83.645 159.908 83.4326C160.043 83.2167 160.223 83.0475 160.449 82.9247C160.674 82.8037 160.924 82.7131 161.196 82.653C161.47 82.5904 161.746 82.5413 162.024 82.5049C162.387 82.4575 162.681 82.4228 162.907 82.3991C163.135 82.3737 163.301 82.3306 163.405 82.2705C163.511 82.2112 163.564 82.1071 163.564 81.959V81.9277C163.564 81.5434 163.459 81.2446 163.249 81.0313C163.042 80.8181 162.727 80.7114 162.304 80.7114C161.866 80.7114 161.522 80.8079 161.273 81C161.024 81.1922 160.849 81.3978 160.748 81.6162L159.877 81.3039C160.032 80.9399 160.24 80.6572 160.5 80.4541C160.761 80.2493 161.047 80.1071 161.355 80.0258C161.655 79.9444 161.963 79.9026 162.273 79.9014C162.465 79.9014 162.686 79.9243 162.934 79.9708C163.186 80.0157 163.428 80.1079 163.662 80.2476C163.898 80.3881 164.094 80.5997 164.249 80.8832C164.405 81.1668 164.482 81.546 164.482 82.0216V85.9658H163.564V85.155H163.518C163.437 85.3099 163.332 85.4508 163.207 85.5722C163.04 85.7344 162.843 85.8626 162.627 85.9497C162.386 86.0538 162.092 86.1055 161.744 86.1055ZM161.884 85.2794C162.247 85.2794 162.553 85.2083 162.802 85.0653C163.031 84.9415 163.222 84.7588 163.356 84.5359C163.49 84.3131 163.562 84.0584 163.564 83.7982V82.9569C163.525 83.0034 163.44 83.0466 163.307 83.0855C163.159 83.1261 163.008 83.1586 162.856 83.1829C162.564 83.2284 162.271 83.2674 161.978 83.2997C161.75 83.3283 161.526 83.3793 161.309 83.452C161.104 83.5197 160.938 83.6213 160.81 83.7593C160.686 83.8947 160.624 84.0792 160.624 84.3128C160.624 84.6328 160.742 84.874 160.978 85.0382C161.217 85.199 161.518 85.2794 161.884 85.2794ZM168.756 79.9793V80.758H165.66V79.9793H168.756ZM166.563 78.5446H167.48V84.251C167.48 84.5109 167.518 84.7055 167.593 84.835C167.671 84.962 167.77 85.0483 167.889 85.0923C168.011 85.1347 168.139 85.155 168.274 85.155C168.375 85.155 168.458 85.1499 168.523 85.1397L168.679 85.1084L168.865 85.9345C168.78 85.9641 168.693 85.9876 168.604 86.0048C168.465 86.0335 168.323 86.0465 168.18 86.0437C167.921 86.0437 167.667 85.9878 167.418 85.8761C167.172 85.7643 166.959 85.588 166.804 85.3657C166.643 85.1372 166.563 84.8486 166.563 84.4999V78.5446ZM172.578 86.0902C172.002 86.0902 171.506 85.9633 171.088 85.7085C170.671 85.4495 170.338 85.0761 170.127 84.6328C169.904 84.1698 169.793 83.6323 169.793 83.0187C169.793 82.4059 169.904 81.865 170.127 81.3978C170.333 80.9507 170.659 80.5699 171.068 80.2984C171.473 80.0334 171.945 79.9006 172.484 79.9006C172.796 79.9006 173.103 79.953 173.407 80.0571C173.716 80.1643 173.998 80.337 174.235 80.5633C174.484 80.7952 174.682 81.1016 174.83 81.4833C174.978 81.865 175.052 82.3356 175.052 82.8943V83.2836H170.447V82.4888H174.119C174.119 82.1511 174.051 81.8498 173.916 81.5849C173.789 81.3265 173.593 81.1092 173.348 80.9577C173.088 80.7999 172.788 80.72 172.484 80.7275C172.119 80.7275 171.802 80.8181 171.536 81C171.274 81.1761 171.063 81.4181 170.925 81.7017C170.782 81.9899 170.709 82.3076 170.711 82.6293V83.1592C170.711 83.6112 170.789 83.9946 170.944 84.3094C171.102 84.6209 171.322 84.8587 171.601 85.0221C171.882 85.1829 172.207 85.2642 172.578 85.2642C172.819 85.2642 173.037 85.2303 173.232 85.1626C173.422 85.0966 173.596 84.9904 173.741 84.8511C173.888 84.7036 174.001 84.5253 174.071 84.3289L174.958 84.5777C174.865 84.8799 174.708 85.1448 174.488 85.3733C174.256 85.6065 173.978 85.7872 173.671 85.9032C173.321 86.0324 172.951 86.0958 172.578 86.0902ZM178.704 86.0902C178.206 86.0902 177.767 85.9641 177.386 85.7119C177.004 85.458 176.706 85.0991 176.491 84.637C176.276 84.1715 176.168 83.6213 176.168 82.9882C176.168 82.3593 176.276 81.8134 176.491 81.3513C176.706 80.8883 177.006 80.5311 177.389 80.2789C177.774 80.0267 178.216 79.9014 178.72 79.9014C179.109 79.9014 179.416 79.9657 179.641 80.0961C179.87 80.223 180.043 80.3686 180.162 80.532C180.285 80.6928 180.38 80.8257 180.447 80.9298H180.525V77.9835H181.442V85.965H180.556V85.0458H180.447C180.38 85.155 180.283 85.2929 180.159 85.4588C180.013 85.6402 179.832 85.7899 179.626 85.899C179.395 86.0259 179.088 86.0902 178.704 86.0902ZM178.829 85.2642C179.197 85.2642 179.508 85.1677 179.762 84.9764C180.016 84.7809 180.21 84.5117 180.341 84.1689C180.474 83.8236 180.54 83.4241 180.54 82.9721C180.54 82.5252 180.475 82.1342 180.346 81.799C180.216 81.4613 180.024 81.1989 179.77 81.0119C179.515 80.8223 179.202 80.7275 178.829 80.7275C178.439 80.7275 178.116 80.8274 177.856 81.0271C177.591 81.2361 177.39 81.516 177.277 81.8346C177.145 82.199 177.08 82.5845 177.086 82.9721C177.086 83.3987 177.151 83.7855 177.28 84.1334C177.413 84.4796 177.607 84.7546 177.864 84.9603C178.123 85.1634 178.445 85.2642 178.829 85.2642Z" fill="#A1A1A1"/>
<path d="M198.013 92.8609H144.932C143.07 92.8609 141.561 94.3729 141.561 96.238C141.561 98.1031 143.07 99.6151 144.932 99.6151H198.013C199.875 99.6151 201.384 98.1031 201.384 96.238C201.384 94.3729 199.875 92.8609 198.013 92.8609Z" fill="#484848"/>
<path d="M319.343 80.5127H280.31C277.518 80.5127 275.254 82.7809 275.254 85.5788V91.9111C275.254 94.7091 277.518 96.9772 280.31 96.9772H319.343C322.135 96.9772 324.399 94.7091 324.399 91.9111V85.5788C324.399 82.7809 322.135 80.5127 319.343 80.5127Z" fill="#2E5235" fill-opacity="0.3"/>
<path d="M285.48 87.5813H284.738C284.662 87.1889 284.438 86.8409 284.113 86.6105C283.957 86.4978 283.784 86.4125 283.601 86.3583C283.41 86.3016 283.213 86.2731 283.014 86.2737C282.644 86.2737 282.307 86.3685 282.006 86.5564C281.707 86.7443 281.469 87.021 281.291 87.3867C281.116 87.7523 281.028 88.2009 281.028 88.7324C281.028 89.2648 281.116 89.7134 281.291 90.0782C281.469 90.4447 281.707 90.7215 282.006 90.9094C282.307 91.0973 282.644 91.1912 283.014 91.1912C283.218 91.1912 283.413 91.1633 283.601 91.1066C283.788 91.0515 283.959 90.9686 284.113 90.8586C284.437 90.6253 284.661 90.277 284.738 89.8844H285.48C285.43 90.1813 285.327 90.4666 285.175 90.7265C284.886 91.2164 284.427 91.5819 283.885 91.7524C283.604 91.8436 283.31 91.8891 283.014 91.8869C282.492 91.8869 282.027 91.7591 281.62 91.5035C281.214 91.2471 280.893 90.8831 280.659 90.4117C280.426 89.9402 280.31 89.3808 280.31 88.7333C280.31 88.0849 280.426 87.5255 280.659 87.054C280.893 86.5826 281.214 86.2186 281.62 85.9622C282.027 85.7066 282.492 85.5788 283.014 85.5788C283.324 85.5788 283.614 85.6236 283.885 85.7142C284.158 85.8039 284.405 85.9359 284.624 86.1095C284.844 86.2813 285.027 86.4912 285.175 86.7392C285.322 86.9846 285.424 87.2656 285.48 87.5813ZM290.7 85.6634H291.443V89.7278C291.443 90.1476 291.344 90.5234 291.146 90.8526C290.947 91.1833 290.66 91.452 290.318 91.6288C289.96 91.8167 289.541 91.9106 289.061 91.9106C288.58 91.9106 288.161 91.8175 287.804 91.6288C287.461 91.4518 287.173 91.1832 286.973 90.8526C286.774 90.512 286.672 90.1232 286.679 89.7286V85.6626H287.421V89.6685C287.421 89.9682 287.487 90.2356 287.619 90.4684C287.751 90.7003 287.937 90.8831 288.181 91.0177C288.426 91.1497 288.719 91.2149 289.061 91.2149C289.402 91.2149 289.695 91.1489 289.94 91.0177C290.177 90.8928 290.372 90.702 290.503 90.4684C290.637 90.2236 290.705 89.9479 290.7 89.6685V85.6626V85.6634ZM292.924 91.8031V85.6626H294.995C295.474 85.6626 295.866 85.7447 296.174 85.908C296.481 86.0705 296.709 86.2931 296.856 86.5767C297.003 86.8611 297.077 87.1835 297.077 87.5458C297.077 87.9072 297.003 88.228 296.856 88.5081C296.703 88.7936 296.466 89.0243 296.176 89.1683C295.872 89.3258 295.481 89.4045 295.007 89.4045H293.332V88.7324H294.983C295.31 88.7324 295.573 88.685 295.773 88.5885C295.96 88.5063 296.114 88.3627 296.209 88.1814C296.301 88.0037 296.347 87.7921 296.347 87.5458C296.347 87.3003 296.301 87.0845 296.209 86.9008C296.115 86.7135 295.96 86.5635 295.769 86.4751C295.568 86.3735 295.302 86.3227 294.971 86.3227H293.666V91.8031H292.924ZM295.809 89.0439L297.317 91.8031H296.455L294.971 89.0439H295.809ZM298.314 91.8031V85.6626H300.384C300.863 85.6626 301.256 85.7447 301.563 85.908C301.871 86.0705 302.098 86.2931 302.246 86.5767C302.393 86.8611 302.467 87.1835 302.467 87.5458C302.467 87.9072 302.393 88.228 302.246 88.5081C302.093 88.7932 301.856 89.0239 301.566 89.1683C301.261 89.3258 300.871 89.4045 300.397 89.4045H298.721V88.7324H300.372C300.7 88.7324 300.963 88.685 301.162 88.5885C301.364 88.4929 301.509 88.3566 301.599 88.1814C301.691 88.0037 301.736 87.7921 301.736 87.5458C301.736 87.3003 301.691 87.0845 301.599 86.9008C301.504 86.7138 301.349 86.564 301.159 86.4751C300.957 86.3735 300.691 86.3227 300.36 86.3227H299.056V91.8031H298.314ZM301.198 89.0439L302.706 91.8031H301.844L300.36 89.0439H301.198ZM303.704 91.8031V85.6626H307.402V86.3227H304.445V88.3964H307.21V89.0566H304.445V91.143H307.449V91.8031H303.704ZM313.598 85.6634V91.8031H312.88L309.54 86.9821H309.481V91.8031H308.739V85.6626H309.457L312.808 90.4955H312.868V85.6626H313.598V85.6634ZM314.748 86.3227V85.6626H319.344V86.3227H317.416V91.8031H316.675V86.3227H314.748Z" fill="#A2CEAD"/>
<path d="M319.344 80.9351H280.31C277.75 80.9351 275.676 83.0141 275.676 85.5787V91.9111C275.676 94.4758 277.75 96.5548 280.31 96.5548H319.344C321.903 96.5548 323.978 94.4758 323.978 91.9111V85.5787C323.978 83.0141 321.903 80.9351 319.344 80.9351Z" stroke="#3A523E" stroke-width="0.843008"/>
<path d="M331.123 62.0801H10.1376C6.63827 62.0801 3.80151 64.9228 3.80151 68.4294V109.06C3.80151 112.566 6.63827 115.409 10.1376 115.409H331.123C334.623 115.409 337.459 112.566 337.459 109.06V68.4294C337.459 64.9228 334.623 62.0801 331.123 62.0801Z" stroke="#484848" stroke-width="0.843008"/>
</g>
</g>
<defs>
<clipPath id="clip0_1_564">
<rect width="314.01" height="51.47" fill="white" transform="translate(13.52 111.09)"/>
</clipPath>
<clipPath id="clip1_1_564">
<rect width="314.01" height="51.47" fill="white" transform="translate(13.52 111.09)"/>
</clipPath>
<clipPath id="clip2_1_564">
<rect width="314.01" height="51.47" fill="white" transform="translate(13.52 14.67)"/>
</clipPath>
<clipPath id="clip3_1_564">
<rect width="314.01" height="51.47" fill="white" transform="translate(13.52 14.67)"/>
</clipPath>
<clipPath id="clip4_1_564">
<rect width="334.5" height="55.02" fill="white" transform="translate(3.38 61.5901)"/>
</clipPath>
<clipPath id="clip5_1_564">
<rect width="334.5" height="55.02" fill="white" transform="translate(3.38 61.5901)"/>
</clipPath>
</defs>
</svg>
