<svg width="361" height="187" viewBox="0 0 361 187" fill="none" xmlns="http://www.w3.org/2000/svg">
<g clip-path="url(#clip0_1_405)">
<g clip-path="url(#clip1_1_405)">
<path d="M332.875 100.451H27.6366C23.5837 100.451 20.2982 103.69 20.2982 107.684V166.506C20.2982 170.501 23.5837 173.739 27.6366 173.739H332.875C336.928 173.739 340.214 170.501 340.214 166.506V107.684C340.214 103.69 336.928 100.451 332.875 100.451Z" fill="#303030"/>
<path d="M45.2612 115.88H41.3185C38.3543 115.88 35.9514 118.248 35.9514 121.17V125.056C35.9514 127.978 38.3543 130.346 41.3185 130.346H45.2612C48.2253 130.346 50.6283 127.978 50.6283 125.056V121.17C50.6283 118.248 48.2253 115.88 45.2612 115.88Z" fill="#29342B"/>
<path d="M45.2465 119.256H41.3332C40.2525 119.256 39.3765 120.119 39.3765 121.184V125.041C39.3765 126.107 40.2525 126.97 41.3332 126.97H45.2465C46.3271 126.97 47.2031 126.107 47.2031 125.041V121.184C47.2031 120.119 46.3271 119.256 45.2465 119.256Z" fill="#A2CEAD"/>
<path d="M45.2612 115.88H41.3185C38.3543 115.88 35.9514 118.248 35.9514 121.17V125.056C35.9514 127.978 38.3543 130.346 41.3185 130.346H45.2612C48.2253 130.346 50.6283 127.978 50.6283 125.056V121.17C50.6283 118.248 48.2253 115.88 45.2612 115.88Z" stroke="#3A523E" stroke-width="0.968367"/>
<path d="M61.4319 117.385V128.416H60.0231V117.385H61.4319ZM67.2794 120.332C68.062 120.332 68.7038 120.554 69.2047 120.995C69.7056 121.427 69.9561 122.07 69.9561 122.924V128.416H68.7038V123.232C68.7038 122.688 68.5629 122.25 68.2812 121.921C67.9994 121.582 67.5611 121.412 66.9663 121.412C66.2668 121.412 65.6984 121.608 65.2601 121.998C64.8316 122.389 64.6183 122.893 64.6183 123.51V128.416H63.3661V120.548H64.6183V121.489H64.6496C64.9001 121.16 65.2445 120.887 65.6827 120.671C66.121 120.445 66.6532 120.332 67.2794 120.332ZM74.8761 123.742C74.97 123.762 75.33 123.85 75.9562 124.004C76.5921 124.149 77.0773 124.41 77.4119 124.791C77.7455 125.172 77.9128 125.66 77.9128 126.256C77.9128 126.729 77.7768 127.146 77.5058 127.506C77.2338 127.866 76.8582 128.144 76.3788 128.339C75.9092 128.535 75.3711 128.632 74.7665 128.632C73.5866 128.632 72.6944 128.381 72.0898 127.876C71.4842 127.372 71.1604 126.678 71.1193 125.794H72.3716C72.4234 126.338 72.6064 126.77 72.9194 127.09C73.2423 127.398 73.8586 127.552 74.7665 127.552C75.3926 127.552 75.8622 127.429 76.1753 127.182C76.4981 126.925 76.6605 126.642 76.6605 126.334C76.6605 126.025 76.5823 125.784 76.4257 125.608C76.277 125.432 76.0821 125.298 75.8622 125.223C75.5516 125.106 75.2324 125.013 74.9074 124.945L74.4691 124.852C74.3169 124.82 74.1655 124.784 74.0152 124.744C73.564 124.656 73.1195 124.537 72.6846 124.39C72.3387 124.255 72.0321 124.037 71.7924 123.757C71.5517 123.469 71.4324 123.072 71.4324 122.569C71.4324 122.157 71.5517 121.782 71.7924 121.443C72.0321 121.103 72.3765 120.835 72.8255 120.64C73.2853 120.435 73.8166 120.332 74.4221 120.332C75.3711 120.332 76.1225 120.563 76.6762 121.026C77.229 121.489 77.5371 122.08 77.5997 122.8H76.3475C76.2779 122.425 76.0919 122.08 75.8153 121.813C75.5541 121.546 75.0894 121.412 74.4221 121.412C73.8684 121.412 73.4409 121.509 73.1386 121.705C72.8353 121.901 72.6846 122.158 72.6846 122.476C72.6846 122.723 72.757 122.919 72.9038 123.063C73.0505 123.207 73.2325 123.314 73.4516 123.387C73.6806 123.459 73.9995 123.541 74.4065 123.634L74.8761 123.742ZM80.883 121.628V126.364C80.883 126.735 80.9711 126.991 81.1491 127.136C81.3262 127.281 81.6187 127.352 82.0257 127.352C82.2028 127.352 82.3436 127.347 82.4483 127.336V128.416C82.1396 128.481 81.8247 128.512 81.5091 128.509C80.9143 128.509 80.4496 128.36 80.116 128.062C79.7931 127.763 79.6307 127.239 79.6307 126.488V121.628H78.4568V120.548H79.6307V117.925H80.883V120.548H82.4483V121.628H80.883ZM88.6411 122.554C88.6411 121.792 88.0991 121.412 87.0132 121.412C86.2618 121.412 85.7355 121.53 85.4322 121.767C85.1299 122.003 84.9577 122.41 84.9157 122.986H83.6634C83.7055 122.173 83.998 121.53 84.54 121.057C85.083 120.574 85.9077 120.332 87.0132 120.332C87.8692 120.332 88.5629 120.528 89.0951 120.918C89.6273 121.299 89.8934 121.931 89.8934 122.816V126.642C89.8934 126.951 89.9355 127.177 90.0186 127.321C90.1125 127.455 90.2955 127.522 90.5665 127.522C90.6604 127.522 90.7387 127.517 90.8013 127.506V128.37C90.5644 128.45 90.316 128.492 90.0656 128.494C89.6693 128.494 89.3563 128.421 89.1264 128.278C88.9072 128.123 88.7458 127.841 88.6411 127.429H88.6098C88.3386 127.818 87.9653 128.127 87.5298 128.324C87.0817 128.529 86.5387 128.632 85.9018 128.632C85.0986 128.632 84.4568 128.427 83.9765 128.015C83.5069 127.604 83.2721 127.064 83.2721 126.395C83.2721 125.82 83.4081 125.362 83.6791 125.022C83.951 124.683 84.3208 124.425 84.7904 124.251C85.2708 124.066 85.9018 123.901 86.6845 123.757C87.0755 123.692 87.4623 123.605 87.8428 123.495C88.104 123.413 88.3026 123.299 88.4376 123.155C88.5736 123.011 88.6411 122.811 88.6411 122.554ZM86.027 127.552C86.8097 127.552 87.4417 127.372 87.9211 127.012C88.4014 126.642 88.6411 126.096 88.6411 125.377V124.066C88.4327 124.271 87.8174 124.477 86.7941 124.683C85.9801 124.857 85.396 125.064 85.0409 125.3C84.6965 125.536 84.5243 125.881 84.5243 126.334C84.5243 127.146 85.0252 127.552 86.027 127.552ZM95.6508 120.332C96.4335 120.332 97.0753 120.554 97.5762 120.995C98.0771 121.427 98.3275 122.07 98.3275 122.924V128.416H97.0753V123.232C97.0753 122.688 96.9344 122.25 96.6526 121.921C96.3709 121.582 95.9326 121.412 95.3378 121.412C94.6383 121.412 94.0699 121.608 93.6316 121.998C93.2031 122.389 92.9898 122.893 92.9898 123.51V128.416H91.7375V120.548H92.9898V121.489H93.0211C93.2715 121.16 93.6159 120.887 94.0542 120.671C94.4925 120.445 95.0247 120.332 95.6508 120.332ZM105.674 123.387C105.633 122.874 105.418 122.391 105.063 122.014C104.697 121.612 104.15 121.412 103.42 121.412C102.543 121.412 101.886 121.716 101.447 122.322C101.019 122.93 100.806 123.649 100.806 124.482C100.806 125.315 101.019 126.035 101.447 126.642C101.886 127.25 102.543 127.552 103.42 127.552C104.16 127.552 104.708 127.352 105.063 126.951C105.428 126.55 105.632 126.071 105.674 125.516H106.926C106.903 126.083 106.728 126.633 106.417 127.111C106.106 127.588 105.671 127.975 105.157 128.231C104.646 128.498 104.066 128.632 103.42 128.632C102.647 128.632 101.969 128.458 101.385 128.108C100.799 127.757 100.327 127.248 100.023 126.642C99.7099 126.015 99.5534 125.295 99.5534 124.482C99.5534 123.669 99.7099 122.949 100.023 122.322C100.326 121.716 100.799 121.208 101.385 120.856C101.969 120.506 102.647 120.332 103.42 120.332C104.066 120.332 104.641 120.466 105.142 120.733C105.652 120.99 106.059 121.35 106.363 121.813C106.676 122.276 106.863 122.8 106.926 123.387H105.674ZM111.521 127.552C112.231 127.552 112.773 127.389 113.149 127.059C113.525 126.73 113.76 126.374 113.854 125.994H115.106C114.907 126.744 114.474 127.413 113.869 127.907C113.274 128.39 112.507 128.632 111.568 128.632C110.775 128.632 110.081 128.463 109.486 128.123C108.903 127.774 108.435 127.265 108.14 126.658C107.827 126.031 107.671 125.305 107.671 124.482C107.671 123.186 108.015 122.173 108.704 121.443C109.392 120.702 110.326 120.332 111.506 120.332C112.736 120.332 113.666 120.722 114.292 121.504C114.918 122.286 115.231 123.387 115.231 124.806H108.923C108.923 125.3 109.022 125.758 109.22 126.179C109.418 126.591 109.71 126.925 110.097 127.182C110.493 127.429 110.968 127.552 111.521 127.552ZM111.506 121.412C111.014 121.412 110.571 121.515 110.175 121.72C109.797 121.918 109.478 122.211 109.252 122.569C109.033 122.916 108.919 123.318 108.923 123.726H113.979C113.979 123.305 113.874 122.919 113.666 122.569C113.468 122.21 113.169 121.915 112.805 121.72C112.429 121.515 111.996 121.412 111.506 121.412ZM119.542 121.489C119.542 120.327 119.87 119.38 120.528 118.65C121.185 117.91 122.156 117.539 123.439 117.539C124.065 117.539 124.64 117.668 125.161 117.925C125.683 118.172 126.1 118.537 126.413 119.02C126.726 119.504 126.883 120.074 126.883 120.733C126.883 121.37 126.731 121.932 126.429 122.415C126.127 122.887 125.756 123.284 125.318 123.603C124.89 123.911 124.321 124.271 123.611 124.683C122.808 125.136 122.192 125.536 121.764 125.886C121.362 126.213 121.072 126.655 120.935 127.151V127.182H126.726V128.416H119.229C119.229 126.596 120.304 125.068 122.453 123.834L123.079 123.479C123.726 123.12 124.201 122.831 124.504 122.615C124.798 122.419 125.044 122.161 125.224 121.859C125.391 121.56 125.474 121.191 125.474 120.748C125.474 120.204 125.318 119.741 125.005 119.36C124.691 118.969 124.159 118.774 123.408 118.774C122.521 118.774 121.89 119.02 121.514 119.514C121.138 120.008 120.95 120.666 120.95 121.489H119.542Z" fill="white"/>
<path d="M66.8479 153.006H65.8138C65.7091 152.468 65.397 151.991 64.9431 151.675C64.7269 151.52 64.4854 151.403 64.2289 151.329C63.9637 151.252 63.6886 151.213 63.412 151.214C62.8955 151.214 62.4269 151.343 62.0072 151.6C61.5904 151.858 61.2587 152.237 61.0112 152.739C60.7666 153.24 60.6444 153.855 60.6444 154.583C60.6444 155.312 60.7666 155.928 61.0112 156.429C61.2587 156.93 61.5904 157.309 62.0072 157.567C62.4278 157.824 62.8955 157.953 63.412 157.953C63.6958 157.953 63.9677 157.914 64.2289 157.838C64.4902 157.761 64.7279 157.648 64.9431 157.497C65.3945 157.177 65.7056 156.7 65.8138 156.162H66.8469C66.7778 156.569 66.6339 156.96 66.4223 157.316C66.0201 157.987 65.3799 158.488 64.6252 158.722C64.2475 158.845 63.8425 158.906 63.412 158.906C62.6842 158.906 62.0365 158.732 61.4691 158.381C60.9017 158.03 60.4565 157.532 60.1317 156.885C59.8059 156.239 59.6425 155.471 59.6425 154.583C59.6425 153.696 59.8059 152.929 60.1317 152.283C60.4565 151.636 60.9026 151.137 61.4691 150.787C62.0365 150.436 62.6842 150.26 63.412 150.26C63.8425 150.26 64.2475 150.322 64.6252 150.446C65.0067 150.569 65.3491 150.75 65.6553 150.988C65.9606 151.224 66.2169 151.511 66.4223 151.852C66.6278 152.188 66.7697 152.573 66.8469 153.006H66.8479ZM72.4205 156.211V152.479H73.4047V158.791H72.4205V157.723H72.3539C72.1972 158.051 71.9556 158.333 71.6535 158.541C71.3365 158.763 70.9363 158.873 70.4531 158.873C70.0519 158.873 69.6968 158.787 69.3857 158.615C69.0662 158.431 68.8104 158.156 68.652 157.826C68.4739 157.472 68.3849 157.027 68.3849 156.491V152.479H69.3691V156.424C69.3691 156.885 69.4992 157.252 69.7604 157.525C70.0245 157.8 70.3611 157.937 70.7691 157.937C71.0136 157.937 71.2631 157.875 71.5155 157.752C71.7718 157.629 71.9851 157.44 72.1583 157.185C72.3324 156.93 72.4205 156.605 72.4205 156.211ZM75.2067 158.791V152.48H76.1567V153.433H76.2232C76.3406 153.121 76.5519 152.867 76.8572 152.673C77.1653 152.478 77.5249 152.376 77.8913 152.381C78.0636 152.382 78.2358 152.388 78.4078 152.397V153.384C78.332 153.369 78.2557 153.356 78.1789 153.347C78.0615 153.328 77.9382 153.318 77.8071 153.318C77.497 153.318 77.2182 153.383 76.9736 153.511C76.734 153.632 76.5335 153.816 76.3949 154.044C76.2564 154.271 76.1854 154.532 76.19 154.797V158.791H75.2067ZM79.574 158.791V152.48H80.5249V153.433H80.5914C80.7111 153.117 80.9342 152.85 81.2254 152.673C81.5335 152.478 81.8932 152.376 82.2595 152.381C82.4318 152.382 82.604 152.388 82.7761 152.397V153.384C82.7003 153.369 82.6239 153.356 82.5471 153.347C82.4297 153.328 82.3065 153.318 82.1754 153.318C81.8643 153.318 81.5864 153.383 81.3418 153.511C81.1022 153.632 80.9017 153.816 80.7632 154.044C80.6246 154.271 80.5536 154.532 80.5582 154.797V158.791H79.574ZM86.4321 158.923C85.8157 158.923 85.2835 158.789 84.8354 158.521C84.3893 158.247 84.032 157.854 83.8062 157.387C83.5665 156.899 83.4472 156.332 83.4472 155.685C83.4472 155.038 83.5665 154.469 83.8062 153.976C84.0264 153.504 84.3757 153.103 84.8149 152.817C85.2483 152.537 85.7541 152.397 86.3323 152.397C86.6686 152.398 87.0025 152.453 87.3204 152.561C87.6452 152.671 87.9416 152.851 88.2087 153.096C88.4748 153.34 88.6881 153.663 88.8466 154.066C89.0051 154.469 89.0843 154.964 89.0843 155.553V155.964H84.1477V155.125H88.0835C88.0835 154.77 88.0111 154.452 87.8663 154.173C87.7308 153.9 87.5198 153.671 87.2578 153.511C86.9791 153.345 86.6579 153.261 86.3323 153.269C85.9409 153.269 85.6015 153.365 85.3148 153.556C85.0344 153.742 84.8086 153.997 84.6603 154.296C84.5076 154.6 84.4292 154.935 84.4314 155.274V155.833C84.4314 156.309 84.5145 156.713 84.6818 157.045C84.8511 157.373 85.0859 157.624 85.3862 157.797C85.7061 157.972 86.0674 158.06 86.433 158.052C86.6913 158.052 86.9242 158.016 87.1325 157.946C87.3439 157.871 87.5258 157.762 87.6794 157.616C87.832 157.468 87.9494 157.285 88.0336 157.066L88.9835 157.329C88.8837 157.647 88.7155 157.927 88.4797 158.168C88.2429 158.405 87.9514 158.592 87.6041 158.726C87.229 158.862 86.8317 158.929 86.4321 158.923ZM91.5644 154.994V158.791H90.5802V152.48H91.5311V153.466H91.6142C91.7649 153.146 91.9929 152.887 92.2991 152.694C92.6043 152.497 92.9986 152.397 93.4829 152.397C93.9153 152.397 94.2949 152.485 94.6206 152.661C94.9455 152.833 95.1979 153.096 95.3788 153.449C95.5598 153.8 95.6498 154.244 95.6498 154.78V158.791H94.6666V154.848C94.6666 154.351 94.5355 153.964 94.2743 153.688C94.0131 153.408 93.655 153.269 93.1982 153.269C92.8851 153.269 92.6043 153.337 92.3568 153.47C92.1122 153.605 91.9185 153.8 91.7766 154.058C91.6348 154.315 91.5644 154.627 91.5644 154.994ZM100.232 152.48V153.302H96.9148V152.48H100.232ZM97.8814 150.967H98.8656V156.983C98.8656 157.257 98.9057 157.463 98.9859 157.601C99.057 157.724 99.1689 157.819 99.3029 157.871C99.434 157.915 99.571 157.937 99.7158 157.937C99.8234 157.937 99.9134 157.931 99.9828 157.921L100.149 157.887L100.35 158.759C100.258 158.79 100.165 158.815 100.07 158.833C99.9206 158.863 99.7683 158.877 99.616 158.873C99.3381 158.873 99.0652 158.816 98.7991 158.697C98.5344 158.579 98.3067 158.393 98.1397 158.159C97.9675 157.918 97.8814 157.613 97.8814 157.247V150.967ZM105.149 158.791V150.376H108.034C108.701 150.376 109.249 150.488 109.676 150.714C110.105 150.935 110.422 151.24 110.627 151.63C110.832 152.018 110.936 152.461 110.936 152.957C110.936 153.452 110.832 153.892 110.627 154.276C110.422 154.66 110.107 154.96 109.681 155.179C109.255 155.396 108.712 155.504 108.051 155.504H105.716V154.583H108.017C108.473 154.583 108.84 154.518 109.118 154.387C109.379 154.273 109.593 154.076 109.727 153.827C109.854 153.583 109.919 153.293 109.919 152.957C109.919 152.619 109.854 152.325 109.727 152.073C109.594 151.817 109.378 151.611 109.114 151.49C108.833 151.35 108.462 151.28 108 151.28H106.183V158.791H105.149ZM109.168 155.011L111.268 158.791H110.067L107.999 155.011H109.168ZM115.058 158.923C114.48 158.923 113.972 158.788 113.537 158.516C113.096 158.237 112.744 157.843 112.519 157.378C112.277 156.89 112.156 156.321 112.156 155.668C112.156 155.011 112.277 154.437 112.518 153.947C112.742 153.48 113.095 153.084 113.536 152.804C113.973 152.533 114.48 152.397 115.058 152.397C115.635 152.397 116.142 152.532 116.575 152.804C117.012 153.075 117.351 153.456 117.593 153.947C117.837 154.437 117.96 155.011 117.96 155.668C117.96 156.32 117.837 156.89 117.593 157.378C117.351 157.866 117.012 158.246 116.575 158.516C116.142 158.788 115.636 158.923 115.058 158.923ZM115.058 158.052C115.497 158.052 115.858 157.941 116.142 157.719C116.426 157.497 116.635 157.205 116.771 156.844C116.908 156.482 116.976 156.091 116.976 155.668C116.976 155.247 116.908 154.853 116.771 154.489C116.648 154.143 116.43 153.837 116.142 153.606C115.858 153.381 115.496 153.268 115.058 153.268C114.619 153.268 114.258 153.381 113.974 153.606C113.69 153.83 113.481 154.124 113.345 154.489C113.206 154.867 113.136 155.266 113.139 155.668C113.139 156.091 113.208 156.482 113.345 156.845C113.481 157.205 113.69 157.497 113.974 157.719C114.258 157.941 114.619 158.052 115.058 158.052ZM120.446 150.376V158.791H119.461V150.376H120.446ZM123.231 150.376V158.791H122.248V150.376H123.231ZM127.634 158.923C127.056 158.923 126.549 158.788 126.113 158.516C125.673 158.237 125.32 157.843 125.096 157.378C124.854 156.89 124.733 156.321 124.733 155.668C124.733 155.011 124.854 154.437 125.096 153.947C125.34 153.456 125.68 153.075 126.113 152.804C126.549 152.533 127.056 152.397 127.634 152.397C128.212 152.397 128.718 152.532 129.152 152.804C129.594 153.082 129.948 153.478 130.169 153.947C130.414 154.437 130.536 155.011 130.536 155.668C130.536 156.32 130.414 156.89 130.169 157.378C129.946 157.845 129.593 158.239 129.152 158.516C128.718 158.788 128.212 158.923 127.634 158.923ZM127.634 158.052C128.074 158.052 128.436 157.941 128.718 157.719C129.002 157.497 129.212 157.205 129.348 156.844C129.487 156.467 129.556 156.069 129.553 155.668C129.553 155.247 129.484 154.853 129.348 154.489C129.225 154.143 129.007 153.837 128.718 153.606C128.436 153.381 128.074 153.268 127.634 153.268C127.195 153.268 126.834 153.381 126.55 153.606C126.262 153.837 126.044 154.143 125.921 154.489C125.783 154.867 125.713 155.266 125.717 155.668C125.717 156.091 125.785 156.482 125.921 156.845C126.057 157.205 126.268 157.497 126.55 157.719C126.834 157.941 127.195 158.052 127.634 158.052ZM136.073 156.21V152.48H137.058V158.791H136.073V157.723H136.007C135.85 158.051 135.609 158.334 135.306 158.541C134.989 158.763 134.589 158.873 134.106 158.873C133.706 158.873 133.35 158.787 133.039 158.615C132.719 158.431 132.463 158.156 132.305 157.826C132.127 157.472 132.038 157.027 132.038 156.491V152.479H133.022V156.424C133.022 156.885 133.153 157.252 133.414 157.525C133.678 157.8 134.014 157.937 134.423 157.937C134.667 157.937 134.916 157.875 135.169 157.752C135.425 157.629 135.639 157.44 135.811 157.185C135.986 156.93 136.073 156.604 136.073 156.21ZM141.645 152.48V153.302H138.326V152.48H141.645ZM139.293 150.967H140.277V156.983C140.277 157.257 140.317 157.463 140.398 157.601C140.469 157.724 140.581 157.819 140.714 157.871C140.846 157.915 140.984 157.937 141.127 157.937C141.236 157.937 141.325 157.931 141.394 157.921L141.561 157.887L141.761 158.759C141.67 158.79 141.576 158.815 141.481 158.833C141.332 158.863 141.18 158.877 141.028 158.873C140.75 158.873 140.477 158.816 140.211 158.697C139.946 158.579 139.718 158.393 139.551 158.159C139.379 157.918 139.293 157.613 139.293 157.247V150.967Z" fill="#A1A1A1"/>
<path d="M184.658 151.077H154.33C152.439 151.077 150.906 152.588 150.906 154.452C150.906 156.316 152.439 157.827 154.33 157.827H184.658C186.549 157.827 188.082 156.316 188.082 154.452C188.082 152.588 186.549 151.077 184.658 151.077Z" fill="#484848"/>
<path d="M317.221 121.666H301.568C297.245 121.666 293.741 125.12 293.741 129.381V144.809C293.741 149.07 297.245 152.524 301.568 152.524H317.221C321.544 152.524 325.048 149.07 325.048 144.809V129.381C325.048 125.12 321.544 121.666 317.221 121.666Z" fill="#484848"/>
<path d="M306.46 131.309L312.33 137.095L306.46 142.881" stroke="white" stroke-width="0.971281"/>
<path d="M332.875 100.451H27.6366C23.5837 100.451 20.2982 103.69 20.2982 107.684V166.506C20.2982 170.501 23.5837 173.739 27.6366 173.739H332.875C336.928 173.739 340.214 170.501 340.214 166.506V107.684C340.214 103.69 336.928 100.451 332.875 100.451Z" stroke="#484848" stroke-width="0.968367"/>
</g>
</g>
<g clip-path="url(#clip2_1_405)">
<g clip-path="url(#clip3_1_405)">
<path d="M332.875 13.0012H27.6366C23.5837 13.0012 20.2982 16.2396 20.2982 20.2343V79.0558C20.2982 83.0505 23.5837 86.2889 27.6366 86.2889H332.875C336.928 86.2889 340.214 83.0505 340.214 79.0558V20.2343C340.214 16.2396 336.928 13.0012 332.875 13.0012Z" fill="#303030"/>
<path d="M45.2612 28.4298H41.3185C38.3543 28.4298 35.9514 30.7983 35.9514 33.7199V37.606C35.9514 40.5276 38.3543 42.896 41.3185 42.896H45.2612C48.2253 42.896 50.6283 40.5276 50.6283 37.606V33.7199C50.6283 30.7983 48.2253 28.4298 45.2612 28.4298Z" fill="#29342B"/>
<path d="M45.2465 31.8058H41.3332C40.2525 31.8058 39.3765 32.6692 39.3765 33.7344V37.5915C39.3765 38.6566 40.2525 39.5201 41.3332 39.5201H45.2465C46.3271 39.5201 47.2031 38.6566 47.2031 37.5915V33.7344C47.2031 32.6692 46.3271 31.8058 45.2465 31.8058Z" fill="#A2CEAD"/>
<path d="M45.2612 28.4298H41.3185C38.3543 28.4298 35.9514 30.7983 35.9514 33.7199V37.606C35.9514 40.5276 38.3543 42.896 41.3185 42.896H45.2612C48.2253 42.896 50.6283 40.5276 50.6283 37.606V33.7199C50.6283 30.7983 48.2253 28.4298 45.2612 28.4298Z" stroke="#3A523E" stroke-width="0.968367"/>
<path d="M61.4319 29.9351V40.9665H60.0231V29.9351H61.4319ZM67.2794 32.8819C68.062 32.8819 68.7038 33.1037 69.2047 33.5453C69.7056 33.9773 69.9561 34.6205 69.9561 35.4739V40.9665H68.7038V35.7825C68.7038 35.2377 68.5629 34.7999 68.2812 34.4711C67.9994 34.1316 67.5611 33.9619 66.9663 33.9619C66.2668 33.9619 65.6984 34.1577 65.2601 34.5482C64.8316 34.9387 64.6183 35.4431 64.6183 36.0602V40.9665H63.3661V33.0979H64.6183V34.0391H64.6496C64.9001 33.7102 65.2445 33.4373 65.6827 33.2213C66.121 32.9947 66.6532 32.8819 67.2794 32.8819ZM74.8761 36.2916C74.97 36.3119 75.33 36.3996 75.9562 36.5539C76.5921 36.6986 77.0773 36.9599 77.4119 37.3408C77.7455 37.7217 77.9128 38.2096 77.9128 38.8065C77.9128 39.279 77.7768 39.6965 77.5058 40.0562C77.2338 40.4159 76.8582 40.6936 76.3788 40.8893C75.9092 41.0851 75.3711 41.1825 74.7665 41.1825C73.5866 41.1825 72.6944 40.9308 72.0898 40.4265C71.4842 39.9222 71.1604 39.2279 71.1193 38.3436H72.3716C72.4234 38.8885 72.6064 39.3205 72.9194 39.6396C73.2423 39.9482 73.8586 40.1025 74.7665 40.1025C75.3926 40.1025 75.8622 39.9791 76.1753 39.7322C76.4981 39.4747 76.6605 39.1922 76.6605 38.8836C76.6605 38.5751 76.5823 38.334 76.4257 38.1585C76.277 37.9818 76.0821 37.8485 75.8622 37.7728C75.5516 37.6562 75.2324 37.5634 74.9074 37.4951L74.4691 37.4025C74.3169 37.3703 74.1655 37.3343 74.0152 37.2945C73.564 37.2061 73.1195 37.0875 72.6846 36.9396C72.3387 36.8048 72.0321 36.5875 71.7924 36.3071C71.5517 36.0187 71.4324 35.6224 71.4324 35.1191C71.4324 34.7073 71.5517 34.3322 71.7924 33.9928C72.0321 33.6533 72.3765 33.3853 72.8255 33.1905C73.2853 32.9851 73.8166 32.8819 74.4221 32.8819C75.3711 32.8819 76.1225 33.1133 76.6762 33.5762C77.229 34.0391 77.5371 34.6302 77.5997 35.3505H76.3475C76.2779 34.975 76.0919 34.6301 75.8153 34.3631C75.5541 34.096 75.0894 33.9619 74.4221 33.9619C73.8684 33.9619 73.4409 34.0593 73.1386 34.2551C72.8353 34.4508 72.6846 34.7083 72.6846 35.0265C72.6846 35.2733 72.757 35.4691 72.9038 35.6128C73.0505 35.7574 73.2325 35.8645 73.4516 35.9368C73.6806 36.0091 73.9995 36.0911 74.4065 36.1836L74.8761 36.2916ZM80.883 34.1779V38.9145C80.883 39.2848 80.9711 39.5413 81.1491 39.6859C81.3262 39.8306 81.6187 39.9019 82.0257 39.9019C82.2028 39.9019 82.3436 39.8971 82.4483 39.8865V40.9665C82.1396 41.0309 81.8247 41.062 81.5091 41.0591C80.9143 41.0591 80.4496 40.9096 80.116 40.6116C79.7931 40.3127 79.6307 39.7891 79.6307 39.0379V34.1779H78.4568V33.0979H79.6307V30.4751H80.883V33.0979H82.4483V34.1779H80.883ZM88.6411 35.1036C88.6411 34.3418 88.0991 33.9619 87.0132 33.9619C86.2618 33.9619 85.7355 34.0805 85.4322 34.3168C85.1299 34.553 84.9577 34.96 84.9157 35.5356H83.6634C83.7055 34.7227 83.998 34.0796 84.54 33.6071C85.083 33.124 85.9077 32.8819 87.0132 32.8819C87.8692 32.8819 88.5629 33.0777 89.0951 33.4682C89.6273 33.8491 89.8934 34.4807 89.8934 35.3659V39.1922C89.8934 39.5008 89.9355 39.7274 90.0186 39.8711C90.1125 40.0051 90.2955 40.0716 90.5665 40.0716C90.6604 40.0716 90.7387 40.0668 90.8013 40.0562V40.9202C90.5644 41.0002 90.316 41.0419 90.0656 41.0436C89.6693 41.0436 89.3563 40.9713 89.1264 40.8276C88.9072 40.6733 88.7458 40.3908 88.6411 39.9791H88.6098C88.3386 40.3682 87.9653 40.6775 87.5298 40.8739C87.0817 41.0793 86.5387 41.1825 85.9018 41.1825C85.0986 41.1825 84.4568 40.9771 83.9765 40.5653C83.5069 40.1536 83.2721 39.6136 83.2721 38.9453C83.2721 38.3697 83.4081 37.9116 83.6791 37.5722C83.951 37.2328 84.3208 36.9753 84.7904 36.8008C85.2708 36.6156 85.9018 36.4507 86.6845 36.3071C87.0755 36.2423 87.4623 36.1547 87.8428 36.0448C88.104 35.9628 88.3026 35.849 88.4376 35.7053C88.5736 35.5607 88.6411 35.3611 88.6411 35.1036ZM86.027 40.1025C86.8097 40.1025 87.4417 39.9222 87.9211 39.5625C88.4014 39.1922 88.6411 38.6464 88.6411 37.9271V36.6156C88.4328 36.821 87.8174 37.0274 86.7941 37.2328C85.9801 37.4073 85.396 37.6137 85.0409 37.8499C84.6965 38.0862 84.5243 38.4314 84.5243 38.8836C84.5243 39.6965 85.0252 40.1025 86.027 40.1025ZM95.6508 32.8819C96.4335 32.8819 97.0753 33.1037 97.5762 33.5453C98.0771 33.9773 98.3275 34.6205 98.3275 35.4739V40.9665H97.0753V35.7825C97.0753 35.2377 96.9344 34.7999 96.6526 34.4711C96.3709 34.1316 95.9326 33.9619 95.3378 33.9619C94.6383 33.9619 94.0699 34.1577 93.6316 34.5482C93.2031 34.9387 92.9898 35.4431 92.9898 36.0602V40.9665H91.7375V33.0979H92.9898V34.0391H93.0211C93.2715 33.7102 93.6159 33.4373 94.0542 33.2213C94.4925 32.9947 95.0247 32.8819 95.6508 32.8819ZM105.674 35.9368C105.633 35.4244 105.418 34.9406 105.063 34.5636C104.697 34.1625 104.15 33.9619 103.42 33.9619C102.543 33.9619 101.886 34.2657 101.447 34.8722C101.019 35.4797 100.806 36.1991 100.806 37.0322C100.806 37.8653 101.019 38.5847 101.447 39.1922C101.886 39.7997 102.543 40.1025 103.42 40.1025C104.16 40.1025 104.708 39.9019 105.063 39.5008C105.428 39.0996 105.632 38.6213 105.674 38.0659H106.926C106.903 38.6328 106.728 39.1835 106.417 39.6609C106.106 40.1384 105.671 40.5252 105.157 40.7813C104.646 41.0485 104.066 41.1825 103.42 41.1825C102.647 41.1825 101.969 41.008 101.385 40.6579C100.799 40.3067 100.327 39.7983 100.023 39.1922C99.7099 38.5654 99.5534 37.8451 99.5534 37.0322C99.5534 36.2193 99.7099 35.499 100.023 34.8722C100.326 34.2661 100.799 33.7576 101.385 33.4065C101.969 33.0565 102.647 32.8819 103.42 32.8819C104.066 32.8819 104.641 33.016 105.142 33.2831C105.652 33.5405 106.059 33.9002 106.363 34.3631C106.676 34.8259 106.863 35.3505 106.926 35.9368H105.674ZM111.521 40.1025C112.231 40.1025 112.774 39.9386 113.149 39.6088C113.525 39.28 113.76 38.9241 113.854 38.5442H115.106C114.907 39.2938 114.474 39.9629 113.869 40.4573C113.274 40.9405 112.507 41.1825 111.568 41.1825C110.775 41.1825 110.081 41.0128 109.486 40.6733C108.903 40.3242 108.435 39.8149 108.14 39.2076C107.827 38.5808 107.671 37.8547 107.671 37.0322C107.671 35.7362 108.015 34.7227 108.704 33.9928C109.392 33.2522 110.326 32.8819 111.506 32.8819C112.736 32.8819 113.666 33.2725 114.292 34.0545C114.918 34.8356 115.231 35.9368 115.231 37.3562H108.923C108.923 37.8499 109.022 38.308 109.22 38.7293C109.418 39.1411 109.71 39.4747 110.097 39.7322C110.493 39.9791 110.968 40.1025 111.521 40.1025ZM111.506 33.9619C111.014 33.9619 110.571 34.0651 110.175 34.2705C109.797 34.4684 109.478 34.7611 109.252 35.1191C109.033 35.4664 108.919 35.8676 108.923 36.2762H113.979C113.979 35.8548 113.874 35.4691 113.666 35.1191C113.468 34.7599 113.169 34.4651 112.805 34.2705C112.429 34.0651 111.996 33.9619 111.506 33.9619ZM122.938 30.3053V40.9665H121.53V32.9899C121.227 33.2676 120.919 33.4431 120.606 33.5145C120.304 33.5762 119.86 33.6071 119.275 33.6071V32.6042C120.163 32.6042 120.789 32.4142 121.154 32.0333C121.53 31.6428 121.759 31.0662 121.843 30.3053H122.938Z" fill="white"/>
<path d="M66.8479 65.5557H65.8138C65.7091 65.0179 65.397 64.5409 64.9431 64.225C64.7269 64.0702 64.4854 63.9531 64.2289 63.8789C63.9637 63.8017 63.6886 63.763 63.412 63.7641C62.8955 63.7641 62.4269 63.8933 62.0072 64.1498C61.5904 64.4082 61.2587 64.7872 61.0112 65.2886C60.7666 65.7901 60.6444 66.4053 60.6444 67.1333C60.6444 67.8623 60.7666 68.4775 61.0112 68.979C61.2587 69.4804 61.5904 69.8594 62.0072 70.1168C62.4278 70.3743 62.8955 70.5025 63.412 70.5025C63.6958 70.5025 63.9677 70.464 64.2289 70.3878C64.4902 70.3106 64.7279 70.1978 64.9431 70.0474C65.3945 69.7269 65.7056 69.2496 65.8138 68.7119H66.8469C66.7778 69.1188 66.6339 69.51 66.4223 69.8661C66.0201 70.5375 65.3799 71.0383 64.6252 71.272C64.2475 71.3945 63.8425 71.4562 63.412 71.4562C62.6842 71.4562 62.0365 71.2817 61.4691 70.9307C60.9017 70.5797 60.4565 70.0821 60.1317 69.4351C59.8059 68.789 59.6425 68.0214 59.6425 67.1333C59.6425 66.2462 59.8059 65.4786 60.1317 64.8325C60.4565 64.1865 60.9026 63.687 61.4691 63.3369C62.0365 62.9859 62.6842 62.8104 63.412 62.8104C63.8425 62.8104 64.2475 62.8721 64.6252 62.9956C65.0067 63.119 65.3491 63.3003 65.6553 63.5385C65.9606 63.7737 66.2169 64.0611 66.4223 64.4015C66.6278 64.738 66.7697 65.1228 66.8469 65.5557H66.8479ZM72.4205 68.761V65.0292H73.4047V71.3415H72.4205V70.273H72.3539C72.1972 70.6014 71.9556 70.8834 71.6535 71.0907C71.3365 71.3125 70.9363 71.4234 70.4531 71.4234C70.0519 71.4234 69.6968 71.3366 69.3857 71.165C69.0662 70.9808 68.8104 70.7059 68.652 70.3762C68.4739 70.0223 68.3849 69.5768 68.3849 69.0407V65.0292H69.3691V68.9741C69.3691 69.4351 69.4992 69.8015 69.7604 70.0754C70.0245 70.3502 70.3611 70.4871 70.7691 70.4871C71.0136 70.4871 71.2631 70.4254 71.5155 70.302C71.7718 70.1785 71.9851 69.9895 72.1583 69.735C72.3324 69.4804 72.4205 69.1554 72.4205 68.761ZM75.2067 71.3415V65.0302H76.1567V65.9829H76.2232C76.3406 65.6705 76.5519 65.4169 76.8572 65.2231C77.1653 65.0277 77.5249 64.9261 77.8913 64.9309C78.0636 64.9322 78.2358 64.9377 78.4078 64.9473V65.9337C78.332 65.9185 78.2557 65.9063 78.1789 65.8971C78.0615 65.8778 77.9382 65.8682 77.8071 65.8682C77.497 65.8682 77.2182 65.9328 76.9736 66.061C76.734 66.1817 76.5335 66.3662 76.3949 66.5936C76.2564 66.821 76.1854 67.0822 76.19 67.3474V71.3415H75.2067ZM79.574 71.3415V65.0302H80.5249V65.9829H80.5914C80.7111 65.6671 80.9342 65.3997 81.2254 65.2231C81.5335 65.0277 81.8932 64.9261 82.2595 64.9309C82.4318 64.9322 82.604 64.9377 82.7761 64.9473V65.9337C82.7003 65.9186 82.6239 65.9063 82.5471 65.8971C82.4297 65.8778 82.3065 65.8682 82.1754 65.8682C81.8643 65.8682 81.5864 65.9328 81.3418 66.061C81.1022 66.1817 80.9017 66.3662 80.7632 66.5936C80.6246 66.821 80.5536 67.0822 80.5582 67.3474V71.3415H79.574ZM86.4321 71.4726C85.8157 71.4726 85.2835 71.3386 84.8354 71.0705C84.3893 70.7974 84.032 70.4038 83.8062 69.9365C83.5665 69.4486 83.4472 68.8816 83.4472 68.2345C83.4472 67.5885 83.5665 67.0186 83.8062 66.5258C84.0264 66.0544 84.3757 65.653 84.8149 65.3667C85.2483 65.0871 85.7541 64.9473 86.3323 64.9473C86.6686 64.9475 87.0025 65.0029 87.3204 65.1112C87.6452 65.2211 87.9416 65.4005 88.2087 65.6464C88.4748 65.8904 88.6881 66.2134 88.8466 66.6155C89.0051 67.0186 89.0843 67.5142 89.0843 68.1034V68.5142H84.1477V67.6752H88.0835C88.0835 67.3204 88.0111 67.0022 87.8663 66.7225C87.7308 66.4499 87.5198 66.2206 87.2578 66.061C86.9791 65.8948 86.6579 65.8108 86.3323 65.819C85.9409 65.819 85.6015 65.9154 85.3148 66.1064C85.0344 66.2918 84.8086 66.5469 84.6603 66.846C84.5076 67.1498 84.4292 67.4847 84.4314 67.8237V68.383C84.4314 68.8594 84.5145 69.2634 84.6818 69.5951C84.8511 69.923 85.0859 70.1737 85.3862 70.3473C85.7061 70.522 86.0674 70.6099 86.433 70.6019C86.6913 70.6019 86.9242 70.5662 87.1325 70.4958C87.3439 70.4206 87.5258 70.3116 87.6794 70.166C87.832 70.0185 87.9494 69.8352 88.0336 69.6164L88.9835 69.8786C88.8837 70.1969 88.7155 70.4765 88.4797 70.7176C88.2429 70.9548 87.9514 71.1419 87.6041 71.2759C87.229 71.412 86.8317 71.4787 86.4321 71.4726ZM91.5644 67.5441V71.3415H90.5802V65.0302H91.5311V66.0157H91.6142C91.7649 65.6956 91.9929 65.4371 92.2991 65.2443C92.6043 65.0466 92.9986 64.9473 93.4829 64.9473C93.9153 64.9473 94.2949 65.035 94.6206 65.2105C94.9455 65.3831 95.1979 65.6464 95.3788 65.9993C95.5598 66.3503 95.6498 66.7939 95.6498 67.33V71.3415H94.6666V67.3975C94.6666 66.9009 94.5355 66.5142 94.2743 66.2375C94.0131 65.9579 93.655 65.819 93.1982 65.819C92.8851 65.819 92.6043 65.8865 92.3568 66.0196C92.1122 66.1546 91.9185 66.3503 91.7766 66.6078C91.6348 66.8652 91.5644 67.1767 91.5644 67.5441ZM100.232 65.0302V65.8518H96.9148V65.0302H100.232ZM97.8814 63.5172H98.8656V69.5334C98.8656 69.8073 98.9057 70.0127 98.9859 70.1506C99.057 70.2738 99.1689 70.3691 99.3029 70.4206C99.434 70.4649 99.571 70.4871 99.7158 70.4871C99.8234 70.4871 99.9134 70.4813 99.9828 70.4707L100.149 70.437L100.35 71.3087C100.258 71.34 100.165 71.3649 100.07 71.3829C99.9206 71.413 99.7683 71.4265 99.616 71.4234C99.3381 71.4234 99.0652 71.3656 98.7991 71.247C98.5344 71.129 98.3067 70.9431 98.1397 70.7089C97.9675 70.4678 97.8814 70.1631 97.8814 69.7967V63.5172ZM105.149 71.3415V62.9261H108.034C108.701 62.9261 109.249 63.038 109.676 63.2636C110.105 63.4854 110.422 63.7901 110.627 64.1797C110.832 64.5683 110.936 65.0109 110.936 65.5066C110.936 66.0022 110.832 66.4419 110.627 66.8257C110.422 67.2095 110.107 67.5104 109.681 67.7292C109.255 67.9462 108.712 68.0542 108.051 68.0542H105.716V67.1333H108.017C108.473 67.1333 108.84 67.0677 109.118 66.9366C109.379 66.8227 109.593 66.6257 109.727 66.3773C109.854 66.1334 109.919 65.8431 109.919 65.5066C109.919 65.1691 109.854 64.875 109.727 64.6233C109.594 64.3667 109.378 64.1613 109.114 64.0399C108.833 63.9001 108.462 63.8297 108 63.8297H106.183V71.3415H105.149ZM109.168 67.5615L111.268 71.3415H110.067L107.999 67.5615H109.168ZM115.058 71.4726C114.48 71.4726 113.972 71.3376 113.537 71.0657C113.096 70.7873 112.744 70.3932 112.519 69.9278C112.277 69.4399 112.156 68.871 112.156 68.2181C112.156 67.5615 112.277 66.9867 112.518 66.4969C112.742 66.0296 113.095 65.6336 113.536 65.3542C113.973 65.0832 114.48 64.9473 115.058 64.9473C115.635 64.9473 116.142 65.0823 116.575 65.3542C117.012 65.6252 117.351 66.0061 117.593 66.4969C117.837 66.9867 117.96 67.5615 117.96 68.2181C117.96 68.87 117.837 69.4399 117.593 69.9278C117.351 70.4157 117.012 70.7957 116.575 71.0657C116.142 71.3376 115.636 71.4726 115.058 71.4726ZM115.058 70.6019C115.497 70.6019 115.858 70.491 116.142 70.2692C116.426 70.0474 116.635 69.7552 116.771 69.3936C116.908 69.032 116.976 68.6405 116.976 68.2181C116.976 67.7967 116.908 67.4033 116.771 67.0388C116.648 66.6928 116.43 66.3871 116.142 66.1555C115.858 65.9309 115.496 65.818 115.058 65.818C114.619 65.818 114.258 65.9309 113.974 66.1555C113.69 66.3802 113.481 66.6743 113.345 67.0388C113.206 67.4168 113.136 67.8161 113.139 68.2181C113.139 68.6405 113.208 69.032 113.345 69.3946C113.481 69.7552 113.69 70.0474 113.974 70.2692C114.258 70.491 114.619 70.6019 115.058 70.6019ZM120.446 62.9261V71.3415H119.461V62.9261H120.446ZM123.231 62.9261V71.3415H122.248V62.9261H123.231ZM127.634 71.4726C127.056 71.4726 126.549 71.3376 126.113 71.0657C125.673 70.7873 125.32 70.3931 125.096 69.9278C124.854 69.4399 124.733 68.871 124.733 68.2181C124.733 67.5615 124.854 66.9867 125.096 66.4969C125.34 66.0061 125.68 65.6252 126.113 65.3542C126.549 65.0832 127.056 64.9473 127.634 64.9473C128.212 64.9473 128.718 65.0823 129.152 65.3542C129.594 65.6316 129.948 66.0281 130.169 66.4969C130.414 66.9867 130.536 67.5615 130.536 68.2181C130.536 68.87 130.414 69.4399 130.169 69.9278C129.946 70.3945 129.593 70.7892 129.152 71.0657C128.718 71.3376 128.212 71.4726 127.634 71.4726ZM127.634 70.6019C128.074 70.6019 128.436 70.491 128.718 70.2692C129.002 70.0474 129.212 69.7552 129.348 69.3936C129.487 69.017 129.556 68.6189 129.553 68.2181C129.553 67.7967 129.484 67.4033 129.348 67.0388C129.225 66.6927 129.007 66.3869 128.718 66.1555C128.436 65.9309 128.074 65.818 127.634 65.818C127.195 65.818 126.834 65.9309 126.55 66.1555C126.262 66.3872 126.044 66.6929 125.921 67.0388C125.783 67.4169 125.713 67.8162 125.717 68.2181C125.717 68.6405 125.785 69.032 125.921 69.3946C126.057 69.7552 126.268 70.0474 126.55 70.2692C126.834 70.491 127.195 70.6019 127.634 70.6019ZM136.073 68.7601V65.0302H137.058V71.3415H136.073V70.273H136.007C135.85 70.6015 135.609 70.8835 135.306 71.0907C134.989 71.3125 134.589 71.4234 134.106 71.4234C133.706 71.4234 133.35 71.3366 133.039 71.165C132.719 70.9807 132.463 70.7059 132.305 70.3762C132.127 70.0223 132.038 69.5768 132.038 69.0407V65.0292H133.022V68.9741C133.022 69.4351 133.153 69.8015 133.414 70.0754C133.678 70.3502 134.014 70.4871 134.423 70.4871C134.667 70.4871 134.916 70.4254 135.169 70.302C135.425 70.1785 135.639 69.9895 135.811 69.735C135.986 69.4804 136.073 69.1545 136.073 68.7601ZM141.645 65.0302V65.8518H138.326V65.0302H141.645ZM139.293 63.5172H140.277V69.5334C140.277 69.8073 140.317 70.0127 140.398 70.1506C140.469 70.2736 140.581 70.3689 140.714 70.4206C140.846 70.4649 140.984 70.4871 141.127 70.4871C141.236 70.4871 141.325 70.4813 141.394 70.4707L141.561 70.437L141.761 71.3087C141.67 71.3401 141.576 71.365 141.481 71.3829C141.332 71.413 141.18 71.4266 141.028 71.4234C140.75 71.4234 140.477 71.3656 140.211 71.247C139.946 71.129 139.718 70.9431 139.551 70.7089C139.379 70.4678 139.293 70.1631 139.293 69.7967V63.5172Z" fill="#A1A1A1"/>
<path d="M208.138 63.6272H154.33C152.439 63.6272 150.906 65.1382 150.906 67.0022C150.906 68.8662 152.439 70.3772 154.33 70.3772H208.138C210.029 70.3772 211.562 68.8662 211.562 67.0022C211.562 65.1382 210.029 63.6272 208.138 63.6272Z" fill="#484848"/>
<path d="M317.221 34.2164H301.568C297.245 34.2164 293.741 37.6702 293.741 41.9307V57.3593C293.741 61.6198 297.245 65.0736 301.568 65.0736H317.221C321.544 65.0736 325.048 61.6198 325.048 57.3593V41.9307C325.048 37.6702 321.544 34.2164 317.221 34.2164Z" fill="#484848"/>
<path d="M306.46 43.8593L312.33 49.645L306.46 55.4307" stroke="white" stroke-width="0.971281"/>
<path d="M332.875 13.0012H27.6366C23.5837 13.0012 20.2982 16.2396 20.2982 20.2343V79.0558C20.2982 83.0505 23.5837 86.2889 27.6366 86.2889H332.875C336.928 86.2889 340.214 83.0505 340.214 79.0558V20.2343C340.214 16.2396 336.928 13.0012 332.875 13.0012Z" stroke="#484848" stroke-width="0.968367"/>
</g>
</g>
<defs>
<clipPath id="clip0_1_405">
<rect width="320.891" height="74.25" fill="white" transform="translate(19.81 99.97)"/>
</clipPath>
<clipPath id="clip1_1_405">
<rect width="320.891" height="74.25" fill="white" transform="translate(19.81 99.97)"/>
</clipPath>
<clipPath id="clip2_1_405">
<rect width="320.891" height="74.25" fill="white" transform="translate(19.81 12.52)"/>
</clipPath>
<clipPath id="clip3_1_405">
<rect width="320.891" height="74.25" fill="white" transform="translate(19.81 12.52)"/>
</clipPath>
</defs>
</svg>
