<svg width="472" height="209" viewBox="0 0 472 209" fill="none" xmlns="http://www.w3.org/2000/svg">
<g clip-path="url(#clip0_1_473)">
<g clip-path="url(#clip1_1_473)">
<g clip-path="url(#clip2_1_473)">
<path d="M584.59 75.212H95.7571C89.4338 75.212 84.3078 80.2731 84.3078 86.5163V117.972C84.3078 124.215 89.4338 129.276 95.7571 129.276H584.59C590.914 129.276 596.04 124.215 596.04 117.972V86.5163C596.04 80.2731 590.914 75.212 584.59 75.212Z" fill="#303030"/>
<path d="M584.59 75.212H95.7571C89.4338 75.212 84.3078 80.2731 84.3078 86.5163V117.972C84.3078 124.215 89.4338 129.276 95.7571 129.276H584.59C590.914 129.276 596.04 124.215 596.04 117.972V86.5163C596.04 80.2731 590.914 75.212 584.59 75.212Z" stroke="#484848" stroke-width="0.989274"/>
<path d="M127.616 87.0078H111.686C107.563 87.0078 104.22 90.3085 104.22 94.3803V110.108C104.22 114.18 107.563 117.481 111.686 117.481H127.616C131.74 117.481 135.083 114.18 135.083 110.108V94.3803C135.083 90.3085 131.74 87.0078 127.616 87.0078Z" fill="#484848"/>
<path d="M127.616 87.0078H111.686C107.563 87.0078 104.22 90.3085 104.22 94.3803V110.108C104.22 114.18 107.563 117.481 111.686 117.481H127.616C131.74 117.481 135.083 114.18 135.083 110.108V94.3803C135.083 90.3085 131.74 87.0078 127.616 87.0078Z" stroke="#585858" stroke-width="0.989274"/>
<path d="M116.664 109.125C116.664 109.125 113.678 106.832 113.678 102.244C113.678 97.6564 116.664 95.3631 116.664 95.3631M122.638 95.3631C122.638 95.3631 125.625 97.6564 125.625 102.244C125.625 106.832 122.638 109.125 122.638 109.125M121.891 99.9508L117.411 104.537M117.411 99.9508L121.891 104.537" stroke="#D8D8D8" stroke-width="0.989274" stroke-linecap="round" stroke-linejoin="round"/>
<path d="M346.147 87.0078H153.501C148.278 87.0078 144.043 91.1888 144.043 96.3463V108.142C144.043 113.3 148.278 117.481 153.501 117.481H346.147C351.37 117.481 355.605 113.3 355.605 108.142V96.3463C355.605 91.1888 351.37 87.0078 346.147 87.0078Z" fill="#303030"/>
<path d="M346.147 87.0078H153.501C148.278 87.0078 144.043 91.1888 144.043 96.3463V108.142C144.043 113.3 148.278 117.481 153.501 117.481H346.147C351.37 117.481 355.605 113.3 355.605 108.142V96.3463C355.605 91.1888 351.37 87.0078 346.147 87.0078Z" stroke="#484848" stroke-width="0.989274"/>
<path d="M156.117 98.372V97.3743H163.176V98.372H160.217V106.669H159.076V98.372H156.117ZM166.725 106.813C166.044 106.813 165.458 106.665 164.965 106.368C164.473 106.066 164.079 105.632 163.83 105.115C163.566 104.577 163.434 103.951 163.434 103.237C163.434 102.523 163.566 101.894 163.829 101.35C164.072 100.829 164.458 100.386 164.942 100.07C165.42 99.761 165.978 99.6067 166.615 99.6067C166.983 99.6067 167.346 99.6666 167.704 99.7875C168.063 99.9094 168.389 100.106 168.683 100.377C168.977 100.648 169.211 101.004 169.387 101.449C169.561 101.894 169.648 102.442 169.648 103.091V103.546H164.207V102.62H168.545C168.545 102.226 168.466 101.875 168.306 101.568C168.157 101.266 167.924 101.013 167.635 100.836C167.328 100.652 166.974 100.559 166.615 100.568C166.183 100.568 165.809 100.674 165.494 100.887C165.185 101.091 164.935 101.372 164.772 101.702C164.603 102.038 164.517 102.409 164.519 102.784V103.4C164.519 103.927 164.611 104.373 164.795 104.739C164.982 105.103 165.241 105.379 165.572 105.57C165.902 105.756 166.287 105.851 166.725 105.851C167.01 105.851 167.267 105.811 167.497 105.733C167.722 105.656 167.927 105.532 168.099 105.369C168.269 105.207 168.398 105.003 168.49 104.762L169.538 105.053C169.43 105.4 169.239 105.717 168.981 105.978C168.708 106.249 168.379 106.46 168.016 106.595C167.603 106.745 167.165 106.819 166.725 106.813ZM176.299 101.259L175.324 101.53C175.258 101.362 175.167 101.205 175.054 101.063C174.927 100.901 174.763 100.77 174.576 100.682C174.373 100.582 174.114 100.533 173.799 100.533C173.367 100.533 173.007 100.631 172.719 100.828C172.433 101.021 172.291 101.268 172.291 101.567C172.291 101.833 172.389 102.044 172.585 102.198C172.782 102.352 173.087 102.481 173.504 102.583L174.552 102.838C175.183 102.989 175.654 103.221 175.963 103.532C176.272 103.84 176.427 104.239 176.427 104.725C176.432 105.11 176.31 105.486 176.079 105.797C175.848 106.111 175.526 106.359 175.113 106.541C174.699 106.722 174.218 106.813 173.67 106.813C172.95 106.813 172.353 106.659 171.882 106.35C171.41 106.041 171.111 105.59 170.986 104.997L172.015 104.744C172.114 105.118 172.299 105.4 172.572 105.587C172.847 105.775 173.207 105.869 173.652 105.869C174.157 105.869 174.558 105.763 174.856 105.551C175.155 105.337 175.306 105.079 175.306 104.78C175.309 104.667 175.287 104.554 175.243 104.449C175.199 104.344 175.132 104.25 175.049 104.172C174.877 104.005 174.613 103.882 174.258 103.799L173.081 103.528C172.434 103.376 171.96 103.142 171.658 102.824C171.357 102.504 171.207 102.103 171.207 101.622C171.207 101.229 171.318 100.88 171.542 100.578C171.782 100.265 172.1 100.019 172.466 99.8652C172.858 99.6932 173.302 99.6067 173.798 99.6067C174.497 99.6067 175.046 99.7581 175.444 100.061C175.845 100.363 176.131 100.763 176.299 101.259ZM181.131 99.6971V100.604H177.472V99.6971H181.131ZM178.538 98.027H179.623V104.671C179.623 104.974 179.667 105.2 179.756 105.351C179.848 105.5 179.965 105.6 180.105 105.651C180.249 105.7 180.401 105.724 180.56 105.724C180.68 105.724 180.778 105.718 180.855 105.705L181.038 105.669L181.259 106.632C181.158 106.666 181.055 106.693 180.95 106.713C180.819 106.743 180.652 106.758 180.451 106.758C180.144 106.758 179.843 106.693 179.55 106.563C179.258 106.433 179.007 106.228 178.823 105.969C178.634 105.703 178.538 105.367 178.538 104.961V98.027Z" fill="#A1A1A1"/>
<path d="M566.669 87.0078H374.024C368.8 87.0078 364.566 91.1888 364.566 96.3463V108.142C364.566 113.3 368.8 117.481 374.024 117.481H566.669C571.893 117.481 576.127 113.3 576.127 108.142V96.3463C576.127 91.1888 571.893 87.0078 566.669 87.0078Z" fill="#303030"/>
<path d="M566.669 87.0078H374.024C368.8 87.0078 364.566 91.1888 364.566 96.3463V108.142C364.566 113.3 368.8 117.481 374.024 117.481H566.669C571.893 117.481 576.127 113.3 576.127 108.142V96.3463C576.127 91.1888 571.893 87.0078 566.669 87.0078Z" stroke="#484848" stroke-width="0.989274"/>
<path d="M380.299 97.3733V106.668H379.159V98.5539H379.103L376.805 100.06V98.9166L379.159 97.3733H380.299ZM383.006 106.668V105.852L386.112 102.493C386.477 102.1 386.777 101.757 387.013 101.468C387.249 101.174 387.424 100.898 387.538 100.642C387.653 100.384 387.712 100.106 387.712 99.8239C387.712 99.4976 387.632 99.2145 387.473 98.9756C387.315 98.7355 387.092 98.5438 386.83 98.4222C386.542 98.2887 386.228 98.2218 385.91 98.2266C385.548 98.2266 385.233 98.3013 384.963 98.4497C384.701 98.5909 384.486 98.8035 384.343 99.0621C384.193 99.3479 384.119 99.6664 384.127 99.9881H383.043C383.043 99.4435 383.169 98.9658 383.424 98.5529C383.675 98.1449 384.034 97.8124 384.462 97.5915C384.903 97.3615 385.398 97.2475 385.947 97.2475C386.498 97.2475 386.987 97.3615 387.413 97.5915C387.839 97.8216 388.173 98.1322 388.415 98.5215C388.657 98.9127 388.778 99.3472 388.778 99.8239C388.778 100.166 388.715 100.5 388.59 100.827C388.468 101.151 388.253 101.513 387.946 101.912C387.55 102.416 387.128 102.901 386.682 103.364L384.568 105.597V105.67H388.943V106.668H383.006ZM394.022 106.795C393.416 106.795 392.875 106.692 392.4 106.486C391.956 106.301 391.568 106.006 391.274 105.629C390.997 105.255 390.84 104.808 390.823 104.345H391.982C392.006 104.644 392.11 104.902 392.295 105.12C392.478 105.335 392.719 105.502 393.015 105.62C393.313 105.738 393.643 105.797 394.004 105.797C394.408 105.797 394.767 105.727 395.079 105.587C395.392 105.449 395.637 105.255 395.815 105.007C395.992 104.759 396.082 104.472 396.082 104.144C396.082 103.803 395.995 103.501 395.824 103.242C395.639 102.968 395.377 102.753 395.07 102.625C394.74 102.476 394.335 102.402 393.857 102.402H393.103V101.404H393.857C394.231 101.404 394.559 101.337 394.84 101.204C395.125 101.07 395.347 100.884 395.506 100.641C395.67 100.399 395.75 100.115 395.75 99.7885C395.75 99.474 395.68 99.1987 395.539 98.9668C395.397 98.7327 395.189 98.5438 394.942 98.4222C394.662 98.2862 394.353 98.2191 394.041 98.2266C393.716 98.2266 393.41 98.2855 393.122 98.4035C392.849 98.5093 392.608 98.683 392.423 98.9078C392.242 99.125 392.144 99.3894 392.128 99.6971H391.025C391.044 99.2105 391.192 98.7829 391.471 98.4173C391.75 98.0486 392.115 97.7606 392.565 97.5552C393.034 97.3461 393.544 97.2408 394.059 97.2465C394.641 97.2465 395.141 97.3635 395.557 97.5964C395.955 97.8086 396.288 98.124 396.518 98.5087C396.742 98.8861 396.853 99.2951 396.853 99.7335C396.853 100.257 396.714 100.703 396.435 101.072C396.156 101.444 395.76 101.713 395.309 101.839V101.912C395.904 102.008 396.367 102.258 396.702 102.661C397.036 103.06 397.203 103.555 397.203 104.145C397.203 104.649 397.063 105.104 396.785 105.506C396.499 105.913 396.108 106.239 395.654 106.449C395.176 106.679 394.632 106.795 394.022 106.795Z" fill="#A1A1A1"/>
</g>
</g>
<g clip-path="url(#clip3_1_473)">
<g clip-path="url(#clip4_1_473)">
<path d="M552.366 59.6414H69.8239C63.4917 59.6414 58.3585 64.804 58.3585 71.1724V136.348C58.3585 142.716 63.4917 147.879 69.8239 147.879H552.366C558.698 147.879 563.832 142.716 563.832 136.348V71.1724C563.832 64.804 558.698 59.6414 552.366 59.6414Z" fill="#303030"/>
<path d="M552.366 59.6414H69.8239C63.4917 59.6414 58.3585 64.804 58.3585 71.1724V136.348C58.3585 142.716 63.4917 147.879 69.8239 147.879H552.366C558.698 147.879 563.832 142.716 563.832 136.348V71.1724C563.832 64.804 558.698 59.6414 552.366 59.6414Z" stroke="#484848" stroke-width="0.999806"/>
<path d="M78.9413 88.2176V78.7387H84.6301V79.7564H80.0829V82.9598H84.335V83.9775H80.0829V87.1989H84.7039V88.2176H78.9413ZM87.6261 83.9404V88.2176H86.5393V81.1089H87.5892V82.2189H87.6819C87.8474 81.8579 88.0986 81.5671 88.4366 81.3486C88.7736 81.127 89.2093 81.0157 89.7427 81.0157C90.2212 81.0157 90.6409 81.114 90.9999 81.3115C91.3588 81.506 91.6379 81.8028 91.8373 82.2008C92.0367 82.5948 92.1364 83.0952 92.1364 83.6997V88.2176H91.0497V83.7739C91.0497 83.2155 90.9061 82.7813 90.618 82.4685C90.3289 82.1537 89.9341 81.9973 89.4306 81.9973C89.1064 81.9915 88.7861 82.0695 88.5004 82.2239C88.2312 82.3743 88.0179 82.5948 87.8613 82.8856C87.7048 83.1764 87.6261 83.5273 87.6261 83.9404ZM99.6497 81.1079L97.0346 88.2176H95.93L93.3159 81.1089H94.4943L96.4464 86.7738H96.5192L98.4713 81.1089L99.6497 81.1079ZM101.083 88.2176V81.1089H102.17V88.2176H101.083ZM101.636 79.9228C101.432 79.926 101.234 79.8478 101.087 79.7053C101.015 79.639 100.958 79.5582 100.919 79.4682C100.881 79.3782 100.861 79.281 100.862 79.1829C100.862 78.9783 100.937 78.8049 101.087 78.6595C101.234 78.5169 101.432 78.4386 101.636 78.4419C101.847 78.4419 102.028 78.5141 102.178 78.6595C102.251 78.7252 102.31 78.8058 102.35 78.8961C102.389 78.9864 102.409 79.0842 102.408 79.1829C102.409 79.2813 102.389 79.3789 102.35 79.469C102.31 79.5591 102.252 79.6396 102.179 79.7053C102.107 79.776 102.022 79.8316 101.929 79.869C101.836 79.9063 101.736 79.9246 101.636 79.9228ZM104.158 88.2176V81.1089H105.208V82.1818H105.282C105.411 81.8308 105.644 81.5451 105.982 81.3255C106.319 81.1069 106.699 80.9966 107.123 80.9966C107.203 80.9966 107.303 80.9986 107.422 81.0017C107.542 81.0047 107.632 81.0097 107.693 81.0157V82.1266C107.61 82.1092 107.525 82.0951 107.44 82.0845C107.305 82.0625 107.168 82.0518 107.031 82.0524C106.711 82.0467 106.394 82.1215 106.11 82.27C105.843 82.4114 105.632 82.6089 105.475 82.8615C105.322 83.1122 105.246 83.398 105.246 83.7188V88.2176H104.158ZM111.637 88.366C110.999 88.366 110.44 88.2126 109.958 87.9078C109.472 87.5938 109.083 87.1492 108.835 86.6244C108.568 86.076 108.434 85.4343 108.434 84.6994C108.434 83.9594 108.568 83.3127 108.835 82.7603C109.104 82.2088 109.479 81.7787 109.958 81.4739C110.439 81.1681 110.999 81.0157 111.637 81.0157C112.276 81.0157 112.834 81.1681 113.312 81.4739C113.795 81.7787 114.17 82.2078 114.436 82.7603C114.706 83.3127 114.841 83.9594 114.841 84.6994C114.841 85.4343 114.706 86.076 114.436 86.6244C114.19 87.1505 113.801 87.5955 113.313 87.9078C112.835 88.2126 112.277 88.366 111.638 88.366H111.637ZM111.637 87.3844C112.123 87.3844 112.522 87.2591 112.834 87.0094C113.148 86.7588 113.379 86.4309 113.53 86.0239C113.679 85.6158 113.755 85.1746 113.755 84.7004C113.755 84.2241 113.68 83.782 113.53 83.3709C113.394 82.9812 113.153 82.637 112.835 82.3763C112.522 82.1236 112.123 81.9973 111.638 81.9973C111.153 81.9973 110.754 82.1236 110.442 82.3763C110.123 82.6369 109.882 82.9811 109.746 83.3709C109.597 83.782 109.521 84.2241 109.521 84.6994C109.521 85.1746 109.596 85.6168 109.746 86.0228C109.896 86.4309 110.128 86.7598 110.441 87.0094C110.754 87.2601 111.153 87.3844 111.637 87.3844ZM117.585 83.9404V88.2176H116.499V81.1089H117.549V82.2189H117.64C117.807 81.8579 118.058 81.5671 118.396 81.3486C118.733 81.127 119.169 81.0157 119.702 81.0157C120.181 81.0157 120.599 81.114 120.958 81.3115C121.317 81.506 121.597 81.8028 121.797 82.2008C121.996 82.5948 122.096 83.0952 122.096 83.6997V88.2176H121.009V83.7739C121.009 83.2155 120.866 82.7813 120.577 82.4685C120.288 82.1537 119.893 81.9973 119.39 81.9973C119.066 81.9915 118.746 82.0695 118.46 82.2239C118.191 82.3743 117.976 82.5948 117.82 82.8856C117.663 83.1764 117.585 83.5273 117.585 83.9404ZM124.081 88.2176V81.1089H125.13V82.2189H125.222C125.358 81.8541 125.609 81.5437 125.935 81.3345C126.264 81.122 126.658 81.0157 127.119 81.0157C127.585 81.0157 127.973 81.122 128.283 81.3345C128.596 81.5451 128.839 81.8389 129.015 82.2189H129.089C129.268 81.8529 129.552 81.5487 129.903 81.3446C130.265 81.125 130.7 81.0157 131.205 81.0157C131.837 81.0157 132.355 81.2142 132.757 81.6123C133.158 82.0073 133.36 82.6229 133.36 83.4591V88.2176H132.273V83.4591C132.273 82.9347 132.131 82.5598 131.845 82.3342C131.558 82.1082 131.202 81.9889 130.837 81.9963C130.34 81.9963 129.955 82.1477 129.682 82.4505C129.409 82.7492 129.273 83.1292 129.273 83.5895V88.2176H128.168V83.3478C128.168 82.9438 128.038 82.6189 127.777 82.3713C127.515 82.1216 127.179 81.9973 126.769 81.9973C126.487 81.9973 126.222 82.0725 125.977 82.2239C125.735 82.3743 125.538 82.5848 125.389 82.8535C125.24 83.1182 125.167 83.425 125.167 83.7739V88.2176H124.081ZM138.31 88.366C137.629 88.366 137.041 88.2146 136.547 87.9118C136.055 87.6043 135.66 87.1609 135.411 86.6345C135.146 86.085 135.014 85.4463 135.014 84.7184C135.014 83.9905 135.146 83.3478 135.41 82.7934C135.677 82.2339 136.048 81.7998 136.524 81.4879C137.003 81.1731 137.561 81.0157 138.199 81.0157C138.568 81.0157 138.931 81.0769 139.29 81.2002C139.649 81.3235 139.976 81.525 140.27 81.8018C140.565 82.0765 140.799 82.4414 140.975 82.8946C141.149 83.3488 141.237 83.9073 141.237 84.57V85.0332H135.787V84.0888H140.132C140.132 83.6877 140.053 83.3298 139.893 83.0159C139.743 82.7086 139.511 82.45 139.221 82.27C138.913 82.0824 138.559 81.9874 138.199 81.9963C137.766 81.9963 137.392 82.1046 137.077 82.3211C136.767 82.5297 136.518 82.8167 136.354 83.1533C136.184 83.4962 136.101 83.8632 136.101 84.2562V84.8849C136.101 85.4223 136.192 85.8775 136.377 86.2504C136.564 86.6214 136.823 86.9022 137.154 87.0977C137.485 87.2882 137.871 87.3844 138.31 87.3844C138.595 87.3844 138.853 87.3443 139.083 87.2641C139.308 87.1856 139.514 87.059 139.686 86.8931C139.855 86.7277 139.985 86.5202 140.078 86.2735L141.126 86.5703C141.017 86.9282 140.83 87.2421 140.57 87.5138C140.296 87.7908 139.966 88.0056 139.603 88.1434C139.189 88.297 138.751 88.3725 138.31 88.366ZM143.976 83.9404V88.2176H142.889V81.1089H143.939V82.2189H144.031C144.196 81.8579 144.448 81.5671 144.785 81.3486C145.123 81.127 145.559 81.0157 146.092 81.0157C146.571 81.0157 146.99 81.114 147.349 81.3115C147.707 81.506 147.987 81.8028 148.186 82.2008C148.385 82.5948 148.485 83.0952 148.485 83.6997V88.2176H147.399V83.7739C147.399 83.2155 147.256 82.7813 146.967 82.4685C146.679 82.1537 146.283 81.9973 145.78 81.9973C145.433 81.9973 145.122 82.0725 144.85 82.2239C144.58 82.3743 144.367 82.5948 144.21 82.8856C144.053 83.1764 143.976 83.5273 143.976 83.9404ZM153.546 81.1079V82.0334H149.882V81.1079H153.546ZM150.949 79.4045H152.035V86.1813C152.035 86.4891 152.079 86.7207 152.168 86.8751C152.261 87.0265 152.377 87.1288 152.518 87.1809C152.662 87.231 152.814 87.2551 152.974 87.2551C153.093 87.2551 153.192 87.2491 153.269 87.236L153.452 87.1989L153.673 88.1815C153.572 88.2164 153.469 88.2439 153.364 88.2637C153.233 88.2938 153.065 88.3099 152.863 88.3099C152.557 88.3099 152.255 88.2437 151.962 88.1113C151.669 87.9783 151.418 87.7688 151.234 87.5047C151.044 87.234 150.949 86.8911 150.949 86.477V79.4045ZM164.604 81.1089L161.991 88.2176H160.887L158.273 81.1089H159.45L161.402 86.7738H161.476L163.427 81.1089H164.605H164.604ZM167.903 88.3841C167.455 88.3841 167.049 88.2998 166.683 88.1294C166.33 87.967 166.029 87.7091 165.814 87.3844C165.598 87.0576 165.492 86.6625 165.492 86.1993C165.492 85.7922 165.571 85.4624 165.731 85.2087C165.89 84.953 166.104 84.7525 166.37 84.6071C166.637 84.4617 166.932 84.3545 167.254 84.2833C167.579 84.2091 167.906 84.1509 168.234 84.1078C168.664 84.0517 169.012 84.0106 169.279 83.9825C169.549 83.9524 169.746 83.9003 169.868 83.8301C169.994 83.7589 170.057 83.6356 170.057 83.4591V83.422C170.057 82.9658 169.933 82.6099 169.684 82.3582C169.439 82.1046 169.066 81.9782 168.566 81.9782C168.047 81.9782 167.641 82.0925 167.346 82.3211C167.052 82.5487 166.845 82.7924 166.725 83.052L165.694 82.6811C165.879 82.2499 166.124 81.9131 166.431 81.6724C166.74 81.4288 167.078 81.2593 167.443 81.1631C167.797 81.0665 168.162 81.0169 168.529 81.0157C168.756 81.0157 169.017 81.0428 169.311 81.0989C169.609 81.1511 169.896 81.2603 170.173 81.4278C170.452 81.5942 170.683 81.8459 170.867 82.1818C171.051 82.5186 171.144 82.9688 171.144 83.5333V88.2176H170.057V87.2551H170.002C169.907 87.439 169.782 87.6062 169.634 87.7504C169.436 87.9432 169.204 88.0958 168.948 88.1996C168.662 88.3229 168.314 88.3841 167.903 88.3841ZM168.069 87.4025C168.499 87.4025 168.86 87.3182 169.155 87.1488C169.435 86.9966 169.668 86.7688 169.827 86.4911C169.977 86.2343 170.056 85.9418 170.057 85.6439V84.6442C170.011 84.6994 169.91 84.7505 169.754 84.7966C169.578 84.8449 169.399 84.8837 169.219 84.9129C168.874 84.9667 168.527 85.0128 168.18 85.0513C167.91 85.0853 167.645 85.1458 167.388 85.2318C167.146 85.312 166.949 85.4343 166.799 85.5977C166.651 85.7582 166.577 85.9777 166.577 86.2555C166.577 86.6345 166.717 86.9212 166.996 87.1157C167.278 87.3072 167.636 87.4025 168.069 87.4025ZM173.126 88.2176V81.1089H174.175V82.1818H174.249C174.378 81.8308 174.611 81.5451 174.948 81.3255C175.288 81.1057 175.685 80.9914 176.09 80.9966C176.169 80.9966 176.269 80.9986 176.389 81.0017C176.508 81.0047 176.599 81.0097 176.661 81.0157V82.1266C176.577 82.1092 176.493 82.0952 176.408 82.0845C176.272 82.0624 176.135 82.0517 175.998 82.0524C175.654 82.0524 175.348 82.1246 175.078 82.27C174.811 82.4114 174.599 82.6089 174.443 82.8615C174.289 83.1122 174.212 83.398 174.212 83.7188V88.2176H173.126ZM177.948 88.2176V81.1089H179.035V88.2176H177.948ZM178.5 79.9228C178.297 79.9258 178.1 79.8476 177.953 79.7053C177.881 79.639 177.824 79.5582 177.785 79.4682C177.746 79.3782 177.727 79.281 177.728 79.1829C177.728 78.9783 177.802 78.8049 177.953 78.6595C178.1 78.5171 178.296 78.4389 178.5 78.4419C178.713 78.4419 178.893 78.5141 179.044 78.6595C179.117 78.7252 179.175 78.8058 179.215 78.8961C179.255 78.9864 179.275 79.0842 179.274 79.1829C179.275 79.2814 179.255 79.379 179.215 79.4691C179.175 79.5592 179.117 79.6397 179.044 79.7053C178.972 79.776 178.887 79.8316 178.794 79.869C178.7 79.9063 178.601 79.9246 178.5 79.9228ZM183.104 88.3851C182.657 88.3851 182.25 88.2998 181.884 88.1294C181.531 87.967 181.23 87.7091 181.015 87.3844C180.8 87.0576 180.693 86.6625 180.693 86.1993C180.693 85.7922 180.772 85.4624 180.932 85.2087C181.092 84.953 181.305 84.7525 181.572 84.6071C181.838 84.4617 182.133 84.3545 182.455 84.2833C182.78 84.2091 183.107 84.1509 183.435 84.1078C183.865 84.0517 184.213 84.0106 184.48 83.9825C184.75 83.9524 184.947 83.9003 185.07 83.8301C185.195 83.7589 185.258 83.6356 185.258 83.4591V83.422C185.258 82.9658 185.134 82.6099 184.885 82.3582C184.64 82.1046 184.267 81.9782 183.767 81.9782C183.248 81.9782 182.842 82.0925 182.547 82.3211C182.253 82.5487 182.046 82.7924 181.926 83.052L180.895 82.6811C181.08 82.2499 181.325 81.9131 181.632 81.6724C181.941 81.4288 182.279 81.2593 182.644 81.1631C183.013 81.0648 183.375 81.0157 183.731 81.0157C183.957 81.0157 184.218 81.0428 184.512 81.0989C184.81 81.1511 185.097 81.2603 185.374 81.4278C185.653 81.5942 185.884 81.8459 186.068 82.1818C186.253 82.5186 186.345 82.9688 186.345 83.5333V88.2176H185.258V87.2551H185.203C185.108 87.439 184.983 87.6062 184.835 87.7504C184.638 87.9432 184.405 88.0958 184.149 88.1996C183.864 88.3229 183.515 88.3851 183.104 88.3851ZM183.27 87.4025C183.7 87.4025 184.062 87.3182 184.357 87.1488C184.654 86.9784 184.878 86.7598 185.029 86.4911C185.181 86.2224 185.258 85.9396 185.258 85.6439V84.6442C185.212 84.6994 185.111 84.7505 184.955 84.7966C184.779 84.8449 184.601 84.8837 184.42 84.9129C184.075 84.9667 183.728 85.0128 183.381 85.0513C183.112 85.0853 182.846 85.1458 182.589 85.2318C182.347 85.312 182.15 85.4343 182 85.5977C181.852 85.7582 181.778 85.9777 181.778 86.2555C181.778 86.6345 181.918 86.9212 182.197 87.1157C182.48 87.3072 182.837 87.4025 183.27 87.4025ZM188.474 88.2176V78.7387H189.561V82.2379H189.653C189.758 82.0772 189.869 81.9197 189.984 81.7657C190.151 81.5515 190.361 81.375 190.601 81.2473C190.871 81.0929 191.236 81.0157 191.696 81.0157C192.292 81.0157 192.816 81.1651 193.27 81.4649C193.724 81.7637 194.078 82.1878 194.333 82.7382C194.588 83.2867 194.715 83.9344 194.715 84.6813C194.715 85.4343 194.588 86.087 194.333 86.6395C194.078 87.1889 193.726 87.614 193.275 87.9168C192.824 88.2166 192.304 88.366 191.714 88.366C191.261 88.366 190.897 88.2898 190.624 88.1394C190.38 88.0101 190.166 87.832 189.994 87.616C189.873 87.4573 189.759 87.2934 189.653 87.1247H189.524V88.2176H188.474ZM189.542 84.6623C189.542 85.1997 189.621 85.6729 189.777 86.084C189.934 86.4911 190.162 86.8109 190.462 87.0415C190.763 87.2701 191.131 87.3844 191.567 87.3844C192.021 87.3844 192.4 87.2641 192.704 87.0235C193.02 86.7665 193.259 86.4268 193.394 86.0419C193.556 85.6007 193.636 85.1334 193.63 84.6633C193.63 84.163 193.553 83.7128 193.399 83.3117C193.267 82.9325 193.029 82.5997 192.713 82.3532C192.409 82.1156 192.027 81.9973 191.567 81.9973C191.125 81.9973 190.754 82.1096 190.453 82.3352C190.153 82.5567 189.926 82.8686 189.772 83.2696C189.619 83.6677 189.542 84.1309 189.542 84.6623ZM197.463 78.7377V88.2176H196.377V78.7387L197.463 78.7377ZM202.417 88.366C201.735 88.366 201.148 88.2146 200.653 87.9118C200.161 87.6041 199.766 87.1608 199.517 86.6345C199.254 86.085 199.121 85.4463 199.121 84.7184C199.121 83.9905 199.254 83.3478 199.517 82.7934C199.76 82.2624 200.146 81.8103 200.63 81.4879C201.11 81.1731 201.668 81.0157 202.306 81.0157C202.674 81.0157 203.038 81.0769 203.397 81.2002C203.756 81.3235 204.083 81.525 204.377 81.8018C204.672 82.0765 204.907 82.4414 205.082 82.8946C205.256 83.3488 205.344 83.9073 205.344 84.57V85.0332H199.895V84.0888H204.24C204.24 83.6877 204.16 83.3298 204 83.0159C203.851 82.7086 203.618 82.45 203.328 82.27C203.021 82.0825 202.666 81.9875 202.306 81.9963C201.874 81.9963 201.499 82.1046 201.183 82.3211C200.873 82.5297 200.624 82.8168 200.461 83.1533C200.291 83.4962 200.208 83.8632 200.208 84.2562V84.8849C200.208 85.4223 200.299 85.8775 200.484 86.2504C200.67 86.6214 200.93 86.9022 201.262 87.0977C201.593 87.2882 201.977 87.3844 202.417 87.3844C202.702 87.3844 202.959 87.3443 203.19 87.2641C203.423 87.1809 203.624 87.0576 203.793 86.8931C203.961 86.7277 204.092 86.5202 204.184 86.2735L205.234 86.5703C205.125 86.9248 204.934 87.2482 204.676 87.5138C204.403 87.791 204.073 88.0057 203.71 88.1434C203.296 88.297 202.858 88.3725 202.417 88.366Z" fill="#D8D8D8"/>
<path d="M297.137 96.7411H87.7696C82.5387 96.7411 78.2982 101.006 78.2982 106.267V118.299C78.2982 123.56 82.5387 127.825 87.7696 127.825H297.137C302.368 127.825 306.609 123.56 306.609 118.299V106.267C306.609 101.006 302.368 96.7411 297.137 96.7411Z" fill="#262626"/>
<path d="M297.137 96.7411H87.7696C82.5387 96.7411 78.2982 101.006 78.2982 106.267V118.299C78.2982 123.56 82.5387 127.825 87.7696 127.825H297.137C302.368 127.825 306.609 123.56 306.609 118.299V106.267C306.609 101.006 302.368 96.7411 297.137 96.7411Z" stroke="#484848" stroke-width="0.999806"/>
<path d="M90.9052 116.794V107.315H92.0467V112.017H92.1564L96.3916 107.315H97.8821L93.924 111.592L97.8821 116.794H96.5012L93.2251 112.388L92.0467 113.721V116.794H90.9052ZM101.658 116.943C100.977 116.943 100.388 116.791 99.895 116.489C99.4023 116.181 99.0078 115.738 98.7584 115.211C98.4942 114.662 98.3626 114.023 98.3626 113.295C98.3626 112.567 98.4942 111.926 98.7584 111.37C99.0246 110.811 99.3965 110.376 99.872 110.065C100.351 109.75 100.909 109.593 101.547 109.593C101.916 109.593 102.279 109.654 102.638 109.777C102.997 109.9 103.324 110.102 103.619 110.379C103.913 110.654 104.147 111.018 104.323 111.471C104.497 111.926 104.585 112.484 104.585 113.147V113.61H99.1353V112.666H103.48C103.48 112.265 103.4 111.907 103.241 111.593C103.091 111.285 102.858 111.027 102.569 110.847C102.261 110.659 101.907 110.564 101.547 110.573C101.114 110.573 100.739 110.681 100.424 110.898C100.115 111.107 99.8654 111.394 99.7016 111.73C99.5321 112.073 99.4483 112.44 99.4483 112.833V113.462C99.4483 113.999 99.541 114.454 99.7245 114.827C99.9119 115.198 100.171 115.479 100.502 115.675C100.834 115.865 101.219 115.961 101.659 115.961C101.943 115.961 102.201 115.921 102.431 115.841C102.656 115.762 102.862 115.636 103.033 115.47C103.203 115.304 103.333 115.097 103.425 114.85L104.474 115.146C104.366 115.501 104.176 115.825 103.918 116.091C103.644 116.368 103.314 116.582 102.951 116.72C102.537 116.874 102.099 116.949 101.658 116.943ZM106.722 119.46C106.538 119.46 106.373 119.445 106.229 119.414C106.126 119.399 106.026 119.371 105.93 119.331L106.206 118.369C106.47 118.436 106.703 118.461 106.906 118.443C107.113 118.422 107.305 118.324 107.444 118.169C107.604 118.009 107.749 117.748 107.882 117.387L108.084 116.832L105.47 109.685H106.648L108.6 115.35H108.673L110.625 109.685H111.803L108.802 117.831C108.688 118.162 108.518 118.47 108.301 118.744C108.101 118.987 107.869 119.168 107.606 119.285C107.327 119.406 107.026 119.466 106.722 119.46Z" fill="#606060"/>
<path d="M534.42 96.7411H325.053C319.822 96.7411 315.581 101.006 315.581 106.267V118.299C315.581 123.56 319.822 127.825 325.053 127.825H534.42C539.651 127.825 543.892 123.56 543.892 118.299V106.267C543.892 101.006 539.651 96.7411 534.42 96.7411Z" fill="#262626"/>
<path d="M534.42 96.7411H325.053C319.822 96.7411 315.581 101.006 315.581 106.267V118.299C315.581 123.56 319.822 127.825 325.053 127.825H534.42C539.651 127.825 543.892 123.56 543.892 118.299V106.267C543.892 101.006 539.651 96.7411 534.42 96.7411Z" stroke="#484848" stroke-width="0.999806"/>
<path d="M328.575 107.315L331.373 115.296H331.483L334.282 107.315H335.478L332.018 116.794H330.839L327.378 107.315H328.575ZM338.222 116.961C337.773 116.961 337.368 116.877 337.002 116.706C336.649 116.544 336.348 116.286 336.132 115.961C335.917 115.634 335.81 115.239 335.81 114.776C335.81 114.369 335.89 114.039 336.05 113.786C336.209 113.53 336.422 113.329 336.69 113.184C336.956 113.039 337.251 112.931 337.573 112.86C337.898 112.786 338.225 112.728 338.553 112.685C338.983 112.629 339.331 112.587 339.598 112.559C339.868 112.529 340.064 112.477 340.187 112.407C340.313 112.336 340.376 112.212 340.376 112.036V111.999C340.376 111.543 340.252 111.187 340.003 110.935C339.757 110.681 339.385 110.555 338.885 110.555C338.366 110.555 337.96 110.669 337.665 110.898C337.371 111.126 337.163 111.369 337.044 111.629L336.013 111.258C336.197 110.827 336.442 110.49 336.749 110.249C337.059 110.006 337.397 109.836 337.761 109.74C338.116 109.643 338.481 109.594 338.848 109.593C339.074 109.593 339.336 109.62 339.63 109.676C339.928 109.728 340.215 109.837 340.491 110.005C340.77 110.171 341.002 110.423 341.186 110.759C341.37 111.096 341.462 111.546 341.462 112.11V116.794H340.376V115.832H340.321C340.225 116.016 340.101 116.183 339.953 116.327C339.755 116.52 339.522 116.672 339.267 116.775C338.982 116.9 338.633 116.961 338.222 116.961ZM338.388 115.98C338.817 115.98 339.179 115.895 339.473 115.726C339.754 115.573 339.986 115.346 340.145 115.068C340.296 114.811 340.375 114.519 340.376 114.221V113.221C340.33 113.277 340.229 113.327 340.072 113.373C339.896 113.422 339.718 113.461 339.538 113.49C339.192 113.544 338.846 113.59 338.498 113.628C338.229 113.662 337.964 113.723 337.707 113.809C337.464 113.889 337.268 114.011 337.117 114.175C336.97 114.335 336.896 114.555 336.896 114.832C336.896 115.211 337.036 115.498 337.315 115.693C337.598 115.884 337.955 115.98 338.388 115.98ZM344.531 107.315V116.794H343.444V107.315H344.531ZM350.975 113.888V109.685H352.062V116.794H350.975V115.591H350.902C350.729 115.961 350.462 116.278 350.129 116.512C349.779 116.762 349.337 116.887 348.803 116.887C348.392 116.895 347.986 116.794 347.625 116.596C347.272 116.388 346.99 116.078 346.815 115.707C346.619 115.309 346.52 114.807 346.52 114.203V109.685H347.607V114.128C347.607 114.647 347.75 115.061 348.039 115.369C348.33 115.678 348.702 115.832 349.153 115.832C349.423 115.832 349.697 115.762 349.976 115.623C350.259 115.484 350.495 115.272 350.685 114.985C350.879 114.698 350.975 114.332 350.975 113.888ZM357.015 116.943C356.334 116.943 355.746 116.791 355.253 116.489C354.76 116.181 354.365 115.738 354.116 115.211C353.852 114.662 353.72 114.023 353.72 113.295C353.72 112.567 353.852 111.926 354.116 111.37C354.382 110.811 354.754 110.376 355.23 110.065C355.708 109.75 356.266 109.593 356.905 109.593C357.273 109.593 357.636 109.654 357.995 109.777C358.354 109.9 358.681 110.102 358.976 110.379C359.27 110.654 359.506 111.018 359.68 111.471C359.855 111.926 359.942 112.484 359.942 113.147V113.61H354.493V112.666H358.838C358.838 112.265 358.758 111.907 358.598 111.593C358.449 111.285 358.216 111.027 357.926 110.847C357.619 110.659 357.264 110.564 356.905 110.573C356.472 110.573 356.098 110.681 355.782 110.898C355.472 111.107 355.223 111.394 355.059 111.73C354.89 112.073 354.804 112.451 354.806 112.833V113.462C354.806 113.999 354.898 114.454 355.082 114.827C355.269 115.198 355.529 115.479 355.86 115.675C356.192 115.865 356.577 115.961 357.015 115.961C357.3 115.961 357.559 115.921 357.789 115.841C358.022 115.758 358.223 115.634 358.391 115.47C358.561 115.304 358.69 115.097 358.783 114.85L359.832 115.146C359.723 115.501 359.533 115.825 359.275 116.091C359.001 116.368 358.672 116.582 358.308 116.72C357.895 116.874 357.456 116.949 357.015 116.943Z" fill="#606060"/>
</g>
</g>
</g>
<defs>
<clipPath id="clip0_1_473">
<rect width="538.8" height="207.53" fill="white" transform="translate(0 0.780029)"/>
</clipPath>
<clipPath id="clip1_1_473">
<rect width="457.97" height="56.03" fill="white" transform="translate(83.81 74.11)"/>
</clipPath>
<clipPath id="clip2_1_473">
<rect width="457.97" height="56.03" fill="white" transform="translate(83.81 74.11)"/>
</clipPath>
<clipPath id="clip3_1_473">
<rect width="506.47" height="89.24" fill="white" transform="translate(57.86 59.14)"/>
</clipPath>
<clipPath id="clip4_1_473">
<rect width="506.47" height="89.24" fill="white" transform="translate(57.86 59.14)"/>
</clipPath>
</defs>
</svg>
