<svg width="14" height="16" viewBox="0 0 14 16" fill="none" xmlns="http://www.w3.org/2000/svg">
<g clip-path="url(#clip0_1_389)">
<path fill-rule="evenodd" clip-rule="evenodd" d="M0 14.392C0 14.799 0.33 15.129 0.737 15.129H3.684C4.091 15.129 4.421 14.799 4.421 14.392V12.864C4.421 12.457 4.751 12.127 5.158 12.127H5.581C5.988 12.127 6.318 11.797 6.318 11.39V9.54803C6.318 9.45124 6.29894 9.35541 6.2619 9.26599C6.22486 9.17657 6.17057 9.09533 6.10214 9.02689C6.0337 8.95845 5.95245 8.90417 5.86304 8.86713C5.77362 8.83009 5.67778 8.81103 5.581 8.81103H3.739C3.54354 8.81103 3.35608 8.88868 3.21786 9.02689C3.07965 9.1651 3.002 9.35256 3.002 9.54803V9.97103C3.002 10.378 2.672 10.708 2.265 10.708H0.737C0.541535 10.708 0.354077 10.7857 0.215862 10.9239C0.077648 11.0621 0 11.2496 0 11.445L0 14.392ZM4.421 3.76203C4.421 4.16903 4.751 4.49903 5.158 4.49903H5.581C5.988 4.49903 6.318 4.82903 6.318 5.23603V6.71003C6.318 7.11703 5.988 7.44703 5.581 7.44703H4.107C3.91154 7.44703 3.72408 7.36938 3.58586 7.23117C3.44765 7.09295 3.37 6.90549 3.37 6.71003V6.28703C3.37 6.09174 3.29249 5.90443 3.15449 5.76624C3.01649 5.62806 2.82929 5.55029 2.634 5.55003H0.737C0.541535 5.55003 0.354077 5.47238 0.215862 5.33417C0.077648 5.19595 0 5.00849 0 4.81303L0 1.86603C0 1.45903 0.33 1.12903 0.737 1.12903H3.684C4.091 1.12903 4.421 1.45903 4.421 1.86603V3.76203ZM10.63 6.28703C10.63 5.88003 10.96 5.55003 11.366 5.55003H13.263C13.67 5.55003 14 5.22003 14 4.81303V1.86603C14 1.67056 13.9224 1.4831 13.7841 1.34489C13.6459 1.20668 13.4585 1.12903 13.263 1.12903H10.316C10.2192 1.12903 10.1234 1.14809 10.034 1.18513C9.94455 1.22217 9.8633 1.27645 9.79486 1.34489C9.72643 1.41333 9.67214 1.49457 9.6351 1.58399C9.59806 1.67341 9.579 1.76924 9.579 1.86603V3.76203C9.579 4.16903 9.249 4.49903 8.842 4.49903H8.42C8.22454 4.49903 8.03708 4.57668 7.89886 4.71489C7.76065 4.85311 7.683 5.04056 7.683 5.23603V6.71003C7.683 7.11703 8.013 7.44703 8.42 7.44703H9.894C10.301 7.44703 10.631 7.11703 10.631 6.71003L10.63 6.28703ZM14 14.392C14 14.799 13.67 15.129 13.263 15.129H10.316C10.2192 15.129 10.1234 15.11 10.034 15.0729C9.94455 15.0359 9.8633 14.9816 9.79486 14.9132C9.72643 14.8447 9.67214 14.7635 9.6351 14.6741C9.59806 14.5847 9.579 14.4888 9.579 14.392V12.495C9.57874 12.2997 9.50097 12.1125 9.36278 11.9745C9.2246 11.8365 9.03729 11.759 8.842 11.759H8.419C8.22354 11.759 8.03608 11.6814 7.89786 11.5432C7.75965 11.405 7.682 11.2175 7.682 11.022V9.54803C7.682 9.14103 8.012 8.81103 8.419 8.81103H9.893C10.3 8.81103 10.63 9.14103 10.63 9.54803V9.97103C10.63 10.378 10.96 10.708 11.366 10.708H13.263C13.67 10.708 14 11.038 14 11.445V14.392Z" fill="white"/>
</g>
<defs>
<clipPath id="clip0_1_389">
<rect width="14" height="15" fill="white" transform="translate(0 0.75)"/>
</clipPath>
</defs>
</svg>
