<svg width="60" height="61" viewBox="0 0 60 61" fill="none" xmlns="http://www.w3.org/2000/svg">
<rect y="0.140137" width="60" height="60" rx="10" fill="#303030"/>
<g clip-path="url(#clip0_1_758)">
<g clip-path="url(#clip1_1_758)">
<path d="M19 24.0678L19 27.6676C19 28.0542 18.6866 28.3677 18.2999 28.3677L14.7001 28.3677C14.3135 28.3677 14 28.0542 14 27.6676L14 24.0678C14 23.6811 14.3135 23.3677 14.7001 23.3677L18.2999 23.3677C18.6866 23.3677 19 23.6811 19 24.0678Z" fill="#F4AF88"/>
</g>
</g>
<g clip-path="url(#clip2_1_758)">
<g clip-path="url(#clip3_1_758)">
<path d="M37 24.0678L37 27.6676C37 28.0542 36.6866 28.3677 36.2999 28.3677L32.7001 28.3677C32.3135 28.3677 32 28.0542 32 27.6676L32 24.0678C32 23.6811 32.3135 23.3677 32.7001 23.3677L36.2999 23.3677C36.6866 23.3677 37 23.6811 37 24.0678Z" fill="#F4AF88"/>
</g>
</g>
<g clip-path="url(#clip4_1_758)">
<g clip-path="url(#clip5_1_758)">
<path d="M46 14.8402L46 18.4401C46 18.8267 45.6866 19.1401 45.2999 19.1401L41.7001 19.1401C41.3135 19.1401 41 18.8267 41 18.4401L41 14.8402C41 14.4536 41.3135 14.1402 41.7001 14.1402L45.2999 14.1402C45.6866 14.1402 46 14.4536 46 14.8402Z" fill="#F4AF88"/>
</g>
</g>
<g clip-path="url(#clip6_1_758)">
<g clip-path="url(#clip7_1_758)">
<path d="M28 15.0679L28 18.6677C28 19.0544 27.6866 19.3678 27.2999 19.3678L23.7001 19.3678C23.3135 19.3678 23 19.0544 23 18.6677L23 15.0679C23 14.6812 23.3135 14.3678 23.7001 14.3678L27.2999 14.3678C27.6866 14.3678 28 14.6813 28 15.0679Z" fill="#F4AF88"/>
</g>
</g>
<g clip-path="url(#clip8_1_758)">
<g clip-path="url(#clip9_1_758)">
<path d="M27.2999 37.3678L23.7001 37.3678C23.3134 37.3678 23 37.0544 23 36.6677L23 33.0679C23 32.6813 23.3134 32.3678 23.7001 32.3678L27.2999 32.3678C27.6865 32.3678 28 32.6813 28 33.0679L28 36.6677C28 37.0544 27.6865 37.3678 27.2999 37.3678Z" fill="#F4AF88"/>
</g>
</g>
<g clip-path="url(#clip10_1_758)">
<g clip-path="url(#clip11_1_758)">
<path d="M18.2999 46.1401L14.7001 46.1401C14.3134 46.1401 14 45.8267 14 45.4401L14 41.8402C14 41.4536 14.3134 41.1402 14.7001 41.1402L18.2999 41.1402C18.6865 41.1402 19 41.4536 19 41.8402L19 45.4401C19 45.8267 18.6865 46.1401 18.2999 46.1401Z" fill="#F4AF88"/>
</g>
</g>
<rect x="41" y="37.1401" width="5" height="5" rx="1" transform="rotate(-90 41 37.1401)" fill="#F4AF88"/>
<rect x="32" y="46.1401" width="5" height="5" rx="1" transform="rotate(-90 32 46.1401)" fill="#F4AF88"/>
<rect x="0.5" y="0.640137" width="59" height="59" rx="9.5" stroke="#606060"/>
<defs>
<clipPath id="clip0_1_758">
<rect width="5" height="6" fill="white" transform="translate(14 23.1401)"/>
</clipPath>
<clipPath id="clip1_1_758">
<rect width="5" height="6" fill="white" transform="translate(14 23.1401)"/>
</clipPath>
<clipPath id="clip2_1_758">
<rect width="5" height="6" fill="white" transform="translate(32 23.1401)"/>
</clipPath>
<clipPath id="clip3_1_758">
<rect width="5" height="6" fill="white" transform="translate(32 23.1401)"/>
</clipPath>
<clipPath id="clip4_1_758">
<rect width="5" height="5" fill="white" transform="translate(41 14.1401)"/>
</clipPath>
<clipPath id="clip5_1_758">
<rect width="5" height="5" fill="white" transform="translate(41 14.1401)"/>
</clipPath>
<clipPath id="clip6_1_758">
<rect width="5" height="6" fill="white" transform="translate(23 14.1401)"/>
</clipPath>
<clipPath id="clip7_1_758">
<rect width="5" height="6" fill="white" transform="translate(23 14.1401)"/>
</clipPath>
<clipPath id="clip8_1_758">
<rect width="5" height="6" fill="white" transform="translate(23 32.1401)"/>
</clipPath>
<clipPath id="clip9_1_758">
<rect width="5" height="6" fill="white" transform="translate(23 32.1401)"/>
</clipPath>
<clipPath id="clip10_1_758">
<rect width="5" height="5" fill="white" transform="translate(14 41.1401)"/>
</clipPath>
<clipPath id="clip11_1_758">
<rect width="5" height="5" fill="white" transform="translate(14 41.1401)"/>
</clipPath>
</defs>
</svg>
