<svg width="60" height="61" viewBox="0 0 60 61" fill="none" xmlns="http://www.w3.org/2000/svg">
<rect y="0.140137" width="60" height="60" rx="10" fill="#303030"/>
<g clip-path="url(#clip0_1_722)">
<g clip-path="url(#clip1_1_722)">
<path d="M28 23.8402L28 27.4401C28 27.8267 27.6866 28.1401 27.2999 28.1401L23.7001 28.1401C23.3135 28.1401 23 27.8267 23 27.4401L23 23.8402C23 23.4536 23.3135 23.1402 23.7001 23.1402L27.2999 23.1402C27.6866 23.1402 28 23.4536 28 23.8402Z" fill="#96D3FF"/>
</g>
</g>
<g clip-path="url(#clip2_1_722)">
<g clip-path="url(#clip3_1_722)">
<path d="M19 23.8402L19 27.4401C19 27.8267 18.6866 28.1401 18.2999 28.1401L14.7001 28.1401C14.3135 28.1401 14 27.8267 14 27.4401L14 23.8402C14 23.4536 14.3135 23.1402 14.7001 23.1402L18.2999 23.1402C18.6866 23.1402 19 23.4536 19 23.8402Z" fill="#96D3FF"/>
</g>
</g>
<g clip-path="url(#clip4_1_722)">
<g clip-path="url(#clip5_1_722)">
<path d="M37 23.8402L37 27.4401C37 27.8267 36.6866 28.1401 36.2999 28.1401L32.7001 28.1401C32.3135 28.1401 32 27.8267 32 27.4401L32 23.8402C32 23.4536 32.3135 23.1402 32.7001 23.1402L36.2999 23.1402C36.6866 23.1402 37 23.4536 37 23.8402Z" fill="#96D3FF"/>
</g>
</g>
<g clip-path="url(#clip6_1_722)">
<g clip-path="url(#clip7_1_722)">
<path d="M46 23.8402L46 27.4401C46 27.8267 45.6866 28.1401 45.2999 28.1401L41.7001 28.1401C41.3135 28.1401 41 27.8267 41 27.4401L41 23.8402C41 23.4536 41.3135 23.1402 41.7001 23.1402L45.2999 23.1402C45.6866 23.1402 46 23.4536 46 23.8402Z" fill="#96D3FF"/>
</g>
</g>
<g clip-path="url(#clip8_1_722)">
<g clip-path="url(#clip9_1_722)">
<path d="M28 14.8402L28 18.4401C28 18.8267 27.6866 19.1401 27.2999 19.1401L23.7001 19.1401C23.3135 19.1401 23 18.8267 23 18.4401L23 14.8402C23 14.4536 23.3135 14.1402 23.7001 14.1402L27.2999 14.1402C27.6866 14.1402 28 14.4536 28 14.8402Z" fill="#96D3FF"/>
</g>
</g>
<g clip-path="url(#clip10_1_722)">
<g clip-path="url(#clip11_1_722)">
<path d="M27.2999 37.1401L23.7001 37.1401C23.3134 37.1401 23 36.8267 23 36.4401L23 32.8402C23 32.4536 23.3134 32.1402 23.7001 32.1402L27.2999 32.1402C27.6865 32.1402 28 32.4536 28 32.8402L28 36.4401C28 36.8267 27.6865 37.1401 27.2999 37.1401Z" fill="#96D3FF"/>
</g>
</g>
<g clip-path="url(#clip12_1_722)">
<g clip-path="url(#clip13_1_722)">
<path d="M18.2999 37.1401L14.7001 37.1401C14.3134 37.1401 14 36.8267 14 36.4401L14 32.8402C14 32.4536 14.3134 32.1402 14.7001 32.1402L18.2999 32.1402C18.6865 32.1402 19 32.4536 19 32.8402L19 36.4401C19 36.8267 18.6865 37.1401 18.2999 37.1401Z" fill="#96D3FF"/>
</g>
</g>
<g clip-path="url(#clip14_1_722)">
<g clip-path="url(#clip15_1_722)">
<path d="M27.2999 46.1401L23.7001 46.1401C23.3134 46.1401 23 45.8267 23 45.4401L23 41.8402C23 41.4536 23.3134 41.1402 23.7001 41.1402L27.2999 41.1402C27.6865 41.1402 28 41.4536 28 41.8402L28 45.4401C28 45.8267 27.6865 46.1401 27.2999 46.1401Z" fill="#96D3FF"/>
</g>
</g>
<rect x="32" y="37.1401" width="5" height="5" rx="1" transform="rotate(-90 32 37.1401)" fill="#95D3FF"/>
<rect x="41" y="37.1401" width="5" height="5" rx="1" transform="rotate(-90 41 37.1401)" fill="#95D3FF"/>
<rect x="32" y="46.1401" width="5" height="5" rx="1" transform="rotate(-90 32 46.1401)" fill="#95D3FF"/>
<rect x="32" y="19.1401" width="5" height="5" rx="1" transform="rotate(-90 32 19.1401)" fill="#95D3FF"/>
<rect x="0.5" y="0.640137" width="59" height="59" rx="9.5" stroke="#606060"/>
<defs>
<clipPath id="clip0_1_722">
<rect width="5" height="5" fill="white" transform="translate(23 23.1401)"/>
</clipPath>
<clipPath id="clip1_1_722">
<rect width="5" height="5" fill="white" transform="translate(23 23.1401)"/>
</clipPath>
<clipPath id="clip2_1_722">
<rect width="5" height="5" fill="white" transform="translate(14 23.1401)"/>
</clipPath>
<clipPath id="clip3_1_722">
<rect width="5" height="5" fill="white" transform="translate(14 23.1401)"/>
</clipPath>
<clipPath id="clip4_1_722">
<rect width="5" height="5" fill="white" transform="translate(32 23.1401)"/>
</clipPath>
<clipPath id="clip5_1_722">
<rect width="5" height="5" fill="white" transform="translate(32 23.1401)"/>
</clipPath>
<clipPath id="clip6_1_722">
<rect width="5" height="5" fill="white" transform="translate(41 23.1401)"/>
</clipPath>
<clipPath id="clip7_1_722">
<rect width="5" height="5" fill="white" transform="translate(41 23.1401)"/>
</clipPath>
<clipPath id="clip8_1_722">
<rect width="5" height="5" fill="white" transform="translate(23 14.1401)"/>
</clipPath>
<clipPath id="clip9_1_722">
<rect width="5" height="5" fill="white" transform="translate(23 14.1401)"/>
</clipPath>
<clipPath id="clip10_1_722">
<rect width="5" height="5" fill="white" transform="translate(23 32.1401)"/>
</clipPath>
<clipPath id="clip11_1_722">
<rect width="5" height="5" fill="white" transform="translate(23 32.1401)"/>
</clipPath>
<clipPath id="clip12_1_722">
<rect width="5" height="5" fill="white" transform="translate(14 32.1401)"/>
</clipPath>
<clipPath id="clip13_1_722">
<rect width="5" height="5" fill="white" transform="translate(14 32.1401)"/>
</clipPath>
<clipPath id="clip14_1_722">
<rect width="5" height="5" fill="white" transform="translate(23 41.1401)"/>
</clipPath>
<clipPath id="clip15_1_722">
<rect width="5" height="5" fill="white" transform="translate(23 41.1401)"/>
</clipPath>
</defs>
</svg>
