<svg width="60" height="61" viewBox="0 0 60 61" fill="none" xmlns="http://www.w3.org/2000/svg">
<rect y="0.140137" width="60" height="60" rx="10" fill="#303030"/>
<g clip-path="url(#clip0_1_823)">
<g clip-path="url(#clip1_1_823)">
<path d="M27 28.8402L27 32.4401C27 32.8267 26.6866 33.1401 26.2999 33.1401L22.7001 33.1401C22.3135 33.1401 22 32.8267 22 32.4401L22 28.8402C22 28.4536 22.3135 28.1402 22.7001 28.1402L26.2999 28.1402C26.6866 28.1402 27 28.4536 27 28.8402Z" fill="#A2CEAD"/>
</g>
</g>
<g clip-path="url(#clip2_1_823)">
<g clip-path="url(#clip3_1_823)">
<path d="M21 16.8402L21 20.4401C21 20.8267 20.6866 21.1401 20.2999 21.1401L16.7001 21.1401C16.3135 21.1401 16 20.8267 16 20.4401L16 16.8402C16 16.4536 16.3135 16.1402 16.7001 16.1402L20.2999 16.1402C20.6866 16.1402 21 16.4536 21 16.8402Z" fill="#A2CEAD"/>
</g>
</g>
<g clip-path="url(#clip4_1_823)">
<g clip-path="url(#clip5_1_823)">
<path d="M33 22.8402L33 26.4401C33 26.8267 32.6866 27.1401 32.2999 27.1401L28.7001 27.1401C28.3134 27.1401 28 26.8267 28 26.4401L28 22.8402C28 22.4536 28.3134 22.1401 28.7001 22.1401L32.2999 22.1401C32.6866 22.1401 33 22.4536 33 22.8402Z" fill="#A2CEAD"/>
</g>
</g>
<g clip-path="url(#clip6_1_823)">
<g clip-path="url(#clip7_1_823)">
<path d="M20.2999 45.1401L16.7001 45.1401C16.3134 45.1401 16 44.8267 16 44.4401L16 40.8402C16 40.4536 16.3134 40.1402 16.7001 40.1402L20.2999 40.1402C20.6865 40.1402 21 40.4536 21 40.8402L21 44.4401C21 44.8267 20.6865 45.1401 20.2999 45.1401Z" fill="#A2CEAD"/>
</g>
</g>
<rect x="40" y="45.1401" width="5" height="5" rx="1" transform="rotate(-90 40 45.1401)" fill="#A2CEAD"/>
<rect x="34" y="33.1401" width="5" height="5" rx="1" transform="rotate(-90 34 33.1401)" fill="#A2CEAD"/>
<rect x="40" y="21.1401" width="5" height="5" rx="1" transform="rotate(-90 40 21.1401)" fill="#A2CEAD"/>
<g clip-path="url(#clip8_1_823)">
<g clip-path="url(#clip9_1_823)">
<path d="M32.2999 39.1401L28.7001 39.1401C28.3134 39.1401 28 38.8267 28 38.4401L28 34.8402C28 34.4536 28.3134 34.1402 28.7001 34.1402L32.2999 34.1402C32.6865 34.1402 33 34.4536 33 34.8402L33 38.4401C33 38.8267 32.6865 39.1401 32.2999 39.1401Z" fill="#A2CEAD"/>
</g>
</g>
<rect x="0.5" y="0.640137" width="59" height="59" rx="9.5" stroke="#606060"/>
<defs>
<clipPath id="clip0_1_823">
<rect width="5" height="5" fill="white" transform="translate(22 28.1401)"/>
</clipPath>
<clipPath id="clip1_1_823">
<rect width="5" height="5" fill="white" transform="translate(22 28.1401)"/>
</clipPath>
<clipPath id="clip2_1_823">
<rect width="5" height="5" fill="white" transform="translate(16 16.1401)"/>
</clipPath>
<clipPath id="clip3_1_823">
<rect width="5" height="5" fill="white" transform="translate(16 16.1401)"/>
</clipPath>
<clipPath id="clip4_1_823">
<rect width="5" height="5" fill="white" transform="translate(28 22.1401)"/>
</clipPath>
<clipPath id="clip5_1_823">
<rect width="5" height="5" fill="white" transform="translate(28 22.1401)"/>
</clipPath>
<clipPath id="clip6_1_823">
<rect width="5" height="5" fill="white" transform="translate(16 40.1401)"/>
</clipPath>
<clipPath id="clip7_1_823">
<rect width="5" height="5" fill="white" transform="translate(16 40.1401)"/>
</clipPath>
<clipPath id="clip8_1_823">
<rect width="5" height="5" fill="white" transform="translate(28 34.1401)"/>
</clipPath>
<clipPath id="clip9_1_823">
<rect width="5" height="5" fill="white" transform="translate(28 34.1401)"/>
</clipPath>
</defs>
</svg>
