<svg width="60" height="61" viewBox="0 0 60 61" fill="none" xmlns="http://www.w3.org/2000/svg">
<rect y="0.140137" width="60" height="60" rx="10" fill="#303030"/>
<g clip-path="url(#clip0_1_786)">
<g clip-path="url(#clip1_1_786)">
<path d="M27.5 25.5679L27.5 29.1677C27.5 29.5544 27.1866 29.8678 26.7999 29.8678L23.2001 29.8678C22.8135 29.8678 22.5 29.5544 22.5 29.1677L22.5 25.5679C22.5 25.1812 22.8135 24.8678 23.2001 24.8678L26.7999 24.8678C27.1866 24.8678 27.5 25.1813 27.5 25.5679Z" fill="#FDAFAF"/>
</g>
</g>
<g clip-path="url(#clip2_1_786)">
<g clip-path="url(#clip3_1_786)">
<path d="M32.5 20.5679L32.5 24.1677C32.5 24.5544 32.1866 24.8678 31.7999 24.8678L28.2001 24.8678C27.8135 24.8678 27.5 24.5544 27.5 24.1677L27.5 20.5679C27.5 20.1812 27.8135 19.8678 28.2001 19.8678L31.7999 19.8678C32.1866 19.8678 32.5 20.1813 32.5 20.5679Z" fill="#FDAFAF"/>
</g>
</g>
<g clip-path="url(#clip4_1_786)">
<g clip-path="url(#clip5_1_786)">
<path d="M20.7999 34.8678L17.2001 34.8678C16.8134 34.8678 16.5 34.5544 16.5 34.1677L16.5 30.5679C16.5 30.1813 16.8134 29.8678 17.2001 29.8678L20.7999 29.8678C21.1865 29.8678 21.5 30.1813 21.5 30.5679L21.5 34.1677C21.5 34.5544 21.1865 34.8678 20.7999 34.8678Z" fill="#FDAFAF"/>
</g>
</g>
<g clip-path="url(#clip6_1_786)">
<g clip-path="url(#clip7_1_786)">
<path d="M15.7999 39.8678L12.2001 39.8678C11.8134 39.8678 11.5 39.5544 11.5 39.1677L11.5 35.5679C11.5 35.1813 11.8134 34.8678 12.2001 34.8678L15.7999 34.8678C16.1865 34.8678 16.5 35.1813 16.5 35.5679L16.5 39.1677C16.5 39.5544 16.1865 39.8678 15.7999 39.8678Z" fill="#FDAFAF"/>
</g>
</g>
<g clip-path="url(#clip8_1_786)">
<g clip-path="url(#clip9_1_786)">
<path d="M42.5 25.5679L42.5 29.1677C42.5 29.5544 42.1866 29.8678 41.7999 29.8678L38.2001 29.8678C37.8135 29.8678 37.5 29.5544 37.5 29.1677L37.5 25.5679C37.5 25.1812 37.8135 24.8678 38.2001 24.8678L41.7999 24.8678C42.1866 24.8678 42.5 25.1813 42.5 25.5679Z" fill="#FDAFAF"/>
</g>
</g>
<g clip-path="url(#clip10_1_786)">
<g clip-path="url(#clip11_1_786)">
<path d="M47.5 20.5679L47.5 24.1677C47.5 24.5544 47.1866 24.8678 46.7999 24.8678L43.2001 24.8678C42.8135 24.8678 42.5 24.5544 42.5 24.1677L42.5 20.5679C42.5 20.1812 42.8135 19.8678 43.2001 19.8678L46.7999 19.8678C47.1866 19.8678 47.5 20.1813 47.5 20.5679Z" fill="#FDAFAF"/>
</g>
</g>
<g clip-path="url(#clip12_1_786)">
<g clip-path="url(#clip13_1_786)">
<path d="M35.7999 34.8678L32.2001 34.8678C31.8134 34.8678 31.5 34.5544 31.5 34.1677L31.5 30.5679C31.5 30.1813 31.8134 29.8678 32.2001 29.8678L35.7999 29.8678C36.1865 29.8678 36.5 30.1813 36.5 30.5679L36.5 34.1677C36.5 34.5544 36.1865 34.8678 35.7999 34.8678Z" fill="#FDAFAF"/>
</g>
</g>
<g clip-path="url(#clip14_1_786)">
<g clip-path="url(#clip15_1_786)">
<path d="M30.7999 39.8678L27.2001 39.8678C26.8134 39.8678 26.5 39.5544 26.5 39.1677L26.5 35.5679C26.5 35.1813 26.8134 34.8678 27.2001 34.8678L30.7999 34.8678C31.1865 34.8678 31.5 35.1813 31.5 35.5679L31.5 39.1677C31.5 39.5544 31.1865 39.8678 30.7999 39.8678Z" fill="#FDAFAF"/>
</g>
</g>
<g clip-path="url(#clip16_1_786)">
<g clip-path="url(#clip17_1_786)">
<path d="M46.2999 39.3678L42.7001 39.3678C42.3134 39.3678 42 39.0544 42 38.6677L42 35.0679C42 34.6813 42.3134 34.3678 42.7001 34.3678L46.2999 34.3678C46.6865 34.3678 47 34.6813 47 35.0679L47 38.6677C47 39.0544 46.6865 39.3678 46.2999 39.3678Z" fill="#FDAFAF"/>
</g>
</g>
<g clip-path="url(#clip18_1_786)">
<g clip-path="url(#clip19_1_786)">
<path d="M16.2999 24.3678L12.7001 24.3678C12.3134 24.3678 12 24.0544 12 23.6677L12 20.0679C12 19.6813 12.3134 19.3678 12.7001 19.3678L16.2999 19.3678C16.6865 19.3678 17 19.6813 17 20.0679L17 23.6677C17 24.0544 16.6865 24.3678 16.2999 24.3678Z" fill="#FDAFAF"/>
</g>
</g>
<rect x="0.5" y="0.640137" width="59" height="59" rx="9.5" stroke="#606060"/>
<defs>
<clipPath id="clip0_1_786">
<rect width="5" height="6" fill="white" transform="translate(22.5 24.6401)"/>
</clipPath>
<clipPath id="clip1_1_786">
<rect width="5" height="6" fill="white" transform="translate(22.5 24.6401)"/>
</clipPath>
<clipPath id="clip2_1_786">
<rect width="5" height="6" fill="white" transform="translate(27.5 19.6401)"/>
</clipPath>
<clipPath id="clip3_1_786">
<rect width="5" height="6" fill="white" transform="translate(27.5 19.6401)"/>
</clipPath>
<clipPath id="clip4_1_786">
<rect width="5" height="6" fill="white" transform="translate(16.5 29.6401)"/>
</clipPath>
<clipPath id="clip5_1_786">
<rect width="5" height="6" fill="white" transform="translate(16.5 29.6401)"/>
</clipPath>
<clipPath id="clip6_1_786">
<rect width="5" height="6" fill="white" transform="translate(11.5 34.6401)"/>
</clipPath>
<clipPath id="clip7_1_786">
<rect width="5" height="6" fill="white" transform="translate(11.5 34.6401)"/>
</clipPath>
<clipPath id="clip8_1_786">
<rect width="5" height="6" fill="white" transform="translate(37.5 24.6401)"/>
</clipPath>
<clipPath id="clip9_1_786">
<rect width="5" height="6" fill="white" transform="translate(37.5 24.6401)"/>
</clipPath>
<clipPath id="clip10_1_786">
<rect width="5" height="6" fill="white" transform="translate(42.5 19.6401)"/>
</clipPath>
<clipPath id="clip11_1_786">
<rect width="5" height="6" fill="white" transform="translate(42.5 19.6401)"/>
</clipPath>
<clipPath id="clip12_1_786">
<rect width="5" height="6" fill="white" transform="translate(31.5 29.6401)"/>
</clipPath>
<clipPath id="clip13_1_786">
<rect width="5" height="6" fill="white" transform="translate(31.5 29.6401)"/>
</clipPath>
<clipPath id="clip14_1_786">
<rect width="5" height="6" fill="white" transform="translate(26.5 34.6401)"/>
</clipPath>
<clipPath id="clip15_1_786">
<rect width="5" height="6" fill="white" transform="translate(26.5 34.6401)"/>
</clipPath>
<clipPath id="clip16_1_786">
<rect width="5" height="6" fill="white" transform="translate(42 34.1401)"/>
</clipPath>
<clipPath id="clip17_1_786">
<rect width="5" height="6" fill="white" transform="translate(42 34.1401)"/>
</clipPath>
<clipPath id="clip18_1_786">
<rect width="5" height="6" fill="white" transform="translate(12 19.1401)"/>
</clipPath>
<clipPath id="clip19_1_786">
<rect width="5" height="6" fill="white" transform="translate(12 19.1401)"/>
</clipPath>
</defs>
</svg>
